<svg xmlns="http://www.w3.org/2000/svg" width="1919.56" height="81.276" viewBox="0 0 1919.56 81.276">
  <g id="Group_11" data-name="Group 11" transform="translate(53.088 -931.458)">
    <g id="Component_1_1" data-name="Component 1 – 1" transform="translate(907.377 931.458)">
      <g id="Group_10" data-name="Group 10" opacity="0.1">
        <path id="Path_148" data-name="Path 148" d="M77.483,1.946h3.9v3.9h-3.9ZM75.537,7.792h7.789V0H75.537Z" transform="translate(-2.049)" fill="#1a1818"/>
        <path id="Path_149" data-name="Path 149" d="M45.111,1.946H70v3.9h-21V26.84h-3.9ZM43.165,0V28.784h7.788V7.792h21V0Z" transform="translate(-1.171)" fill="#1a1818"/>
        <path id="Path_150" data-name="Path 150" d="M178.494,59.5h-3.9v-14.4h3.9Zm1.946-16.341h-7.789V61.45h7.789Z" transform="translate(-4.684 -1.171)" fill="#1a1818"/>
        <path id="Path_151" data-name="Path 151" d="M167.41,55.9v3.9h-10.5v6.6h10.5v3.9h-14.4V55.9Zm1.946-1.946H151.069V72.241h18.287V64.452h-10.5V61.743h10.5Z" transform="translate(-4.098 -1.464)" fill="#1a1818"/>
        <path id="Path_152" data-name="Path 152" d="M167.118,45.109v3.9h-21V70h-3.9V45.109Zm1.946-1.946H140.278V71.948h7.789v-21h21Z" transform="translate(-3.806 -1.171)" fill="#1a1818"/>
        <path id="Path_153" data-name="Path 153" d="M199.491,38.216H174.6v-3.9h24.894Zm1.946-5.843H172.651v7.789h28.785Z" transform="translate(-4.684 -0.878)" fill="#1a1818"/>
        <path id="Path_154" data-name="Path 154" d="M217.464,45.109h24.9v3.9h-21v6.6h21V70H210.866V80.5h-3.9V55.607h3.9v10.5H238.46V59.5h-21Zm-1.946-1.946V61.449h21v2.709h-23.7v-10.5H205.02V82.446h7.792v-10.5h31.495V53.661h-21V50.952h21V43.163Z" transform="translate(-5.562 -1.171)" fill="#1a1818"/>
        <path id="Path_155" data-name="Path 155" d="M217.757,77.481h24.9v3.9h-24.9Zm-1.946,5.844H244.6V75.536H215.811Z" transform="translate(-5.855 -2.049)" fill="#1a1818"/>
        <path id="Path_156" data-name="Path 156" d="M217.757,34.318h24.9v3.9h-24.9Zm-1.946,5.844H244.6V32.373H215.811Z" transform="translate(-5.855 -0.878)" fill="#1a1818"/>
        <path id="Path_157" data-name="Path 157" d="M210.867,38.216h-3.9v-3.9h3.9Zm1.946-5.843H205.02v7.789h7.793Z" transform="translate(-5.562 -0.878)" fill="#1a1818"/>
        <path id="Path_158" data-name="Path 158" d="M209.988,45.109v3.9h-21v17.1h6.6v-10.5h3.9V70H174.6v-3.9h10.5v-21Zm1.946-1.946H183.148v21h-10.5v7.789h28.785V53.661h-7.789v10.5h-2.709V50.952h21Z" transform="translate(-4.684 -1.171)" fill="#1a1818"/>
        <path id="Path_159" data-name="Path 159" d="M196.178,77.481h3.9v3.9h-3.9Zm-1.945,5.844h7.789V75.536h-7.789Z" transform="translate(-5.269 -2.049)" fill="#1a1818"/>
        <path id="Path_160" data-name="Path 160" d="M145.244,12.737v3.9h-10.5v6.6h10.5v3.9H109.852v-14.4h14.4v10.5h6.6v-10.5Zm-31.491,10.5h6.6v-6.6h-6.6v6.6M147.19,10.791H128.9v10.5H126.2v-10.5h-18.29V29.078H147.19V21.289h-10.5V18.584h10.5ZM115.7,18.584H118.4v2.706H115.7Z" transform="translate(-2.927 -0.293)" fill="#1a1818"/>
        <path id="Path_161" data-name="Path 161" d="M131.433,1.946H240.312v3.9H131.433Zm-1.945,5.846h112.77V0H129.488Z" transform="translate(-3.513)" fill="#1a1818"/>
        <path id="Path_162" data-name="Path 162" d="M133.285,45.109V70H55.9V45.109H91.293v3.9H59.8v17.1h6.6v-10.5h3.9v10.5h6.6v-10.5h24.894v10.5h6.6v-10.5h14.4v10.5h6.6v-17.1h-10.5v-3.9Zm-21,21h6.6V59.5h-6.6v6.6m-31.495,0h17.1V59.5h-17.1v6.6m54.436-22.942h-18.29v7.79h10.5V64.16h-2.707v-10.5h-18.29v10.5h-2.706v-10.5H74.952v10.5H72.242v-10.5H64.453v10.5H61.745V50.953H93.239v-7.79H53.955V71.948h81.276Zm-21,18.287h2.706V64.16h-2.706Zm-31.495,0h13.2V64.16H82.74Z" transform="translate(-1.464 -1.171)" fill="#1a1818"/>
        <path id="Path_163" data-name="Path 163" d="M120.643,1.946h3.9v3.9h-3.9ZM118.7,7.792h7.793V0H118.7Z" transform="translate(-3.22)" fill="#1a1818"/>
        <path id="Path_164" data-name="Path 164" d="M113.753,49.007h-3.9v-3.9h3.9Zm1.946-5.844h-7.793v7.789H115.7Z" transform="translate(-2.927 -1.171)" fill="#1a1818"/>
        <path id="Path_165" data-name="Path 165" d="M109.852,1.946h3.9v3.9h-3.9Zm-1.946,5.846H115.7V0h-7.793Z" transform="translate(-2.927)" fill="#1a1818"/>
        <path id="Path_166" data-name="Path 166" d="M101.791,12.737v14.4H70.3v10.5H55.9v-3.9H66.4v-6.6H55.9v-14.4H70.3v10.5h6.6v-10.5h3.9v10.5h6.6v-10.5Zm-10.5,10.5h6.6v-6.6h-6.6v6.6m-31.494,0h6.6v-6.6H59.8v6.6m43.938-12.444H85.446v10.5H82.74v-10.5H74.952v10.5H72.242v-10.5H53.955V29.078h10.5v2.709h-10.5v7.789H72.242v-10.5h31.495Zm-10.5,7.793h2.706v2.706H93.239Zm-31.494,0h2.709v2.706H61.745Z" transform="translate(-1.464 -0.293)" fill="#1a1818"/>
        <path id="Path_167" data-name="Path 167" d="M102.962,49.007h-3.9v-3.9h3.9Zm1.946-5.844H97.115v7.789h7.793Z" transform="translate(-2.635 -1.171)" fill="#1a1818"/>
        <path id="Path_168" data-name="Path 168" d="M99.061,1.946h3.9v3.9h-3.9ZM97.115,7.792h7.792V0H97.115Z" transform="translate(-2.635)" fill="#1a1818"/>
        <path id="Path_169" data-name="Path 169" d="M88.27,1.946h3.9v3.9h-3.9ZM86.324,7.792h7.793V0H86.324Z" transform="translate(-2.342)" fill="#1a1818"/>
        <path id="Path_170" data-name="Path 170" d="M156.809,18.583h2.709v2.706h-2.709Zm2.708-1.946h-4.654v6.6h6.6v-6.6Zm18.288,1.946h2.709v2.706h-2.709Zm2.708-1.946h-4.654v6.6h6.6v-6.6ZM230.3,18.583H233v2.706H230.3ZM233,16.637H228.35v6.6h6.6v-6.6Zm-13.2,6.6h4.652v-10.5h14.4v14.4H165.361v10.5H77.483v-3.9h83.981v-6.6h-10.5v-14.4h14.4v10.5h6.6v-10.5h14.4v10.5h27.594v-6.6H192.958v-3.9h24.894v10.5ZM222.5,10.79v10.5H219.8V10.79H191.012v7.793h20.994v2.706H188.3V10.79H170.015v10.5h-2.708V10.79H149.02V29.077h10.5v2.709H75.537v7.789h91.77v-10.5h73.487V10.79Z" transform="translate(-2.049 -0.293)" fill="#1a1818"/>
        <path id="Path_171" data-name="Path 171" d="M7.794,23.234H33.441v-10.5h3.9v14.4H1.948v-14.4h3.9v10.5ZM31.5,10.79v10.5H7.794V10.79H0V29.077H39.285V10.79Z" transform="translate(0 -0.293)" fill="#1a1818"/>
        <path id="Path_172" data-name="Path 172" d="M16.635,16.638h-3.9v-3.9h3.9Zm1.946-5.847H10.792v7.793h7.789Z" transform="translate(-0.293 -0.293)" fill="#1a1818"/>
        <path id="Path_173" data-name="Path 173" d="M27.426,16.638h-3.9v-3.9h3.9Zm1.946-5.847H21.583v7.793h7.789Z" transform="translate(-0.586 -0.293)" fill="#1a1818"/>
        <path id="Path_174" data-name="Path 174" d="M7.794,61.742H10.5v2.709H7.794ZM10.5,59.8H5.848v6.6h6.6V59.8Zm28.785,6.6H43.94V55.9h3.9V70.3H1.948V55.9h14.4V66.4h17.1V55.9h3.9V66.4Zm2.709-12.444v10.5H39.285v-10.5H31.5v10.5H18.288v-10.5H0V72.24H49.782V53.954Z" transform="translate(0 -1.464)" fill="#1a1818"/>
        <path id="Path_175" data-name="Path 175" d="M48.712,34.318v3.9h-10.5v6.6h10.5v3.9h-14.4v-14.4Zm1.946-1.946H32.371V50.659H50.658V42.87H40.16V40.161h10.5Z" transform="translate(-0.878 -0.878)" fill="#1a1818"/>
        <path id="Path_176" data-name="Path 176" d="M1.948,45.109h3.9v3.9h-3.9ZM0,50.953H7.794V43.164H0Z" transform="translate(0 -1.171)" fill="#1a1818"/>
        <path id="Path_177" data-name="Path 177" d="M16.635,49.007h-3.9v-3.9h3.9Zm1.946-5.844H10.792v7.789h7.789Z" transform="translate(-0.293 -1.171)" fill="#1a1818"/>
        <path id="Path_178" data-name="Path 178" d="M23.529,77.481h3.9v3.9h-3.9Zm-1.946,5.844h7.789V75.536H21.583Z" transform="translate(-0.586 -2.049)" fill="#1a1818"/>
        <path id="Path_179" data-name="Path 179" d="M34.32,77.481h3.9v3.9h-3.9Zm-1.946,5.844h7.789V75.536H32.374Z" transform="translate(-0.878 -2.049)" fill="#1a1818"/>
        <path id="Path_180" data-name="Path 180" d="M45.111,77.481H185.479v3.9H45.111Zm-1.946,5.844h144.26V75.536H43.165Z" transform="translate(-1.171 -2.049)" fill="#1a1818"/>
        <path id="Path_181" data-name="Path 181" d="M1.948,77.481h14.4v3.9H1.948ZM0,83.325H18.288V75.536H0Z" transform="translate(0 -2.049)" fill="#1a1818"/>
        <path id="Path_182" data-name="Path 182" d="M1.946,34.317h24.89V53.367l0,1.946v3.9h-3.9v-2.7l0-1.946V38.215H1.946ZM0,32.371V40.16H20.993V56.509h0v4.647h7.788V53.367h0v-21Z" transform="translate(0 -0.878)" fill="#1a1818"/>
        <path id="Path_183" data-name="Path 183" d="M1.948,1.946H37.339v3.9H1.948ZM0,7.792H39.285V0H0Z" transform="translate(0)" fill="#1a1818"/>
      </g>
    </g>
    <g id="Component_1_9" data-name="Component 1 – 9" transform="translate(187.029 931.458)">
      <g id="Group_10-2" data-name="Group 10" opacity="0.1">
        <path id="Path_148-2" data-name="Path 148" d="M77.483,1.946h3.9v3.9h-3.9ZM75.537,7.792h7.789V0H75.537Z" transform="translate(-2.049)" fill="#1a1818"/>
        <path id="Path_149-2" data-name="Path 149" d="M45.111,1.946H70v3.9h-21V26.84h-3.9ZM43.165,0V28.784h7.788V7.792h21V0Z" transform="translate(-1.171)" fill="#1a1818"/>
        <path id="Path_150-2" data-name="Path 150" d="M178.494,59.5h-3.9v-14.4h3.9Zm1.946-16.341h-7.789V61.45h7.789Z" transform="translate(-4.684 -1.171)" fill="#1a1818"/>
        <path id="Path_151-2" data-name="Path 151" d="M167.41,55.9v3.9h-10.5v6.6h10.5v3.9h-14.4V55.9Zm1.946-1.946H151.069V72.241h18.287V64.452h-10.5V61.743h10.5Z" transform="translate(-4.098 -1.464)" fill="#1a1818"/>
        <path id="Path_152-2" data-name="Path 152" d="M167.118,45.109v3.9h-21V70h-3.9V45.109Zm1.946-1.946H140.278V71.948h7.789v-21h21Z" transform="translate(-3.806 -1.171)" fill="#1a1818"/>
        <path id="Path_153-2" data-name="Path 153" d="M199.491,38.216H174.6v-3.9h24.894Zm1.946-5.843H172.651v7.789h28.785Z" transform="translate(-4.684 -0.878)" fill="#1a1818"/>
        <path id="Path_154-2" data-name="Path 154" d="M217.464,45.109h24.9v3.9h-21v6.6h21V70H210.866V80.5h-3.9V55.607h3.9v10.5H238.46V59.5h-21Zm-1.946-1.946V61.449h21v2.709h-23.7v-10.5H205.02V82.446h7.792v-10.5h31.495V53.661h-21V50.952h21V43.163Z" transform="translate(-5.562 -1.171)" fill="#1a1818"/>
        <path id="Path_155-2" data-name="Path 155" d="M217.757,77.481h24.9v3.9h-24.9Zm-1.946,5.844H244.6V75.536H215.811Z" transform="translate(-5.855 -2.049)" fill="#1a1818"/>
        <path id="Path_156-2" data-name="Path 156" d="M217.757,34.318h24.9v3.9h-24.9Zm-1.946,5.844H244.6V32.373H215.811Z" transform="translate(-5.855 -0.878)" fill="#1a1818"/>
        <path id="Path_157-2" data-name="Path 157" d="M210.867,38.216h-3.9v-3.9h3.9Zm1.946-5.843H205.02v7.789h7.793Z" transform="translate(-5.562 -0.878)" fill="#1a1818"/>
        <path id="Path_158-2" data-name="Path 158" d="M209.988,45.109v3.9h-21v17.1h6.6v-10.5h3.9V70H174.6v-3.9h10.5v-21Zm1.946-1.946H183.148v21h-10.5v7.789h28.785V53.661h-7.789v10.5h-2.709V50.952h21Z" transform="translate(-4.684 -1.171)" fill="#1a1818"/>
        <path id="Path_159-2" data-name="Path 159" d="M196.178,77.481h3.9v3.9h-3.9Zm-1.945,5.844h7.789V75.536h-7.789Z" transform="translate(-5.269 -2.049)" fill="#1a1818"/>
        <path id="Path_160-2" data-name="Path 160" d="M145.244,12.737v3.9h-10.5v6.6h10.5v3.9H109.852v-14.4h14.4v10.5h6.6v-10.5Zm-31.491,10.5h6.6v-6.6h-6.6v6.6M147.19,10.791H128.9v10.5H126.2v-10.5h-18.29V29.078H147.19V21.289h-10.5V18.584h10.5ZM115.7,18.584H118.4v2.706H115.7Z" transform="translate(-2.927 -0.293)" fill="#1a1818"/>
        <path id="Path_161-2" data-name="Path 161" d="M131.433,1.946H240.312v3.9H131.433Zm-1.945,5.846h112.77V0H129.488Z" transform="translate(-3.513)" fill="#1a1818"/>
        <path id="Path_162-2" data-name="Path 162" d="M133.285,45.109V70H55.9V45.109H91.293v3.9H59.8v17.1h6.6v-10.5h3.9v10.5h6.6v-10.5h24.894v10.5h6.6v-10.5h14.4v10.5h6.6v-17.1h-10.5v-3.9Zm-21,21h6.6V59.5h-6.6v6.6m-31.495,0h17.1V59.5h-17.1v6.6m54.436-22.942h-18.29v7.79h10.5V64.16h-2.707v-10.5h-18.29v10.5h-2.706v-10.5H74.952v10.5H72.242v-10.5H64.453v10.5H61.745V50.953H93.239v-7.79H53.955V71.948h81.276Zm-21,18.287h2.706V64.16h-2.706Zm-31.495,0h13.2V64.16H82.74Z" transform="translate(-1.464 -1.171)" fill="#1a1818"/>
        <path id="Path_163-2" data-name="Path 163" d="M120.643,1.946h3.9v3.9h-3.9ZM118.7,7.792h7.793V0H118.7Z" transform="translate(-3.22)" fill="#1a1818"/>
        <path id="Path_164-2" data-name="Path 164" d="M113.753,49.007h-3.9v-3.9h3.9Zm1.946-5.844h-7.793v7.789H115.7Z" transform="translate(-2.927 -1.171)" fill="#1a1818"/>
        <path id="Path_165-2" data-name="Path 165" d="M109.852,1.946h3.9v3.9h-3.9Zm-1.946,5.846H115.7V0h-7.793Z" transform="translate(-2.927)" fill="#1a1818"/>
        <path id="Path_166-2" data-name="Path 166" d="M101.791,12.737v14.4H70.3v10.5H55.9v-3.9H66.4v-6.6H55.9v-14.4H70.3v10.5h6.6v-10.5h3.9v10.5h6.6v-10.5Zm-10.5,10.5h6.6v-6.6h-6.6v6.6m-31.494,0h6.6v-6.6H59.8v6.6m43.938-12.444H85.446v10.5H82.74v-10.5H74.952v10.5H72.242v-10.5H53.955V29.078h10.5v2.709h-10.5v7.789H72.242v-10.5h31.495Zm-10.5,7.793h2.706v2.706H93.239Zm-31.494,0h2.709v2.706H61.745Z" transform="translate(-1.464 -0.293)" fill="#1a1818"/>
        <path id="Path_167-2" data-name="Path 167" d="M102.962,49.007h-3.9v-3.9h3.9Zm1.946-5.844H97.115v7.789h7.793Z" transform="translate(-2.635 -1.171)" fill="#1a1818"/>
        <path id="Path_168-2" data-name="Path 168" d="M99.061,1.946h3.9v3.9h-3.9ZM97.115,7.792h7.792V0H97.115Z" transform="translate(-2.635)" fill="#1a1818"/>
        <path id="Path_169-2" data-name="Path 169" d="M88.27,1.946h3.9v3.9h-3.9ZM86.324,7.792h7.793V0H86.324Z" transform="translate(-2.342)" fill="#1a1818"/>
        <path id="Path_170-2" data-name="Path 170" d="M156.809,18.583h2.709v2.706h-2.709Zm2.708-1.946h-4.654v6.6h6.6v-6.6Zm18.288,1.946h2.709v2.706h-2.709Zm2.708-1.946h-4.654v6.6h6.6v-6.6ZM230.3,18.583H233v2.706H230.3ZM233,16.637H228.35v6.6h6.6v-6.6Zm-13.2,6.6h4.652v-10.5h14.4v14.4H165.361v10.5H77.483v-3.9h83.981v-6.6h-10.5v-14.4h14.4v10.5h6.6v-10.5h14.4v10.5h27.594v-6.6H192.958v-3.9h24.894v10.5ZM222.5,10.79v10.5H219.8V10.79H191.012v7.793h20.994v2.706H188.3V10.79H170.015v10.5h-2.708V10.79H149.02V29.077h10.5v2.709H75.537v7.789h91.77v-10.5h73.487V10.79Z" transform="translate(-2.049 -0.293)" fill="#1a1818"/>
        <path id="Path_171-2" data-name="Path 171" d="M7.794,23.234H33.441v-10.5h3.9v14.4H1.948v-14.4h3.9v10.5ZM31.5,10.79v10.5H7.794V10.79H0V29.077H39.285V10.79Z" transform="translate(0 -0.293)" fill="#1a1818"/>
        <path id="Path_172-2" data-name="Path 172" d="M16.635,16.638h-3.9v-3.9h3.9Zm1.946-5.847H10.792v7.793h7.789Z" transform="translate(-0.293 -0.293)" fill="#1a1818"/>
        <path id="Path_173-2" data-name="Path 173" d="M27.426,16.638h-3.9v-3.9h3.9Zm1.946-5.847H21.583v7.793h7.789Z" transform="translate(-0.586 -0.293)" fill="#1a1818"/>
        <path id="Path_174-2" data-name="Path 174" d="M7.794,61.742H10.5v2.709H7.794ZM10.5,59.8H5.848v6.6h6.6V59.8Zm28.785,6.6H43.94V55.9h3.9V70.3H1.948V55.9h14.4V66.4h17.1V55.9h3.9V66.4Zm2.709-12.444v10.5H39.285v-10.5H31.5v10.5H18.288v-10.5H0V72.24H49.782V53.954Z" transform="translate(0 -1.464)" fill="#1a1818"/>
        <path id="Path_175-2" data-name="Path 175" d="M48.712,34.318v3.9h-10.5v6.6h10.5v3.9h-14.4v-14.4Zm1.946-1.946H32.371V50.659H50.658V42.87H40.16V40.161h10.5Z" transform="translate(-0.878 -0.878)" fill="#1a1818"/>
        <path id="Path_176-2" data-name="Path 176" d="M1.948,45.109h3.9v3.9h-3.9ZM0,50.953H7.794V43.164H0Z" transform="translate(0 -1.171)" fill="#1a1818"/>
        <path id="Path_177-2" data-name="Path 177" d="M16.635,49.007h-3.9v-3.9h3.9Zm1.946-5.844H10.792v7.789h7.789Z" transform="translate(-0.293 -1.171)" fill="#1a1818"/>
        <path id="Path_178-2" data-name="Path 178" d="M23.529,77.481h3.9v3.9h-3.9Zm-1.946,5.844h7.789V75.536H21.583Z" transform="translate(-0.586 -2.049)" fill="#1a1818"/>
        <path id="Path_179-2" data-name="Path 179" d="M34.32,77.481h3.9v3.9h-3.9Zm-1.946,5.844h7.789V75.536H32.374Z" transform="translate(-0.878 -2.049)" fill="#1a1818"/>
        <path id="Path_180-2" data-name="Path 180" d="M45.111,77.481H185.479v3.9H45.111Zm-1.946,5.844h144.26V75.536H43.165Z" transform="translate(-1.171 -2.049)" fill="#1a1818"/>
        <path id="Path_181-2" data-name="Path 181" d="M1.948,77.481h14.4v3.9H1.948ZM0,83.325H18.288V75.536H0Z" transform="translate(0 -2.049)" fill="#1a1818"/>
        <path id="Path_182-2" data-name="Path 182" d="M1.946,34.317h24.89V53.367l0,1.946v3.9h-3.9v-2.7l0-1.946V38.215H1.946ZM0,32.371V40.16H20.993V56.509h0v4.647h7.788V53.367h0v-21Z" transform="translate(0 -0.878)" fill="#1a1818"/>
        <path id="Path_183-2" data-name="Path 183" d="M1.948,1.946H37.339v3.9H1.948ZM0,7.792H39.285V0H0Z" transform="translate(0)" fill="#1a1818"/>
      </g>
    </g>
    <g id="Component_1_6" data-name="Component 1 – 6" transform="translate(1627.727 931.458)">
      <g id="Group_10-3" data-name="Group 10" opacity="0.1">
        <path id="Path_148-3" data-name="Path 148" d="M77.483,1.946h3.9v3.9h-3.9ZM75.537,7.792h7.789V0H75.537Z" transform="translate(-2.049)" fill="#1a1818"/>
        <path id="Path_149-3" data-name="Path 149" d="M45.111,1.946H70v3.9h-21V26.84h-3.9ZM43.165,0V28.784h7.788V7.792h21V0Z" transform="translate(-1.171)" fill="#1a1818"/>
        <path id="Path_150-3" data-name="Path 150" d="M178.494,59.5h-3.9v-14.4h3.9Zm1.946-16.341h-7.789V61.45h7.789Z" transform="translate(-4.684 -1.171)" fill="#1a1818"/>
        <path id="Path_151-3" data-name="Path 151" d="M167.41,55.9v3.9h-10.5v6.6h10.5v3.9h-14.4V55.9Zm1.946-1.946H151.069V72.241h18.287V64.452h-10.5V61.743h10.5Z" transform="translate(-4.098 -1.464)" fill="#1a1818"/>
        <path id="Path_152-3" data-name="Path 152" d="M167.118,45.109v3.9h-21V70h-3.9V45.109Zm1.946-1.946H140.278V71.948h7.789v-21h21Z" transform="translate(-3.806 -1.171)" fill="#1a1818"/>
        <path id="Path_153-3" data-name="Path 153" d="M199.491,38.216H174.6v-3.9h24.894Zm1.946-5.843H172.651v7.789h28.785Z" transform="translate(-4.684 -0.878)" fill="#1a1818"/>
        <path id="Path_154-3" data-name="Path 154" d="M217.464,45.109h24.9v3.9h-21v6.6h21V70H210.866V80.5h-3.9V55.607h3.9v10.5H238.46V59.5h-21Zm-1.946-1.946V61.449h21v2.709h-23.7v-10.5H205.02V82.446h7.792v-10.5h31.495V53.661h-21V50.952h21V43.163Z" transform="translate(-5.562 -1.171)" fill="#1a1818"/>
        <path id="Path_155-3" data-name="Path 155" d="M217.757,77.481h24.9v3.9h-24.9Zm-1.946,5.844H244.6V75.536H215.811Z" transform="translate(-5.855 -2.049)" fill="#1a1818"/>
        <path id="Path_156-3" data-name="Path 156" d="M217.757,34.318h24.9v3.9h-24.9Zm-1.946,5.844H244.6V32.373H215.811Z" transform="translate(-5.855 -0.878)" fill="#1a1818"/>
        <path id="Path_157-3" data-name="Path 157" d="M210.867,38.216h-3.9v-3.9h3.9Zm1.946-5.843H205.02v7.789h7.793Z" transform="translate(-5.562 -0.878)" fill="#1a1818"/>
        <path id="Path_158-3" data-name="Path 158" d="M209.988,45.109v3.9h-21v17.1h6.6v-10.5h3.9V70H174.6v-3.9h10.5v-21Zm1.946-1.946H183.148v21h-10.5v7.789h28.785V53.661h-7.789v10.5h-2.709V50.952h21Z" transform="translate(-4.684 -1.171)" fill="#1a1818"/>
        <path id="Path_159-3" data-name="Path 159" d="M196.178,77.481h3.9v3.9h-3.9Zm-1.945,5.844h7.789V75.536h-7.789Z" transform="translate(-5.269 -2.049)" fill="#1a1818"/>
        <path id="Path_160-3" data-name="Path 160" d="M145.244,12.737v3.9h-10.5v6.6h10.5v3.9H109.852v-14.4h14.4v10.5h6.6v-10.5Zm-31.491,10.5h6.6v-6.6h-6.6v6.6M147.19,10.791H128.9v10.5H126.2v-10.5h-18.29V29.078H147.19V21.289h-10.5V18.584h10.5ZM115.7,18.584H118.4v2.706H115.7Z" transform="translate(-2.927 -0.293)" fill="#1a1818"/>
        <path id="Path_161-3" data-name="Path 161" d="M131.433,1.946H240.312v3.9H131.433Zm-1.945,5.846h112.77V0H129.488Z" transform="translate(-3.513)" fill="#1a1818"/>
        <path id="Path_162-3" data-name="Path 162" d="M133.285,45.109V70H55.9V45.109H91.293v3.9H59.8v17.1h6.6v-10.5h3.9v10.5h6.6v-10.5h24.894v10.5h6.6v-10.5h14.4v10.5h6.6v-17.1h-10.5v-3.9Zm-21,21h6.6V59.5h-6.6v6.6m-31.495,0h17.1V59.5h-17.1v6.6m54.436-22.942h-18.29v7.79h10.5V64.16h-2.707v-10.5h-18.29v10.5h-2.706v-10.5H74.952v10.5H72.242v-10.5H64.453v10.5H61.745V50.953H93.239v-7.79H53.955V71.948h81.276Zm-21,18.287h2.706V64.16h-2.706Zm-31.495,0h13.2V64.16H82.74Z" transform="translate(-1.464 -1.171)" fill="#1a1818"/>
        <path id="Path_163-3" data-name="Path 163" d="M120.643,1.946h3.9v3.9h-3.9ZM118.7,7.792h7.793V0H118.7Z" transform="translate(-3.22)" fill="#1a1818"/>
        <path id="Path_164-3" data-name="Path 164" d="M113.753,49.007h-3.9v-3.9h3.9Zm1.946-5.844h-7.793v7.789H115.7Z" transform="translate(-2.927 -1.171)" fill="#1a1818"/>
        <path id="Path_165-3" data-name="Path 165" d="M109.852,1.946h3.9v3.9h-3.9Zm-1.946,5.846H115.7V0h-7.793Z" transform="translate(-2.927)" fill="#1a1818"/>
        <path id="Path_166-3" data-name="Path 166" d="M101.791,12.737v14.4H70.3v10.5H55.9v-3.9H66.4v-6.6H55.9v-14.4H70.3v10.5h6.6v-10.5h3.9v10.5h6.6v-10.5Zm-10.5,10.5h6.6v-6.6h-6.6v6.6m-31.494,0h6.6v-6.6H59.8v6.6m43.938-12.444H85.446v10.5H82.74v-10.5H74.952v10.5H72.242v-10.5H53.955V29.078h10.5v2.709h-10.5v7.789H72.242v-10.5h31.495Zm-10.5,7.793h2.706v2.706H93.239Zm-31.494,0h2.709v2.706H61.745Z" transform="translate(-1.464 -0.293)" fill="#1a1818"/>
        <path id="Path_167-3" data-name="Path 167" d="M102.962,49.007h-3.9v-3.9h3.9Zm1.946-5.844H97.115v7.789h7.793Z" transform="translate(-2.635 -1.171)" fill="#1a1818"/>
        <path id="Path_168-3" data-name="Path 168" d="M99.061,1.946h3.9v3.9h-3.9ZM97.115,7.792h7.792V0H97.115Z" transform="translate(-2.635)" fill="#1a1818"/>
        <path id="Path_169-3" data-name="Path 169" d="M88.27,1.946h3.9v3.9h-3.9ZM86.324,7.792h7.793V0H86.324Z" transform="translate(-2.342)" fill="#1a1818"/>
        <path id="Path_170-3" data-name="Path 170" d="M156.809,18.583h2.709v2.706h-2.709Zm2.708-1.946h-4.654v6.6h6.6v-6.6Zm18.288,1.946h2.709v2.706h-2.709Zm2.708-1.946h-4.654v6.6h6.6v-6.6ZM230.3,18.583H233v2.706H230.3ZM233,16.637H228.35v6.6h6.6v-6.6Zm-13.2,6.6h4.652v-10.5h14.4v14.4H165.361v10.5H77.483v-3.9h83.981v-6.6h-10.5v-14.4h14.4v10.5h6.6v-10.5h14.4v10.5h27.594v-6.6H192.958v-3.9h24.894v10.5ZM222.5,10.79v10.5H219.8V10.79H191.012v7.793h20.994v2.706H188.3V10.79H170.015v10.5h-2.708V10.79H149.02V29.077h10.5v2.709H75.537v7.789h91.77v-10.5h73.487V10.79Z" transform="translate(-2.049 -0.293)" fill="#1a1818"/>
        <path id="Path_171-3" data-name="Path 171" d="M7.794,23.234H33.441v-10.5h3.9v14.4H1.948v-14.4h3.9v10.5ZM31.5,10.79v10.5H7.794V10.79H0V29.077H39.285V10.79Z" transform="translate(0 -0.293)" fill="#1a1818"/>
        <path id="Path_172-3" data-name="Path 172" d="M16.635,16.638h-3.9v-3.9h3.9Zm1.946-5.847H10.792v7.793h7.789Z" transform="translate(-0.293 -0.293)" fill="#1a1818"/>
        <path id="Path_173-3" data-name="Path 173" d="M27.426,16.638h-3.9v-3.9h3.9Zm1.946-5.847H21.583v7.793h7.789Z" transform="translate(-0.586 -0.293)" fill="#1a1818"/>
        <path id="Path_174-3" data-name="Path 174" d="M7.794,61.742H10.5v2.709H7.794ZM10.5,59.8H5.848v6.6h6.6V59.8Zm28.785,6.6H43.94V55.9h3.9V70.3H1.948V55.9h14.4V66.4h17.1V55.9h3.9V66.4Zm2.709-12.444v10.5H39.285v-10.5H31.5v10.5H18.288v-10.5H0V72.24H49.782V53.954Z" transform="translate(0 -1.464)" fill="#1a1818"/>
        <path id="Path_175-3" data-name="Path 175" d="M48.712,34.318v3.9h-10.5v6.6h10.5v3.9h-14.4v-14.4Zm1.946-1.946H32.371V50.659H50.658V42.87H40.16V40.161h10.5Z" transform="translate(-0.878 -0.878)" fill="#1a1818"/>
        <path id="Path_176-3" data-name="Path 176" d="M1.948,45.109h3.9v3.9h-3.9ZM0,50.953H7.794V43.164H0Z" transform="translate(0 -1.171)" fill="#1a1818"/>
        <path id="Path_177-3" data-name="Path 177" d="M16.635,49.007h-3.9v-3.9h3.9Zm1.946-5.844H10.792v7.789h7.789Z" transform="translate(-0.293 -1.171)" fill="#1a1818"/>
        <path id="Path_178-3" data-name="Path 178" d="M23.529,77.481h3.9v3.9h-3.9Zm-1.946,5.844h7.789V75.536H21.583Z" transform="translate(-0.586 -2.049)" fill="#1a1818"/>
        <path id="Path_179-3" data-name="Path 179" d="M34.32,77.481h3.9v3.9h-3.9Zm-1.946,5.844h7.789V75.536H32.374Z" transform="translate(-0.878 -2.049)" fill="#1a1818"/>
        <path id="Path_180-3" data-name="Path 180" d="M45.111,77.481H185.479v3.9H45.111Zm-1.946,5.844h144.26V75.536H43.165Z" transform="translate(-1.171 -2.049)" fill="#1a1818"/>
        <path id="Path_181-3" data-name="Path 181" d="M1.948,77.481h14.4v3.9H1.948ZM0,83.325H18.288V75.536H0Z" transform="translate(0 -2.049)" fill="#1a1818"/>
        <path id="Path_182-3" data-name="Path 182" d="M1.946,34.317h24.89V53.367l0,1.946v3.9h-3.9v-2.7l0-1.946V38.215H1.946ZM0,32.371V40.16H20.993V56.509h0v4.647h7.788V53.367h0v-21Z" transform="translate(0 -0.878)" fill="#1a1818"/>
        <path id="Path_183-3" data-name="Path 183" d="M1.948,1.946H37.339v3.9H1.948ZM0,7.792H39.285V0H0Z" transform="translate(0)" fill="#1a1818"/>
      </g>
    </g>
    <g id="Component_1_2" data-name="Component 1 – 2" transform="translate(667.26 931.458)">
      <g id="Group_10-4" data-name="Group 10" opacity="0.1">
        <path id="Path_148-4" data-name="Path 148" d="M77.483,1.946h3.9v3.9h-3.9ZM75.537,7.792h7.789V0H75.537Z" transform="translate(-2.049)" fill="#1a1818"/>
        <path id="Path_149-4" data-name="Path 149" d="M45.111,1.946H70v3.9h-21V26.84h-3.9ZM43.165,0V28.784h7.788V7.792h21V0Z" transform="translate(-1.171)" fill="#1a1818"/>
        <path id="Path_150-4" data-name="Path 150" d="M178.494,59.5h-3.9v-14.4h3.9Zm1.946-16.341h-7.789V61.45h7.789Z" transform="translate(-4.684 -1.171)" fill="#1a1818"/>
        <path id="Path_151-4" data-name="Path 151" d="M167.41,55.9v3.9h-10.5v6.6h10.5v3.9h-14.4V55.9Zm1.946-1.946H151.069V72.241h18.287V64.452h-10.5V61.743h10.5Z" transform="translate(-4.098 -1.464)" fill="#1a1818"/>
        <path id="Path_152-4" data-name="Path 152" d="M167.118,45.109v3.9h-21V70h-3.9V45.109Zm1.946-1.946H140.278V71.948h7.789v-21h21Z" transform="translate(-3.806 -1.171)" fill="#1a1818"/>
        <path id="Path_153-4" data-name="Path 153" d="M199.491,38.216H174.6v-3.9h24.894Zm1.946-5.843H172.651v7.789h28.785Z" transform="translate(-4.684 -0.878)" fill="#1a1818"/>
        <path id="Path_154-4" data-name="Path 154" d="M217.464,45.109h24.9v3.9h-21v6.6h21V70H210.866V80.5h-3.9V55.607h3.9v10.5H238.46V59.5h-21Zm-1.946-1.946V61.449h21v2.709h-23.7v-10.5H205.02V82.446h7.792v-10.5h31.495V53.661h-21V50.952h21V43.163Z" transform="translate(-5.562 -1.171)" fill="#1a1818"/>
        <path id="Path_155-4" data-name="Path 155" d="M217.757,77.481h24.9v3.9h-24.9Zm-1.946,5.844H244.6V75.536H215.811Z" transform="translate(-5.855 -2.049)" fill="#1a1818"/>
        <path id="Path_156-4" data-name="Path 156" d="M217.757,34.318h24.9v3.9h-24.9Zm-1.946,5.844H244.6V32.373H215.811Z" transform="translate(-5.855 -0.878)" fill="#1a1818"/>
        <path id="Path_157-4" data-name="Path 157" d="M210.867,38.216h-3.9v-3.9h3.9Zm1.946-5.843H205.02v7.789h7.793Z" transform="translate(-5.562 -0.878)" fill="#1a1818"/>
        <path id="Path_158-4" data-name="Path 158" d="M209.988,45.109v3.9h-21v17.1h6.6v-10.5h3.9V70H174.6v-3.9h10.5v-21Zm1.946-1.946H183.148v21h-10.5v7.789h28.785V53.661h-7.789v10.5h-2.709V50.952h21Z" transform="translate(-4.684 -1.171)" fill="#1a1818"/>
        <path id="Path_159-4" data-name="Path 159" d="M196.178,77.481h3.9v3.9h-3.9Zm-1.945,5.844h7.789V75.536h-7.789Z" transform="translate(-5.269 -2.049)" fill="#1a1818"/>
        <path id="Path_160-4" data-name="Path 160" d="M145.244,12.737v3.9h-10.5v6.6h10.5v3.9H109.852v-14.4h14.4v10.5h6.6v-10.5Zm-31.491,10.5h6.6v-6.6h-6.6v6.6M147.19,10.791H128.9v10.5H126.2v-10.5h-18.29V29.078H147.19V21.289h-10.5V18.584h10.5ZM115.7,18.584H118.4v2.706H115.7Z" transform="translate(-2.927 -0.293)" fill="#1a1818"/>
        <path id="Path_161-4" data-name="Path 161" d="M131.433,1.946H240.312v3.9H131.433Zm-1.945,5.846h112.77V0H129.488Z" transform="translate(-3.513)" fill="#1a1818"/>
        <path id="Path_162-4" data-name="Path 162" d="M133.285,45.109V70H55.9V45.109H91.293v3.9H59.8v17.1h6.6v-10.5h3.9v10.5h6.6v-10.5h24.894v10.5h6.6v-10.5h14.4v10.5h6.6v-17.1h-10.5v-3.9Zm-21,21h6.6V59.5h-6.6v6.6m-31.495,0h17.1V59.5h-17.1v6.6m54.436-22.942h-18.29v7.79h10.5V64.16h-2.707v-10.5h-18.29v10.5h-2.706v-10.5H74.952v10.5H72.242v-10.5H64.453v10.5H61.745V50.953H93.239v-7.79H53.955V71.948h81.276Zm-21,18.287h2.706V64.16h-2.706Zm-31.495,0h13.2V64.16H82.74Z" transform="translate(-1.464 -1.171)" fill="#1a1818"/>
        <path id="Path_163-4" data-name="Path 163" d="M120.643,1.946h3.9v3.9h-3.9ZM118.7,7.792h7.793V0H118.7Z" transform="translate(-3.22)" fill="#1a1818"/>
        <path id="Path_164-4" data-name="Path 164" d="M113.753,49.007h-3.9v-3.9h3.9Zm1.946-5.844h-7.793v7.789H115.7Z" transform="translate(-2.927 -1.171)" fill="#1a1818"/>
        <path id="Path_165-4" data-name="Path 165" d="M109.852,1.946h3.9v3.9h-3.9Zm-1.946,5.846H115.7V0h-7.793Z" transform="translate(-2.927)" fill="#1a1818"/>
        <path id="Path_166-4" data-name="Path 166" d="M101.791,12.737v14.4H70.3v10.5H55.9v-3.9H66.4v-6.6H55.9v-14.4H70.3v10.5h6.6v-10.5h3.9v10.5h6.6v-10.5Zm-10.5,10.5h6.6v-6.6h-6.6v6.6m-31.494,0h6.6v-6.6H59.8v6.6m43.938-12.444H85.446v10.5H82.74v-10.5H74.952v10.5H72.242v-10.5H53.955V29.078h10.5v2.709h-10.5v7.789H72.242v-10.5h31.495Zm-10.5,7.793h2.706v2.706H93.239Zm-31.494,0h2.709v2.706H61.745Z" transform="translate(-1.464 -0.293)" fill="#1a1818"/>
        <path id="Path_167-4" data-name="Path 167" d="M102.962,49.007h-3.9v-3.9h3.9Zm1.946-5.844H97.115v7.789h7.793Z" transform="translate(-2.635 -1.171)" fill="#1a1818"/>
        <path id="Path_168-4" data-name="Path 168" d="M99.061,1.946h3.9v3.9h-3.9ZM97.115,7.792h7.792V0H97.115Z" transform="translate(-2.635)" fill="#1a1818"/>
        <path id="Path_169-4" data-name="Path 169" d="M88.27,1.946h3.9v3.9h-3.9ZM86.324,7.792h7.793V0H86.324Z" transform="translate(-2.342)" fill="#1a1818"/>
        <path id="Path_170-4" data-name="Path 170" d="M156.809,18.583h2.709v2.706h-2.709Zm2.708-1.946h-4.654v6.6h6.6v-6.6Zm18.288,1.946h2.709v2.706h-2.709Zm2.708-1.946h-4.654v6.6h6.6v-6.6ZM230.3,18.583H233v2.706H230.3ZM233,16.637H228.35v6.6h6.6v-6.6Zm-13.2,6.6h4.652v-10.5h14.4v14.4H165.361v10.5H77.483v-3.9h83.981v-6.6h-10.5v-14.4h14.4v10.5h6.6v-10.5h14.4v10.5h27.594v-6.6H192.958v-3.9h24.894v10.5ZM222.5,10.79v10.5H219.8V10.79H191.012v7.793h20.994v2.706H188.3V10.79H170.015v10.5h-2.708V10.79H149.02V29.077h10.5v2.709H75.537v7.789h91.77v-10.5h73.487V10.79Z" transform="translate(-2.049 -0.293)" fill="#1a1818"/>
        <path id="Path_171-4" data-name="Path 171" d="M7.794,23.234H33.441v-10.5h3.9v14.4H1.948v-14.4h3.9v10.5ZM31.5,10.79v10.5H7.794V10.79H0V29.077H39.285V10.79Z" transform="translate(0 -0.293)" fill="#1a1818"/>
        <path id="Path_172-4" data-name="Path 172" d="M16.635,16.638h-3.9v-3.9h3.9Zm1.946-5.847H10.792v7.793h7.789Z" transform="translate(-0.293 -0.293)" fill="#1a1818"/>
        <path id="Path_173-4" data-name="Path 173" d="M27.426,16.638h-3.9v-3.9h3.9Zm1.946-5.847H21.583v7.793h7.789Z" transform="translate(-0.586 -0.293)" fill="#1a1818"/>
        <path id="Path_174-4" data-name="Path 174" d="M7.794,61.742H10.5v2.709H7.794ZM10.5,59.8H5.848v6.6h6.6V59.8Zm28.785,6.6H43.94V55.9h3.9V70.3H1.948V55.9h14.4V66.4h17.1V55.9h3.9V66.4Zm2.709-12.444v10.5H39.285v-10.5H31.5v10.5H18.288v-10.5H0V72.24H49.782V53.954Z" transform="translate(0 -1.464)" fill="#1a1818"/>
        <path id="Path_175-4" data-name="Path 175" d="M48.712,34.318v3.9h-10.5v6.6h10.5v3.9h-14.4v-14.4Zm1.946-1.946H32.371V50.659H50.658V42.87H40.16V40.161h10.5Z" transform="translate(-0.878 -0.878)" fill="#1a1818"/>
        <path id="Path_176-4" data-name="Path 176" d="M1.948,45.109h3.9v3.9h-3.9ZM0,50.953H7.794V43.164H0Z" transform="translate(0 -1.171)" fill="#1a1818"/>
        <path id="Path_177-4" data-name="Path 177" d="M16.635,49.007h-3.9v-3.9h3.9Zm1.946-5.844H10.792v7.789h7.789Z" transform="translate(-0.293 -1.171)" fill="#1a1818"/>
        <path id="Path_178-4" data-name="Path 178" d="M23.529,77.481h3.9v3.9h-3.9Zm-1.946,5.844h7.789V75.536H21.583Z" transform="translate(-0.586 -2.049)" fill="#1a1818"/>
        <path id="Path_179-4" data-name="Path 179" d="M34.32,77.481h3.9v3.9h-3.9Zm-1.946,5.844h7.789V75.536H32.374Z" transform="translate(-0.878 -2.049)" fill="#1a1818"/>
        <path id="Path_180-4" data-name="Path 180" d="M45.111,77.481H185.479v3.9H45.111Zm-1.946,5.844h144.26V75.536H43.165Z" transform="translate(-1.171 -2.049)" fill="#1a1818"/>
        <path id="Path_181-4" data-name="Path 181" d="M1.948,77.481h14.4v3.9H1.948ZM0,83.325H18.288V75.536H0Z" transform="translate(0 -2.049)" fill="#1a1818"/>
        <path id="Path_182-4" data-name="Path 182" d="M1.946,34.317h24.89V53.367l0,1.946v3.9h-3.9v-2.7l0-1.946V38.215H1.946ZM0,32.371V40.16H20.993V56.509h0v4.647h7.788V53.367h0v-21Z" transform="translate(0 -0.878)" fill="#1a1818"/>
        <path id="Path_183-4" data-name="Path 183" d="M1.948,1.946H37.339v3.9H1.948ZM0,7.792H39.285V0H0Z" transform="translate(0)" fill="#1a1818"/>
      </g>
    </g>
    <g id="Component_1_8" data-name="Component 1 – 8" transform="translate(-53.088 931.458)">
      <g id="Group_10-5" data-name="Group 10" opacity="0.1">
        <path id="Path_148-5" data-name="Path 148" d="M77.483,1.946h3.9v3.9h-3.9ZM75.537,7.792h7.789V0H75.537Z" transform="translate(-2.049)" fill="#1a1818"/>
        <path id="Path_149-5" data-name="Path 149" d="M45.111,1.946H70v3.9h-21V26.84h-3.9ZM43.165,0V28.784h7.788V7.792h21V0Z" transform="translate(-1.171)" fill="#1a1818"/>
        <path id="Path_150-5" data-name="Path 150" d="M178.494,59.5h-3.9v-14.4h3.9Zm1.946-16.341h-7.789V61.45h7.789Z" transform="translate(-4.684 -1.171)" fill="#1a1818"/>
        <path id="Path_151-5" data-name="Path 151" d="M167.41,55.9v3.9h-10.5v6.6h10.5v3.9h-14.4V55.9Zm1.946-1.946H151.069V72.241h18.287V64.452h-10.5V61.743h10.5Z" transform="translate(-4.098 -1.464)" fill="#1a1818"/>
        <path id="Path_152-5" data-name="Path 152" d="M167.118,45.109v3.9h-21V70h-3.9V45.109Zm1.946-1.946H140.278V71.948h7.789v-21h21Z" transform="translate(-3.806 -1.171)" fill="#1a1818"/>
        <path id="Path_153-5" data-name="Path 153" d="M199.491,38.216H174.6v-3.9h24.894Zm1.946-5.843H172.651v7.789h28.785Z" transform="translate(-4.684 -0.878)" fill="#1a1818"/>
        <path id="Path_154-5" data-name="Path 154" d="M217.464,45.109h24.9v3.9h-21v6.6h21V70H210.866V80.5h-3.9V55.607h3.9v10.5H238.46V59.5h-21Zm-1.946-1.946V61.449h21v2.709h-23.7v-10.5H205.02V82.446h7.792v-10.5h31.495V53.661h-21V50.952h21V43.163Z" transform="translate(-5.562 -1.171)" fill="#1a1818"/>
        <path id="Path_155-5" data-name="Path 155" d="M217.757,77.481h24.9v3.9h-24.9Zm-1.946,5.844H244.6V75.536H215.811Z" transform="translate(-5.855 -2.049)" fill="#1a1818"/>
        <path id="Path_156-5" data-name="Path 156" d="M217.757,34.318h24.9v3.9h-24.9Zm-1.946,5.844H244.6V32.373H215.811Z" transform="translate(-5.855 -0.878)" fill="#1a1818"/>
        <path id="Path_157-5" data-name="Path 157" d="M210.867,38.216h-3.9v-3.9h3.9Zm1.946-5.843H205.02v7.789h7.793Z" transform="translate(-5.562 -0.878)" fill="#1a1818"/>
        <path id="Path_158-5" data-name="Path 158" d="M209.988,45.109v3.9h-21v17.1h6.6v-10.5h3.9V70H174.6v-3.9h10.5v-21Zm1.946-1.946H183.148v21h-10.5v7.789h28.785V53.661h-7.789v10.5h-2.709V50.952h21Z" transform="translate(-4.684 -1.171)" fill="#1a1818"/>
        <path id="Path_159-5" data-name="Path 159" d="M196.178,77.481h3.9v3.9h-3.9Zm-1.945,5.844h7.789V75.536h-7.789Z" transform="translate(-5.269 -2.049)" fill="#1a1818"/>
        <path id="Path_160-5" data-name="Path 160" d="M145.244,12.737v3.9h-10.5v6.6h10.5v3.9H109.852v-14.4h14.4v10.5h6.6v-10.5Zm-31.491,10.5h6.6v-6.6h-6.6v6.6M147.19,10.791H128.9v10.5H126.2v-10.5h-18.29V29.078H147.19V21.289h-10.5V18.584h10.5ZM115.7,18.584H118.4v2.706H115.7Z" transform="translate(-2.927 -0.293)" fill="#1a1818"/>
        <path id="Path_161-5" data-name="Path 161" d="M131.433,1.946H240.312v3.9H131.433Zm-1.945,5.846h112.77V0H129.488Z" transform="translate(-3.513)" fill="#1a1818"/>
        <path id="Path_162-5" data-name="Path 162" d="M133.285,45.109V70H55.9V45.109H91.293v3.9H59.8v17.1h6.6v-10.5h3.9v10.5h6.6v-10.5h24.894v10.5h6.6v-10.5h14.4v10.5h6.6v-17.1h-10.5v-3.9Zm-21,21h6.6V59.5h-6.6v6.6m-31.495,0h17.1V59.5h-17.1v6.6m54.436-22.942h-18.29v7.79h10.5V64.16h-2.707v-10.5h-18.29v10.5h-2.706v-10.5H74.952v10.5H72.242v-10.5H64.453v10.5H61.745V50.953H93.239v-7.79H53.955V71.948h81.276Zm-21,18.287h2.706V64.16h-2.706Zm-31.495,0h13.2V64.16H82.74Z" transform="translate(-1.464 -1.171)" fill="#1a1818"/>
        <path id="Path_163-5" data-name="Path 163" d="M120.643,1.946h3.9v3.9h-3.9ZM118.7,7.792h7.793V0H118.7Z" transform="translate(-3.22)" fill="#1a1818"/>
        <path id="Path_164-5" data-name="Path 164" d="M113.753,49.007h-3.9v-3.9h3.9Zm1.946-5.844h-7.793v7.789H115.7Z" transform="translate(-2.927 -1.171)" fill="#1a1818"/>
        <path id="Path_165-5" data-name="Path 165" d="M109.852,1.946h3.9v3.9h-3.9Zm-1.946,5.846H115.7V0h-7.793Z" transform="translate(-2.927)" fill="#1a1818"/>
        <path id="Path_166-5" data-name="Path 166" d="M101.791,12.737v14.4H70.3v10.5H55.9v-3.9H66.4v-6.6H55.9v-14.4H70.3v10.5h6.6v-10.5h3.9v10.5h6.6v-10.5Zm-10.5,10.5h6.6v-6.6h-6.6v6.6m-31.494,0h6.6v-6.6H59.8v6.6m43.938-12.444H85.446v10.5H82.74v-10.5H74.952v10.5H72.242v-10.5H53.955V29.078h10.5v2.709h-10.5v7.789H72.242v-10.5h31.495Zm-10.5,7.793h2.706v2.706H93.239Zm-31.494,0h2.709v2.706H61.745Z" transform="translate(-1.464 -0.293)" fill="#1a1818"/>
        <path id="Path_167-5" data-name="Path 167" d="M102.962,49.007h-3.9v-3.9h3.9Zm1.946-5.844H97.115v7.789h7.793Z" transform="translate(-2.635 -1.171)" fill="#1a1818"/>
        <path id="Path_168-5" data-name="Path 168" d="M99.061,1.946h3.9v3.9h-3.9ZM97.115,7.792h7.792V0H97.115Z" transform="translate(-2.635)" fill="#1a1818"/>
        <path id="Path_169-5" data-name="Path 169" d="M88.27,1.946h3.9v3.9h-3.9ZM86.324,7.792h7.793V0H86.324Z" transform="translate(-2.342)" fill="#1a1818"/>
        <path id="Path_170-5" data-name="Path 170" d="M156.809,18.583h2.709v2.706h-2.709Zm2.708-1.946h-4.654v6.6h6.6v-6.6Zm18.288,1.946h2.709v2.706h-2.709Zm2.708-1.946h-4.654v6.6h6.6v-6.6ZM230.3,18.583H233v2.706H230.3ZM233,16.637H228.35v6.6h6.6v-6.6Zm-13.2,6.6h4.652v-10.5h14.4v14.4H165.361v10.5H77.483v-3.9h83.981v-6.6h-10.5v-14.4h14.4v10.5h6.6v-10.5h14.4v10.5h27.594v-6.6H192.958v-3.9h24.894v10.5ZM222.5,10.79v10.5H219.8V10.79H191.012v7.793h20.994v2.706H188.3V10.79H170.015v10.5h-2.708V10.79H149.02V29.077h10.5v2.709H75.537v7.789h91.77v-10.5h73.487V10.79Z" transform="translate(-2.049 -0.293)" fill="#1a1818"/>
        <path id="Path_171-5" data-name="Path 171" d="M7.794,23.234H33.441v-10.5h3.9v14.4H1.948v-14.4h3.9v10.5ZM31.5,10.79v10.5H7.794V10.79H0V29.077H39.285V10.79Z" transform="translate(0 -0.293)" fill="#1a1818"/>
        <path id="Path_172-5" data-name="Path 172" d="M16.635,16.638h-3.9v-3.9h3.9Zm1.946-5.847H10.792v7.793h7.789Z" transform="translate(-0.293 -0.293)" fill="#1a1818"/>
        <path id="Path_173-5" data-name="Path 173" d="M27.426,16.638h-3.9v-3.9h3.9Zm1.946-5.847H21.583v7.793h7.789Z" transform="translate(-0.586 -0.293)" fill="#1a1818"/>
        <path id="Path_174-5" data-name="Path 174" d="M7.794,61.742H10.5v2.709H7.794ZM10.5,59.8H5.848v6.6h6.6V59.8Zm28.785,6.6H43.94V55.9h3.9V70.3H1.948V55.9h14.4V66.4h17.1V55.9h3.9V66.4Zm2.709-12.444v10.5H39.285v-10.5H31.5v10.5H18.288v-10.5H0V72.24H49.782V53.954Z" transform="translate(0 -1.464)" fill="#1a1818"/>
        <path id="Path_175-5" data-name="Path 175" d="M48.712,34.318v3.9h-10.5v6.6h10.5v3.9h-14.4v-14.4Zm1.946-1.946H32.371V50.659H50.658V42.87H40.16V40.161h10.5Z" transform="translate(-0.878 -0.878)" fill="#1a1818"/>
        <path id="Path_176-5" data-name="Path 176" d="M1.948,45.109h3.9v3.9h-3.9ZM0,50.953H7.794V43.164H0Z" transform="translate(0 -1.171)" fill="#1a1818"/>
        <path id="Path_177-5" data-name="Path 177" d="M16.635,49.007h-3.9v-3.9h3.9Zm1.946-5.844H10.792v7.789h7.789Z" transform="translate(-0.293 -1.171)" fill="#1a1818"/>
        <path id="Path_178-5" data-name="Path 178" d="M23.529,77.481h3.9v3.9h-3.9Zm-1.946,5.844h7.789V75.536H21.583Z" transform="translate(-0.586 -2.049)" fill="#1a1818"/>
        <path id="Path_179-5" data-name="Path 179" d="M34.32,77.481h3.9v3.9h-3.9Zm-1.946,5.844h7.789V75.536H32.374Z" transform="translate(-0.878 -2.049)" fill="#1a1818"/>
        <path id="Path_180-5" data-name="Path 180" d="M45.111,77.481H185.479v3.9H45.111Zm-1.946,5.844h144.26V75.536H43.165Z" transform="translate(-1.171 -2.049)" fill="#1a1818"/>
        <path id="Path_181-5" data-name="Path 181" d="M1.948,77.481h14.4v3.9H1.948ZM0,83.325H18.288V75.536H0Z" transform="translate(0 -2.049)" fill="#1a1818"/>
        <path id="Path_182-5" data-name="Path 182" d="M1.946,34.317h24.89V53.367l0,1.946v3.9h-3.9v-2.7l0-1.946V38.215H1.946ZM0,32.371V40.16H20.993V56.509h0v4.647h7.788V53.367h0v-21Z" transform="translate(0 -0.878)" fill="#1a1818"/>
        <path id="Path_183-5" data-name="Path 183" d="M1.948,1.946H37.339v3.9H1.948ZM0,7.792H39.285V0H0Z" transform="translate(0)" fill="#1a1818"/>
      </g>
    </g>
    <g id="Component_1_5" data-name="Component 1 – 5" transform="translate(1387.61 931.458)">
      <g id="Group_10-6" data-name="Group 10" opacity="0.1">
        <path id="Path_148-6" data-name="Path 148" d="M77.483,1.946h3.9v3.9h-3.9ZM75.537,7.792h7.789V0H75.537Z" transform="translate(-2.049)" fill="#1a1818"/>
        <path id="Path_149-6" data-name="Path 149" d="M45.111,1.946H70v3.9h-21V26.84h-3.9ZM43.165,0V28.784h7.788V7.792h21V0Z" transform="translate(-1.171)" fill="#1a1818"/>
        <path id="Path_150-6" data-name="Path 150" d="M178.494,59.5h-3.9v-14.4h3.9Zm1.946-16.341h-7.789V61.45h7.789Z" transform="translate(-4.684 -1.171)" fill="#1a1818"/>
        <path id="Path_151-6" data-name="Path 151" d="M167.41,55.9v3.9h-10.5v6.6h10.5v3.9h-14.4V55.9Zm1.946-1.946H151.069V72.241h18.287V64.452h-10.5V61.743h10.5Z" transform="translate(-4.098 -1.464)" fill="#1a1818"/>
        <path id="Path_152-6" data-name="Path 152" d="M167.118,45.109v3.9h-21V70h-3.9V45.109Zm1.946-1.946H140.278V71.948h7.789v-21h21Z" transform="translate(-3.806 -1.171)" fill="#1a1818"/>
        <path id="Path_153-6" data-name="Path 153" d="M199.491,38.216H174.6v-3.9h24.894Zm1.946-5.843H172.651v7.789h28.785Z" transform="translate(-4.684 -0.878)" fill="#1a1818"/>
        <path id="Path_154-6" data-name="Path 154" d="M217.464,45.109h24.9v3.9h-21v6.6h21V70H210.866V80.5h-3.9V55.607h3.9v10.5H238.46V59.5h-21Zm-1.946-1.946V61.449h21v2.709h-23.7v-10.5H205.02V82.446h7.792v-10.5h31.495V53.661h-21V50.952h21V43.163Z" transform="translate(-5.562 -1.171)" fill="#1a1818"/>
        <path id="Path_155-6" data-name="Path 155" d="M217.757,77.481h24.9v3.9h-24.9Zm-1.946,5.844H244.6V75.536H215.811Z" transform="translate(-5.855 -2.049)" fill="#1a1818"/>
        <path id="Path_156-6" data-name="Path 156" d="M217.757,34.318h24.9v3.9h-24.9Zm-1.946,5.844H244.6V32.373H215.811Z" transform="translate(-5.855 -0.878)" fill="#1a1818"/>
        <path id="Path_157-6" data-name="Path 157" d="M210.867,38.216h-3.9v-3.9h3.9Zm1.946-5.843H205.02v7.789h7.793Z" transform="translate(-5.562 -0.878)" fill="#1a1818"/>
        <path id="Path_158-6" data-name="Path 158" d="M209.988,45.109v3.9h-21v17.1h6.6v-10.5h3.9V70H174.6v-3.9h10.5v-21Zm1.946-1.946H183.148v21h-10.5v7.789h28.785V53.661h-7.789v10.5h-2.709V50.952h21Z" transform="translate(-4.684 -1.171)" fill="#1a1818"/>
        <path id="Path_159-6" data-name="Path 159" d="M196.178,77.481h3.9v3.9h-3.9Zm-1.945,5.844h7.789V75.536h-7.789Z" transform="translate(-5.269 -2.049)" fill="#1a1818"/>
        <path id="Path_160-6" data-name="Path 160" d="M145.244,12.737v3.9h-10.5v6.6h10.5v3.9H109.852v-14.4h14.4v10.5h6.6v-10.5Zm-31.491,10.5h6.6v-6.6h-6.6v6.6M147.19,10.791H128.9v10.5H126.2v-10.5h-18.29V29.078H147.19V21.289h-10.5V18.584h10.5ZM115.7,18.584H118.4v2.706H115.7Z" transform="translate(-2.927 -0.293)" fill="#1a1818"/>
        <path id="Path_161-6" data-name="Path 161" d="M131.433,1.946H240.312v3.9H131.433Zm-1.945,5.846h112.77V0H129.488Z" transform="translate(-3.513)" fill="#1a1818"/>
        <path id="Path_162-6" data-name="Path 162" d="M133.285,45.109V70H55.9V45.109H91.293v3.9H59.8v17.1h6.6v-10.5h3.9v10.5h6.6v-10.5h24.894v10.5h6.6v-10.5h14.4v10.5h6.6v-17.1h-10.5v-3.9Zm-21,21h6.6V59.5h-6.6v6.6m-31.495,0h17.1V59.5h-17.1v6.6m54.436-22.942h-18.29v7.79h10.5V64.16h-2.707v-10.5h-18.29v10.5h-2.706v-10.5H74.952v10.5H72.242v-10.5H64.453v10.5H61.745V50.953H93.239v-7.79H53.955V71.948h81.276Zm-21,18.287h2.706V64.16h-2.706Zm-31.495,0h13.2V64.16H82.74Z" transform="translate(-1.464 -1.171)" fill="#1a1818"/>
        <path id="Path_163-6" data-name="Path 163" d="M120.643,1.946h3.9v3.9h-3.9ZM118.7,7.792h7.793V0H118.7Z" transform="translate(-3.22)" fill="#1a1818"/>
        <path id="Path_164-6" data-name="Path 164" d="M113.753,49.007h-3.9v-3.9h3.9Zm1.946-5.844h-7.793v7.789H115.7Z" transform="translate(-2.927 -1.171)" fill="#1a1818"/>
        <path id="Path_165-6" data-name="Path 165" d="M109.852,1.946h3.9v3.9h-3.9Zm-1.946,5.846H115.7V0h-7.793Z" transform="translate(-2.927)" fill="#1a1818"/>
        <path id="Path_166-6" data-name="Path 166" d="M101.791,12.737v14.4H70.3v10.5H55.9v-3.9H66.4v-6.6H55.9v-14.4H70.3v10.5h6.6v-10.5h3.9v10.5h6.6v-10.5Zm-10.5,10.5h6.6v-6.6h-6.6v6.6m-31.494,0h6.6v-6.6H59.8v6.6m43.938-12.444H85.446v10.5H82.74v-10.5H74.952v10.5H72.242v-10.5H53.955V29.078h10.5v2.709h-10.5v7.789H72.242v-10.5h31.495Zm-10.5,7.793h2.706v2.706H93.239Zm-31.494,0h2.709v2.706H61.745Z" transform="translate(-1.464 -0.293)" fill="#1a1818"/>
        <path id="Path_167-6" data-name="Path 167" d="M102.962,49.007h-3.9v-3.9h3.9Zm1.946-5.844H97.115v7.789h7.793Z" transform="translate(-2.635 -1.171)" fill="#1a1818"/>
        <path id="Path_168-6" data-name="Path 168" d="M99.061,1.946h3.9v3.9h-3.9ZM97.115,7.792h7.792V0H97.115Z" transform="translate(-2.635)" fill="#1a1818"/>
        <path id="Path_169-6" data-name="Path 169" d="M88.27,1.946h3.9v3.9h-3.9ZM86.324,7.792h7.793V0H86.324Z" transform="translate(-2.342)" fill="#1a1818"/>
        <path id="Path_170-6" data-name="Path 170" d="M156.809,18.583h2.709v2.706h-2.709Zm2.708-1.946h-4.654v6.6h6.6v-6.6Zm18.288,1.946h2.709v2.706h-2.709Zm2.708-1.946h-4.654v6.6h6.6v-6.6ZM230.3,18.583H233v2.706H230.3ZM233,16.637H228.35v6.6h6.6v-6.6Zm-13.2,6.6h4.652v-10.5h14.4v14.4H165.361v10.5H77.483v-3.9h83.981v-6.6h-10.5v-14.4h14.4v10.5h6.6v-10.5h14.4v10.5h27.594v-6.6H192.958v-3.9h24.894v10.5ZM222.5,10.79v10.5H219.8V10.79H191.012v7.793h20.994v2.706H188.3V10.79H170.015v10.5h-2.708V10.79H149.02V29.077h10.5v2.709H75.537v7.789h91.77v-10.5h73.487V10.79Z" transform="translate(-2.049 -0.293)" fill="#1a1818"/>
        <path id="Path_171-6" data-name="Path 171" d="M7.794,23.234H33.441v-10.5h3.9v14.4H1.948v-14.4h3.9v10.5ZM31.5,10.79v10.5H7.794V10.79H0V29.077H39.285V10.79Z" transform="translate(0 -0.293)" fill="#1a1818"/>
        <path id="Path_172-6" data-name="Path 172" d="M16.635,16.638h-3.9v-3.9h3.9Zm1.946-5.847H10.792v7.793h7.789Z" transform="translate(-0.293 -0.293)" fill="#1a1818"/>
        <path id="Path_173-6" data-name="Path 173" d="M27.426,16.638h-3.9v-3.9h3.9Zm1.946-5.847H21.583v7.793h7.789Z" transform="translate(-0.586 -0.293)" fill="#1a1818"/>
        <path id="Path_174-6" data-name="Path 174" d="M7.794,61.742H10.5v2.709H7.794ZM10.5,59.8H5.848v6.6h6.6V59.8Zm28.785,6.6H43.94V55.9h3.9V70.3H1.948V55.9h14.4V66.4h17.1V55.9h3.9V66.4Zm2.709-12.444v10.5H39.285v-10.5H31.5v10.5H18.288v-10.5H0V72.24H49.782V53.954Z" transform="translate(0 -1.464)" fill="#1a1818"/>
        <path id="Path_175-6" data-name="Path 175" d="M48.712,34.318v3.9h-10.5v6.6h10.5v3.9h-14.4v-14.4Zm1.946-1.946H32.371V50.659H50.658V42.87H40.16V40.161h10.5Z" transform="translate(-0.878 -0.878)" fill="#1a1818"/>
        <path id="Path_176-6" data-name="Path 176" d="M1.948,45.109h3.9v3.9h-3.9ZM0,50.953H7.794V43.164H0Z" transform="translate(0 -1.171)" fill="#1a1818"/>
        <path id="Path_177-6" data-name="Path 177" d="M16.635,49.007h-3.9v-3.9h3.9Zm1.946-5.844H10.792v7.789h7.789Z" transform="translate(-0.293 -1.171)" fill="#1a1818"/>
        <path id="Path_178-6" data-name="Path 178" d="M23.529,77.481h3.9v3.9h-3.9Zm-1.946,5.844h7.789V75.536H21.583Z" transform="translate(-0.586 -2.049)" fill="#1a1818"/>
        <path id="Path_179-6" data-name="Path 179" d="M34.32,77.481h3.9v3.9h-3.9Zm-1.946,5.844h7.789V75.536H32.374Z" transform="translate(-0.878 -2.049)" fill="#1a1818"/>
        <path id="Path_180-6" data-name="Path 180" d="M45.111,77.481H185.479v3.9H45.111Zm-1.946,5.844h144.26V75.536H43.165Z" transform="translate(-1.171 -2.049)" fill="#1a1818"/>
        <path id="Path_181-6" data-name="Path 181" d="M1.948,77.481h14.4v3.9H1.948ZM0,83.325H18.288V75.536H0Z" transform="translate(0 -2.049)" fill="#1a1818"/>
        <path id="Path_182-6" data-name="Path 182" d="M1.946,34.317h24.89V53.367l0,1.946v3.9h-3.9v-2.7l0-1.946V38.215H1.946ZM0,32.371V40.16H20.993V56.509h0v4.647h7.788V53.367h0v-21Z" transform="translate(0 -0.878)" fill="#1a1818"/>
        <path id="Path_183-6" data-name="Path 183" d="M1.948,1.946H37.339v3.9H1.948ZM0,7.792H39.285V0H0Z" transform="translate(0)" fill="#1a1818"/>
      </g>
    </g>
    <g id="Component_1_3" data-name="Component 1 – 3" transform="translate(427.145 931.458)">
      <g id="Group_10-7" data-name="Group 10" opacity="0.1">
        <path id="Path_148-7" data-name="Path 148" d="M77.483,1.946h3.9v3.9h-3.9ZM75.537,7.792h7.789V0H75.537Z" transform="translate(-2.049)" fill="#1a1818"/>
        <path id="Path_149-7" data-name="Path 149" d="M45.111,1.946H70v3.9h-21V26.84h-3.9ZM43.165,0V28.784h7.788V7.792h21V0Z" transform="translate(-1.171)" fill="#1a1818"/>
        <path id="Path_150-7" data-name="Path 150" d="M178.494,59.5h-3.9v-14.4h3.9Zm1.946-16.341h-7.789V61.45h7.789Z" transform="translate(-4.684 -1.171)" fill="#1a1818"/>
        <path id="Path_151-7" data-name="Path 151" d="M167.41,55.9v3.9h-10.5v6.6h10.5v3.9h-14.4V55.9Zm1.946-1.946H151.069V72.241h18.287V64.452h-10.5V61.743h10.5Z" transform="translate(-4.098 -1.464)" fill="#1a1818"/>
        <path id="Path_152-7" data-name="Path 152" d="M167.118,45.109v3.9h-21V70h-3.9V45.109Zm1.946-1.946H140.278V71.948h7.789v-21h21Z" transform="translate(-3.806 -1.171)" fill="#1a1818"/>
        <path id="Path_153-7" data-name="Path 153" d="M199.491,38.216H174.6v-3.9h24.894Zm1.946-5.843H172.651v7.789h28.785Z" transform="translate(-4.684 -0.878)" fill="#1a1818"/>
        <path id="Path_154-7" data-name="Path 154" d="M217.464,45.109h24.9v3.9h-21v6.6h21V70H210.866V80.5h-3.9V55.607h3.9v10.5H238.46V59.5h-21Zm-1.946-1.946V61.449h21v2.709h-23.7v-10.5H205.02V82.446h7.792v-10.5h31.495V53.661h-21V50.952h21V43.163Z" transform="translate(-5.562 -1.171)" fill="#1a1818"/>
        <path id="Path_155-7" data-name="Path 155" d="M217.757,77.481h24.9v3.9h-24.9Zm-1.946,5.844H244.6V75.536H215.811Z" transform="translate(-5.855 -2.049)" fill="#1a1818"/>
        <path id="Path_156-7" data-name="Path 156" d="M217.757,34.318h24.9v3.9h-24.9Zm-1.946,5.844H244.6V32.373H215.811Z" transform="translate(-5.855 -0.878)" fill="#1a1818"/>
        <path id="Path_157-7" data-name="Path 157" d="M210.867,38.216h-3.9v-3.9h3.9Zm1.946-5.843H205.02v7.789h7.793Z" transform="translate(-5.562 -0.878)" fill="#1a1818"/>
        <path id="Path_158-7" data-name="Path 158" d="M209.988,45.109v3.9h-21v17.1h6.6v-10.5h3.9V70H174.6v-3.9h10.5v-21Zm1.946-1.946H183.148v21h-10.5v7.789h28.785V53.661h-7.789v10.5h-2.709V50.952h21Z" transform="translate(-4.684 -1.171)" fill="#1a1818"/>
        <path id="Path_159-7" data-name="Path 159" d="M196.178,77.481h3.9v3.9h-3.9Zm-1.945,5.844h7.789V75.536h-7.789Z" transform="translate(-5.269 -2.049)" fill="#1a1818"/>
        <path id="Path_160-7" data-name="Path 160" d="M145.244,12.737v3.9h-10.5v6.6h10.5v3.9H109.852v-14.4h14.4v10.5h6.6v-10.5Zm-31.491,10.5h6.6v-6.6h-6.6v6.6M147.19,10.791H128.9v10.5H126.2v-10.5h-18.29V29.078H147.19V21.289h-10.5V18.584h10.5ZM115.7,18.584H118.4v2.706H115.7Z" transform="translate(-2.927 -0.293)" fill="#1a1818"/>
        <path id="Path_161-7" data-name="Path 161" d="M131.433,1.946H240.312v3.9H131.433Zm-1.945,5.846h112.77V0H129.488Z" transform="translate(-3.513)" fill="#1a1818"/>
        <path id="Path_162-7" data-name="Path 162" d="M133.285,45.109V70H55.9V45.109H91.293v3.9H59.8v17.1h6.6v-10.5h3.9v10.5h6.6v-10.5h24.894v10.5h6.6v-10.5h14.4v10.5h6.6v-17.1h-10.5v-3.9Zm-21,21h6.6V59.5h-6.6v6.6m-31.495,0h17.1V59.5h-17.1v6.6m54.436-22.942h-18.29v7.79h10.5V64.16h-2.707v-10.5h-18.29v10.5h-2.706v-10.5H74.952v10.5H72.242v-10.5H64.453v10.5H61.745V50.953H93.239v-7.79H53.955V71.948h81.276Zm-21,18.287h2.706V64.16h-2.706Zm-31.495,0h13.2V64.16H82.74Z" transform="translate(-1.464 -1.171)" fill="#1a1818"/>
        <path id="Path_163-7" data-name="Path 163" d="M120.643,1.946h3.9v3.9h-3.9ZM118.7,7.792h7.793V0H118.7Z" transform="translate(-3.22)" fill="#1a1818"/>
        <path id="Path_164-7" data-name="Path 164" d="M113.753,49.007h-3.9v-3.9h3.9Zm1.946-5.844h-7.793v7.789H115.7Z" transform="translate(-2.927 -1.171)" fill="#1a1818"/>
        <path id="Path_165-7" data-name="Path 165" d="M109.852,1.946h3.9v3.9h-3.9Zm-1.946,5.846H115.7V0h-7.793Z" transform="translate(-2.927)" fill="#1a1818"/>
        <path id="Path_166-7" data-name="Path 166" d="M101.791,12.737v14.4H70.3v10.5H55.9v-3.9H66.4v-6.6H55.9v-14.4H70.3v10.5h6.6v-10.5h3.9v10.5h6.6v-10.5Zm-10.5,10.5h6.6v-6.6h-6.6v6.6m-31.494,0h6.6v-6.6H59.8v6.6m43.938-12.444H85.446v10.5H82.74v-10.5H74.952v10.5H72.242v-10.5H53.955V29.078h10.5v2.709h-10.5v7.789H72.242v-10.5h31.495Zm-10.5,7.793h2.706v2.706H93.239Zm-31.494,0h2.709v2.706H61.745Z" transform="translate(-1.464 -0.293)" fill="#1a1818"/>
        <path id="Path_167-7" data-name="Path 167" d="M102.962,49.007h-3.9v-3.9h3.9Zm1.946-5.844H97.115v7.789h7.793Z" transform="translate(-2.635 -1.171)" fill="#1a1818"/>
        <path id="Path_168-7" data-name="Path 168" d="M99.061,1.946h3.9v3.9h-3.9ZM97.115,7.792h7.792V0H97.115Z" transform="translate(-2.635)" fill="#1a1818"/>
        <path id="Path_169-7" data-name="Path 169" d="M88.27,1.946h3.9v3.9h-3.9ZM86.324,7.792h7.793V0H86.324Z" transform="translate(-2.342)" fill="#1a1818"/>
        <path id="Path_170-7" data-name="Path 170" d="M156.809,18.583h2.709v2.706h-2.709Zm2.708-1.946h-4.654v6.6h6.6v-6.6Zm18.288,1.946h2.709v2.706h-2.709Zm2.708-1.946h-4.654v6.6h6.6v-6.6ZM230.3,18.583H233v2.706H230.3ZM233,16.637H228.35v6.6h6.6v-6.6Zm-13.2,6.6h4.652v-10.5h14.4v14.4H165.361v10.5H77.483v-3.9h83.981v-6.6h-10.5v-14.4h14.4v10.5h6.6v-10.5h14.4v10.5h27.594v-6.6H192.958v-3.9h24.894v10.5ZM222.5,10.79v10.5H219.8V10.79H191.012v7.793h20.994v2.706H188.3V10.79H170.015v10.5h-2.708V10.79H149.02V29.077h10.5v2.709H75.537v7.789h91.77v-10.5h73.487V10.79Z" transform="translate(-2.049 -0.293)" fill="#1a1818"/>
        <path id="Path_171-7" data-name="Path 171" d="M7.794,23.234H33.441v-10.5h3.9v14.4H1.948v-14.4h3.9v10.5ZM31.5,10.79v10.5H7.794V10.79H0V29.077H39.285V10.79Z" transform="translate(0 -0.293)" fill="#1a1818"/>
        <path id="Path_172-7" data-name="Path 172" d="M16.635,16.638h-3.9v-3.9h3.9Zm1.946-5.847H10.792v7.793h7.789Z" transform="translate(-0.293 -0.293)" fill="#1a1818"/>
        <path id="Path_173-7" data-name="Path 173" d="M27.426,16.638h-3.9v-3.9h3.9Zm1.946-5.847H21.583v7.793h7.789Z" transform="translate(-0.586 -0.293)" fill="#1a1818"/>
        <path id="Path_174-7" data-name="Path 174" d="M7.794,61.742H10.5v2.709H7.794ZM10.5,59.8H5.848v6.6h6.6V59.8Zm28.785,6.6H43.94V55.9h3.9V70.3H1.948V55.9h14.4V66.4h17.1V55.9h3.9V66.4Zm2.709-12.444v10.5H39.285v-10.5H31.5v10.5H18.288v-10.5H0V72.24H49.782V53.954Z" transform="translate(0 -1.464)" fill="#1a1818"/>
        <path id="Path_175-7" data-name="Path 175" d="M48.712,34.318v3.9h-10.5v6.6h10.5v3.9h-14.4v-14.4Zm1.946-1.946H32.371V50.659H50.658V42.87H40.16V40.161h10.5Z" transform="translate(-0.878 -0.878)" fill="#1a1818"/>
        <path id="Path_176-7" data-name="Path 176" d="M1.948,45.109h3.9v3.9h-3.9ZM0,50.953H7.794V43.164H0Z" transform="translate(0 -1.171)" fill="#1a1818"/>
        <path id="Path_177-7" data-name="Path 177" d="M16.635,49.007h-3.9v-3.9h3.9Zm1.946-5.844H10.792v7.789h7.789Z" transform="translate(-0.293 -1.171)" fill="#1a1818"/>
        <path id="Path_178-7" data-name="Path 178" d="M23.529,77.481h3.9v3.9h-3.9Zm-1.946,5.844h7.789V75.536H21.583Z" transform="translate(-0.586 -2.049)" fill="#1a1818"/>
        <path id="Path_179-7" data-name="Path 179" d="M34.32,77.481h3.9v3.9h-3.9Zm-1.946,5.844h7.789V75.536H32.374Z" transform="translate(-0.878 -2.049)" fill="#1a1818"/>
        <path id="Path_180-7" data-name="Path 180" d="M45.111,77.481H185.479v3.9H45.111Zm-1.946,5.844h144.26V75.536H43.165Z" transform="translate(-1.171 -2.049)" fill="#1a1818"/>
        <path id="Path_181-7" data-name="Path 181" d="M1.948,77.481h14.4v3.9H1.948ZM0,83.325H18.288V75.536H0Z" transform="translate(0 -2.049)" fill="#1a1818"/>
        <path id="Path_182-7" data-name="Path 182" d="M1.946,34.317h24.89V53.367l0,1.946v3.9h-3.9v-2.7l0-1.946V38.215H1.946ZM0,32.371V40.16H20.993V56.509h0v4.647h7.788V53.367h0v-21Z" transform="translate(0 -0.878)" fill="#1a1818"/>
        <path id="Path_183-7" data-name="Path 183" d="M1.948,1.946H37.339v3.9H1.948ZM0,7.792H39.285V0H0Z" transform="translate(0)" fill="#1a1818"/>
      </g>
    </g>
    <g id="Component_1_4" data-name="Component 1 – 4" transform="translate(1147.494 931.458)">
      <g id="Group_10-8" data-name="Group 10" opacity="0.1">
        <path id="Path_148-8" data-name="Path 148" d="M77.483,1.946h3.9v3.9h-3.9ZM75.537,7.792h7.789V0H75.537Z" transform="translate(-2.049)" fill="#1a1818"/>
        <path id="Path_149-8" data-name="Path 149" d="M45.111,1.946H70v3.9h-21V26.84h-3.9ZM43.165,0V28.784h7.788V7.792h21V0Z" transform="translate(-1.171)" fill="#1a1818"/>
        <path id="Path_150-8" data-name="Path 150" d="M178.494,59.5h-3.9v-14.4h3.9Zm1.946-16.341h-7.789V61.45h7.789Z" transform="translate(-4.684 -1.171)" fill="#1a1818"/>
        <path id="Path_151-8" data-name="Path 151" d="M167.41,55.9v3.9h-10.5v6.6h10.5v3.9h-14.4V55.9Zm1.946-1.946H151.069V72.241h18.287V64.452h-10.5V61.743h10.5Z" transform="translate(-4.098 -1.464)" fill="#1a1818"/>
        <path id="Path_152-8" data-name="Path 152" d="M167.118,45.109v3.9h-21V70h-3.9V45.109Zm1.946-1.946H140.278V71.948h7.789v-21h21Z" transform="translate(-3.806 -1.171)" fill="#1a1818"/>
        <path id="Path_153-8" data-name="Path 153" d="M199.491,38.216H174.6v-3.9h24.894Zm1.946-5.843H172.651v7.789h28.785Z" transform="translate(-4.684 -0.878)" fill="#1a1818"/>
        <path id="Path_154-8" data-name="Path 154" d="M217.464,45.109h24.9v3.9h-21v6.6h21V70H210.866V80.5h-3.9V55.607h3.9v10.5H238.46V59.5h-21Zm-1.946-1.946V61.449h21v2.709h-23.7v-10.5H205.02V82.446h7.792v-10.5h31.495V53.661h-21V50.952h21V43.163Z" transform="translate(-5.562 -1.171)" fill="#1a1818"/>
        <path id="Path_155-8" data-name="Path 155" d="M217.757,77.481h24.9v3.9h-24.9Zm-1.946,5.844H244.6V75.536H215.811Z" transform="translate(-5.855 -2.049)" fill="#1a1818"/>
        <path id="Path_156-8" data-name="Path 156" d="M217.757,34.318h24.9v3.9h-24.9Zm-1.946,5.844H244.6V32.373H215.811Z" transform="translate(-5.855 -0.878)" fill="#1a1818"/>
        <path id="Path_157-8" data-name="Path 157" d="M210.867,38.216h-3.9v-3.9h3.9Zm1.946-5.843H205.02v7.789h7.793Z" transform="translate(-5.562 -0.878)" fill="#1a1818"/>
        <path id="Path_158-8" data-name="Path 158" d="M209.988,45.109v3.9h-21v17.1h6.6v-10.5h3.9V70H174.6v-3.9h10.5v-21Zm1.946-1.946H183.148v21h-10.5v7.789h28.785V53.661h-7.789v10.5h-2.709V50.952h21Z" transform="translate(-4.684 -1.171)" fill="#1a1818"/>
        <path id="Path_159-8" data-name="Path 159" d="M196.178,77.481h3.9v3.9h-3.9Zm-1.945,5.844h7.789V75.536h-7.789Z" transform="translate(-5.269 -2.049)" fill="#1a1818"/>
        <path id="Path_160-8" data-name="Path 160" d="M145.244,12.737v3.9h-10.5v6.6h10.5v3.9H109.852v-14.4h14.4v10.5h6.6v-10.5Zm-31.491,10.5h6.6v-6.6h-6.6v6.6M147.19,10.791H128.9v10.5H126.2v-10.5h-18.29V29.078H147.19V21.289h-10.5V18.584h10.5ZM115.7,18.584H118.4v2.706H115.7Z" transform="translate(-2.927 -0.293)" fill="#1a1818"/>
        <path id="Path_161-8" data-name="Path 161" d="M131.433,1.946H240.312v3.9H131.433Zm-1.945,5.846h112.77V0H129.488Z" transform="translate(-3.513)" fill="#1a1818"/>
        <path id="Path_162-8" data-name="Path 162" d="M133.285,45.109V70H55.9V45.109H91.293v3.9H59.8v17.1h6.6v-10.5h3.9v10.5h6.6v-10.5h24.894v10.5h6.6v-10.5h14.4v10.5h6.6v-17.1h-10.5v-3.9Zm-21,21h6.6V59.5h-6.6v6.6m-31.495,0h17.1V59.5h-17.1v6.6m54.436-22.942h-18.29v7.79h10.5V64.16h-2.707v-10.5h-18.29v10.5h-2.706v-10.5H74.952v10.5H72.242v-10.5H64.453v10.5H61.745V50.953H93.239v-7.79H53.955V71.948h81.276Zm-21,18.287h2.706V64.16h-2.706Zm-31.495,0h13.2V64.16H82.74Z" transform="translate(-1.464 -1.171)" fill="#1a1818"/>
        <path id="Path_163-8" data-name="Path 163" d="M120.643,1.946h3.9v3.9h-3.9ZM118.7,7.792h7.793V0H118.7Z" transform="translate(-3.22)" fill="#1a1818"/>
        <path id="Path_164-8" data-name="Path 164" d="M113.753,49.007h-3.9v-3.9h3.9Zm1.946-5.844h-7.793v7.789H115.7Z" transform="translate(-2.927 -1.171)" fill="#1a1818"/>
        <path id="Path_165-8" data-name="Path 165" d="M109.852,1.946h3.9v3.9h-3.9Zm-1.946,5.846H115.7V0h-7.793Z" transform="translate(-2.927)" fill="#1a1818"/>
        <path id="Path_166-8" data-name="Path 166" d="M101.791,12.737v14.4H70.3v10.5H55.9v-3.9H66.4v-6.6H55.9v-14.4H70.3v10.5h6.6v-10.5h3.9v10.5h6.6v-10.5Zm-10.5,10.5h6.6v-6.6h-6.6v6.6m-31.494,0h6.6v-6.6H59.8v6.6m43.938-12.444H85.446v10.5H82.74v-10.5H74.952v10.5H72.242v-10.5H53.955V29.078h10.5v2.709h-10.5v7.789H72.242v-10.5h31.495Zm-10.5,7.793h2.706v2.706H93.239Zm-31.494,0h2.709v2.706H61.745Z" transform="translate(-1.464 -0.293)" fill="#1a1818"/>
        <path id="Path_167-8" data-name="Path 167" d="M102.962,49.007h-3.9v-3.9h3.9Zm1.946-5.844H97.115v7.789h7.793Z" transform="translate(-2.635 -1.171)" fill="#1a1818"/>
        <path id="Path_168-8" data-name="Path 168" d="M99.061,1.946h3.9v3.9h-3.9ZM97.115,7.792h7.792V0H97.115Z" transform="translate(-2.635)" fill="#1a1818"/>
        <path id="Path_169-8" data-name="Path 169" d="M88.27,1.946h3.9v3.9h-3.9ZM86.324,7.792h7.793V0H86.324Z" transform="translate(-2.342)" fill="#1a1818"/>
        <path id="Path_170-8" data-name="Path 170" d="M156.809,18.583h2.709v2.706h-2.709Zm2.708-1.946h-4.654v6.6h6.6v-6.6Zm18.288,1.946h2.709v2.706h-2.709Zm2.708-1.946h-4.654v6.6h6.6v-6.6ZM230.3,18.583H233v2.706H230.3ZM233,16.637H228.35v6.6h6.6v-6.6Zm-13.2,6.6h4.652v-10.5h14.4v14.4H165.361v10.5H77.483v-3.9h83.981v-6.6h-10.5v-14.4h14.4v10.5h6.6v-10.5h14.4v10.5h27.594v-6.6H192.958v-3.9h24.894v10.5ZM222.5,10.79v10.5H219.8V10.79H191.012v7.793h20.994v2.706H188.3V10.79H170.015v10.5h-2.708V10.79H149.02V29.077h10.5v2.709H75.537v7.789h91.77v-10.5h73.487V10.79Z" transform="translate(-2.049 -0.293)" fill="#1a1818"/>
        <path id="Path_171-8" data-name="Path 171" d="M7.794,23.234H33.441v-10.5h3.9v14.4H1.948v-14.4h3.9v10.5ZM31.5,10.79v10.5H7.794V10.79H0V29.077H39.285V10.79Z" transform="translate(0 -0.293)" fill="#1a1818"/>
        <path id="Path_172-8" data-name="Path 172" d="M16.635,16.638h-3.9v-3.9h3.9Zm1.946-5.847H10.792v7.793h7.789Z" transform="translate(-0.293 -0.293)" fill="#1a1818"/>
        <path id="Path_173-8" data-name="Path 173" d="M27.426,16.638h-3.9v-3.9h3.9Zm1.946-5.847H21.583v7.793h7.789Z" transform="translate(-0.586 -0.293)" fill="#1a1818"/>
        <path id="Path_174-8" data-name="Path 174" d="M7.794,61.742H10.5v2.709H7.794ZM10.5,59.8H5.848v6.6h6.6V59.8Zm28.785,6.6H43.94V55.9h3.9V70.3H1.948V55.9h14.4V66.4h17.1V55.9h3.9V66.4Zm2.709-12.444v10.5H39.285v-10.5H31.5v10.5H18.288v-10.5H0V72.24H49.782V53.954Z" transform="translate(0 -1.464)" fill="#1a1818"/>
        <path id="Path_175-8" data-name="Path 175" d="M48.712,34.318v3.9h-10.5v6.6h10.5v3.9h-14.4v-14.4Zm1.946-1.946H32.371V50.659H50.658V42.87H40.16V40.161h10.5Z" transform="translate(-0.878 -0.878)" fill="#1a1818"/>
        <path id="Path_176-8" data-name="Path 176" d="M1.948,45.109h3.9v3.9h-3.9ZM0,50.953H7.794V43.164H0Z" transform="translate(0 -1.171)" fill="#1a1818"/>
        <path id="Path_177-8" data-name="Path 177" d="M16.635,49.007h-3.9v-3.9h3.9Zm1.946-5.844H10.792v7.789h7.789Z" transform="translate(-0.293 -1.171)" fill="#1a1818"/>
        <path id="Path_178-8" data-name="Path 178" d="M23.529,77.481h3.9v3.9h-3.9Zm-1.946,5.844h7.789V75.536H21.583Z" transform="translate(-0.586 -2.049)" fill="#1a1818"/>
        <path id="Path_179-8" data-name="Path 179" d="M34.32,77.481h3.9v3.9h-3.9Zm-1.946,5.844h7.789V75.536H32.374Z" transform="translate(-0.878 -2.049)" fill="#1a1818"/>
        <path id="Path_180-8" data-name="Path 180" d="M45.111,77.481H185.479v3.9H45.111Zm-1.946,5.844h144.26V75.536H43.165Z" transform="translate(-1.171 -2.049)" fill="#1a1818"/>
        <path id="Path_181-8" data-name="Path 181" d="M1.948,77.481h14.4v3.9H1.948ZM0,83.325H18.288V75.536H0Z" transform="translate(0 -2.049)" fill="#1a1818"/>
        <path id="Path_182-8" data-name="Path 182" d="M1.946,34.317h24.89V53.367l0,1.946v3.9h-3.9v-2.7l0-1.946V38.215H1.946ZM0,32.371V40.16H20.993V56.509h0v4.647h7.788V53.367h0v-21Z" transform="translate(0 -0.878)" fill="#1a1818"/>
        <path id="Path_183-8" data-name="Path 183" d="M1.948,1.946H37.339v3.9H1.948ZM0,7.792H39.285V0H0Z" transform="translate(0)" fill="#1a1818"/>
      </g>
    </g>
  </g>
</svg>
