<svg xmlns="http://www.w3.org/2000/svg" xmlns:xlink="http://www.w3.org/1999/xlink" width="1166.069" height="342.518" viewBox="0 0 1166.069 342.518">
  <defs>
    <clipPath id="clip-path">
      <rect id="Rectangle_108" data-name="Rectangle 108" width="515.616" height="219.373" fill="#505050"/>
    </clipPath>
    <clipPath id="clip-path-2">
      <rect id="Rectangle_109" data-name="Rectangle 109" width="516.453" height="210.494" fill="#505050"/>
    </clipPath>
  </defs>
  <g id="Group_1122" data-name="Group 1122" transform="translate(-377 -54.493)">
    <g id="Group_51" data-name="Group 51" transform="translate(377 116)">
      <g id="Group_50" data-name="Group 50" transform="translate(0)" clip-path="url(#clip-path)">
        <path id="Path_282" data-name="Path 282" d="M1616.7,0a9.182,9.182,0,0,1-.475,2.128,79.361,79.361,0,0,1-6.04,10.666c-5.321,7.629-12.064,13.833-19.107,19.75a88.014,88.014,0,0,1-19.241,11.771,293.026,293.026,0,0,1-27.623,11.571c-3.931,1.393-7.789,3-11.672,4.523a6.424,6.424,0,0,0-1.056.683,21.072,21.072,0,0,0,3.743,11.545,55.283,55.283,0,0,0,9.035,10.352c6.51,5.76,13.037,11.5,19.449,17.371,7.567,6.924,15.252,13.742,22.074,21.426,5.058,5.7,9.294,12,10.8,19.577a34.2,34.2,0,0,1,.189,10.994c-.986,7.436-4.622,13.927-8.328,20.317-1.094,1.886-1.694,2.078-3.882,1.487a76.667,76.667,0,0,1-15.342-6.495,72.023,72.023,0,0,1-10.906-7.532c-.374-.293-.767-.561-1.171-.854-1.379,4.115-2.637,8.139-4.074,12.1a124.171,124.171,0,0,1-9.742,20.367,63.5,63.5,0,0,1-11.612,14.875,44.45,44.45,0,0,1-20.744,11.193,35.927,35.927,0,0,1-14.928.055,91.021,91.021,0,0,1-13.442-3.8,54.248,54.248,0,0,1-9.531-5.037c-3.748-2.338-7.307-4.978-10.936-7.5a2.291,2.291,0,0,1-.911-1.337c.627.221,1.271.4,1.878.667a108.815,108.815,0,0,0,23.559,7.629,76.905,76.905,0,0,0,22.793,1.248,43.3,43.3,0,0,0,19.288-7.5,55.584,55.584,0,0,0,17.373-18.808,48.125,48.125,0,0,0,5.562-16.177,31.682,31.682,0,0,0,.659-4.109,82.264,82.264,0,0,0-.032-8.826,12.733,12.733,0,0,0-2.458-6.35q-4.743-6.733-9.482-13.469a25.061,25.061,0,0,1-1.487-2.263c-1.462-2.65-2.342-5.32-.945-8.369a53.175,53.175,0,0,1,4.812-9.068c1.7,5.573,5.05,9.8,8.32,14.1a64.472,64.472,0,0,1,7.382,11.872,19.279,19.279,0,0,0,5.124,6.548,64.917,64.917,0,0,0,16.29,10.449c2.479,1.071,4.944,2.178,7.455,3.168a29.89,29.89,0,0,0,3.612.911c.057-1.335.142-2.518.153-3.7a25.258,25.258,0,0,0-2.3-10.464c-3.011-6.909-7.659-12.6-12.864-17.875-8.991-9.117-18.616-17.545-28.25-25.974-6.036-5.281-12.251-10.45-17-17.04-2.021-2.8-3.923-5.7-4.619-9.148-.867-4.29-1.217-8.622.374-12.841a42.852,42.852,0,0,1,7.6-13.37,13.534,13.534,0,0,1,5.82-3.545c13.76-5.035,27.417-10.32,40.559-16.841a83.667,83.667,0,0,0,17.188-10.926c6.889-5.85,13.464-12.033,18.485-19.656a1.634,1.634,0,0,0,.133-.461Z" transform="translate(-1101.088)" fill="#505050"/>
        <path id="Path_283" data-name="Path 283" d="M402.738,74.773a7.218,7.218,0,0,1,.1,1.6c-1.033,6.629.664,12.88,2.747,19.032,3.368,9.944,7.745,19.485,11.82,29.149,4.517,10.714,8.92,21.487,12.939,32.394a117.327,117.327,0,0,1,5,18.194,146.272,146.272,0,0,1,1.856,17.346,49.792,49.792,0,0,1-3.449,20.948,81.749,81.749,0,0,1-6.884,15.193c-.13.208-.2.453-.336.657-2.124,3.213-2.7,3.962-7.1,2.968-4.226-.956-8.481-1.847-12.628-3.085A77.848,77.848,0,0,1,383,216.838c-2.984,4.28-5.887,8.526-8.88,12.707a18.13,18.13,0,0,1-8.038,6.269,2.353,2.353,0,0,1-2.324-.1c-1.326-.814-2.7-1.549-3.99-2.418a39.722,39.722,0,0,1-15.73-20.533,32.294,32.294,0,0,1-1.914-10.358c0-.4-.073-.793-.115-1.221-2.047-.792-3.848.118-5.522.731a65.89,65.89,0,0,0-8.24,3.767c-6.723,3.575-13.155,7.672-20.147,10.775a31.244,31.244,0,0,1-16.1,2.318c-1.985-.2-3.893-1.168-6.168-1.891l-3.8,6.7-.475-.192,2.465-7.724c-.052-.129-.069-.33-.178-.422-3.379-2.835-5.476-6.278-5.261-10.862a19.907,19.907,0,0,0-.265-2.489c-6.377,12.194-16.032,20.083-28.027,26.353.3-2.184.427-3.844.759-5.464a29.821,29.821,0,0,0-.213-10.758,161.07,161.07,0,0,0-5.5-23.648c-1.984-6.234-4.217-12.394-6.492-18.531C236,162.176,232.879,154.6,230.1,146.9a93.316,93.316,0,0,1-4.65-17.517,43.734,43.734,0,0,1-.449-6.867c.036-5.826-.134-11.684.421-17.467a144.811,144.811,0,0,1,2.845-15.423,54.324,54.324,0,0,1,5.748-14.554,4.469,4.469,0,0,1,1.734-1.834q-.592,2.122-1.183,4.245a88.176,88.176,0,0,0-3.537,22.985c-.036,5.005-.094,10.038.363,15.012.755,8.2,3.367,15.975,6.261,23.651,4.359,11.563,8.938,23.054,12.886,34.757,2.684,7.956,5.039,16.082,5.851,24.533.265,2.765.891,5.517.905,8.278a65.313,65.313,0,0,1-.869,7.772,5.164,5.164,0,0,0,.21,1.1c2.5-1.5,4.929-2.821,7.207-4.366a58.805,58.805,0,0,0,12.724-11.135,17.4,17.4,0,0,0,2.076-3.564c1.733-3.616,3.387-7.27,5.1-10.9a6.128,6.128,0,0,1,.819-1.062l.489.158c-.126,1.167-.229,2.337-.382,3.5a17.151,17.151,0,0,0,1.57,10.741,30.291,30.291,0,0,0,2.957,3.769c.717-1.406,1.231-2.394,1.727-3.392,5.108-10.287,11.263-19.825,19.873-27.58,4.651-4.189,9.946-7.312,16.164-8.374,8.6-1.469,18.8,3.315,21.229,13.3a24.731,24.731,0,0,1-2.689,18.247,6.082,6.082,0,0,0-.226,6.008A47.16,47.16,0,0,0,356.539,216.9a43.827,43.827,0,0,0,12.377,7.9,2.512,2.512,0,0,0,1.814.042A21.227,21.227,0,0,0,380.966,214.7a16.655,16.655,0,0,1-1.943-1.444,54.955,54.955,0,0,1-12.968-18.947c-1.815-4.605-1.856-9.36-1.1-14.266.948-6.12,2.942-11.9,4.9-17.711a50.223,50.223,0,0,1,5.2-10.37,49.123,49.123,0,0,1,14.108,24.17,50.394,50.394,0,0,1-1.114,27.7,74.187,74.187,0,0,0,25.4,13.308c5.038,1.473,10.175,2.934,15.524,3.145a26.988,26.988,0,0,0,2.218-11c-.005-4.829-.388-9.665-.764-14.485-.816-10.473-3.987-20.375-7.624-30.135-3.948-10.595-8.179-21.073-12.842-31.383-3.172-7.014-6.1-14.152-8.815-21.355a76.773,76.773,0,0,1-4.33-14.838,27.343,27.343,0,0,1,3.3-18.508c.748-1.3,1.458-2.626,2.186-3.94l.433.137M290.685,203.638c5.262,3.4,10.772,3.559,16.343,2.546,5.8-1.055,10.906-3.976,16-6.763,6.3-3.45,12.277-7.5,19.141-10.046a8.615,8.615,0,0,0-.215-1.74c-3.344-9.729-12.9-13.232-20.511-11.948-6.4,1.079-11.8,4.385-16.525,8.728a71.083,71.083,0,0,0-12.542,15.709c-.661,1.092-1.116,2.309-1.688,3.513m80.694-36.969a25.456,25.456,0,0,0,1.133,16.775c2.7,6.182,6.742,11.4,11.18,16.371a13.01,13.01,0,0,0,1.5,1.237c1.95-11.253-5.215-27.913-13.814-34.383" transform="translate(-169.544 -55.187)" fill="#505050"/>
        <path id="Path_284" data-name="Path 284" d="M1255.066,229.816a3.531,3.531,0,0,1,.012-1.018c2.936-7.891,6.474-15.45,12.81-21.261a89.258,89.258,0,0,1,7.7-6.111,87.492,87.492,0,0,0,16.679-15.205c.253-.311.462-.658.836-1.2-1.581-1.562-3.064-3.178-4.7-4.62a288.025,288.025,0,0,0-31.055-23.339c-8.011-5.328-15.6-11.218-21.256-19.186a52.21,52.21,0,0,1-7.668-15.059,37.628,37.628,0,0,1,.112-21.8,98.422,98.422,0,0,1,5.822-15.367c4.521-9.409,11.516-16.025,21.587-19.18a10.57,10.57,0,0,1,1.16-.17c-.5.4-.681.562-.881.69-.277.175-.58.308-.857.484-3.042,1.924-6.2,3.7-9.1,5.816a35.423,35.423,0,0,0-11.438,13.62,38.7,38.7,0,0,0-3.836,18.827c.447,7.421,3.147,13.972,7.007,20.2,4.5,7.259,10.628,12.9,17.479,17.781,5.54,3.949,11.413,7.435,16.913,11.436,6.957,5.061,13.723,10.39,20.489,15.709a67.935,67.935,0,0,1,5.13,4.965c.4.39.826.756,1.411,1.289,2.64-4.127,5.416-8,7.694-12.146,2.743-4.992,4.511-10.386,4.235-16.193a18.5,18.5,0,0,0-1.184-5.466c-2.936-7.9-6.129-15.707-8.976-23.639a54.745,54.745,0,0,1-2.969-21.517,65.178,65.178,0,0,1,5.17-22.848c.976-2.248,2.095-4.437,3.2-6.625a21.985,21.985,0,0,1,1.478-2.189c.128.491.283.736.219.892a59.367,59.367,0,0,0-3.909,16.9,55.02,55.02,0,0,0,3,23.933c2.477,7.018,5.234,13.941,8,20.853,3.191,7.974,6.815,15.795,9.131,24.083q2.736,9.794,4.784,19.776a127.659,127.659,0,0,1,1.586,12.908c.174,1.749.028,3.531.028,5.827,2.055-1.778,3.892-3.24,5.581-4.856a42.176,42.176,0,0,0,8.834-11.74,9.69,9.69,0,0,0,1.005-2.74c.6-3.94,1.784-7.845.505-11.9a22.022,22.022,0,0,0-4.251-7.683c-1.48-1.748-3.14-3.345-4.721-5.008-.566-.595-1.157-1.167-1.7-1.783-1.872-2.132-2.869-4.17-1.352-7.225,1.414-2.849,2.763-5.717,4.431-8.736.509.605.841,1.016,1.191,1.412,2.386,2.7,4.784,5.392,7.163,8.1,2.569,2.923,4.874,6.024,5.408,10.015a28.935,28.935,0,0,1,.2,5.62c-.556,8.8-4.164,16.6-8.253,24.2-1.628,3.029-3.418,5.97-5.125,8.957-3.563,6.236-8.593,11.127-14.194,15.494-.109.085-.31.051-.7.1.22-17.682-4.479-34.306-10.75-51.23-3.8,9.521-7.814,18.265-13.147,26.145,1.694,2.809,3.424,5.4,4.87,8.137a33.531,33.531,0,0,1,3.576,13.9c.415,6.765-2.036,12.5-5.248,18.106-.558.974-1.175,1.759-2.5,1.538-5.321-.886-10.653-.191-15.977-.022a64.948,64.948,0,0,0-18.317,3.239,83.247,83.247,0,0,0-8.646,3.5,25.9,25.9,0,0,0-3.734,2.6m40.26-41.811c-4.214,4.786-8.068,9.693-12.484,14.03s-9.364,8.07-14.525,12.447c1.265-.338,2.044-.492,2.786-.752a68.222,68.222,0,0,1,20.967-3.613c3.527-.092,7.059-.015,10.588-.04a15.571,15.571,0,0,0,1.8-.211c.6-6.137-4.253-17.389-9.134-21.86" transform="translate(-924.48 -49.967)" fill="#505050"/>
        <path id="Path_285" data-name="Path 285" d="M40.38,289c.68-3.135,1.272-5.753,1.813-8.381a27.47,27.47,0,0,0-.716-13.61,21.932,21.932,0,0,0-5.93-9.515,105.258,105.258,0,0,0-9.253-8.085,163.638,163.638,0,0,1-15.96-13.48A33.481,33.481,0,0,1,.458,217.355a26.011,26.011,0,0,1,.852-13.1,80.217,80.217,0,0,1,6.983-15.137,23.532,23.532,0,0,1,8.476-8.393c5.285-3.072,12.476-1.031,14.617,4.718a36.708,36.708,0,0,1,1.881,10.833c.106,1.8.047,3.614-.006,5.419a24.2,24.2,0,0,0,6.691,17.671c4.738,5.181,10.1,9.352,17,11.213,3.949,1.065,8,.867,12,.583,8.257-.587,15.708-3.6,22.738-7.884a98.686,98.686,0,0,0,15.069-11.822c3.276-3,6.583-5.945,10.812-7.57a14.123,14.123,0,0,1,2.8-.879c1.828-.288,2.917.618,2.791,2.472-.257,3.79,1.038,7.032,2.991,10.174a16.394,16.394,0,0,0,5.138,4.866c1.949,1.3,4.074,2.333,6.354,3.613a38.148,38.148,0,0,0,.748-14.176,32.407,32.407,0,0,0-6.182-15.3c-2.791-3.845-5.339-7.866-8-11.808-2.324-3.448-2.965-7.052-1.046-10.909,1.379-2.771,2.741-5.55,4.1-8.31.439.2.7.261.7.318-.113,3.908,2.282,6.75,4.21,9.756,3.005,4.687,6.195,9.256,9.168,13.962a17.122,17.122,0,0,1,2.531,7.375,71.235,71.235,0,0,1,.855,7.811,57.345,57.345,0,0,1-4.7,22.677c-1.4,3.227-3.041,6.35-4.663,9.473-.845,1.626-1.163,1.72-2.953,1.306a12.177,12.177,0,0,1-2.524-.917,26.61,26.61,0,0,1-8.213-5.724,17.556,17.556,0,0,1-4.611-11.614c-.116-2.747-.852-3.256-3.542-2.388a22.89,22.89,0,0,0-7.9,4.4c-3.241,2.768-6.333,5.711-9.6,8.447-8.667,7.262-18.21,12.9-29.551,14.7-6.1.97-12.262,1.119-18.186-1.238-7.591-3.02-13.336-8.3-17.738-15.027-2.567-3.924-3.418-8.474-3.571-13.122-.081-2.461-.079-4.93,0-7.392a26.6,26.6,0,0,0-1.36-8.2,9.559,9.559,0,0,0-13.334-5.661,43.535,43.535,0,0,0-3.736,2.357C6.235,196.4,5.809,198.659,6,201.155c.521,6.761,2.414,13.072,6.662,18.443a48.741,48.741,0,0,0,6.61,6.932c5.435,4.611,11.1,8.948,16.611,13.47a44.05,44.05,0,0,1,9.566,10.491,22.7,22.7,0,0,1,3.144,11.963,41.746,41.746,0,0,1-4.673,20.841c-.982,1.852-1.688,3.872-3.541,5.709" transform="translate(0 -123.296)" fill="#505050"/>
        <path id="Path_286" data-name="Path 286" d="M1059.709,234.081c.7-1.885,1.31-3.811,2.128-5.644a32.67,32.67,0,0,0,2.67-12.4,115.1,115.1,0,0,0-.545-11.781,76.462,76.462,0,0,0-1.065-10.245,148.083,148.083,0,0,0-4.315-16.846c-2.768-8.21-5.967-16.28-9.16-24.34-2.41-6.083-5.136-12.04-7.654-18.081-3.241-7.778-6.544-15.534-9.573-23.4a63.572,63.572,0,0,1-4.227-17.1c-.568-6.269,1.353-11.974,4.331-17.383a12.2,12.2,0,0,1,2.485-3.313,13.13,13.13,0,0,1-.126,1.558,29.614,29.614,0,0,0,.6,12.671,142.049,142.049,0,0,0,8.006,22.89c3.814,8.958,7.791,17.847,11.548,26.829,2.714,6.488,5.254,13.05,7.738,19.63,1.24,3.283,2.251,6.659,3.234,10.031a108.875,108.875,0,0,1,2.779,10.658c.8,4.336,1.281,8.739,1.71,13.131a98.607,98.607,0,0,1,.628,11.294,50.167,50.167,0,0,1-4.623,19.951c-1.688,3.721-3.526,7.375-5.322,11.046a6.044,6.044,0,0,1-.835,1.046l-.406-.207" transform="translate(-774.532 -55.425)" fill="#505050"/>
        <path id="Path_287" data-name="Path 287" d="M1233.223,510.958c1.952,2.1,4.413,2.642,6.792,3.025a27.844,27.844,0,0,0,20.817-4.736c2.2-1.5,4.488-2.876,6.779-4.238a21.86,21.86,0,0,1,2.892-1.146c-.537,1.5-.865,2.55-1.289,3.56-.461,1.1-1.042,2.145-1.517,3.238a10.439,10.439,0,0,1-5.029,5.256,58.42,58.42,0,0,0-15.908,11.971,30.422,30.422,0,0,1-10.446,8.023,22.558,22.558,0,0,1-8.756,2.037,12.657,12.657,0,0,1-8.267-2.623,39,39,0,0,1-4.591-4.373c3.421.67,6.647,1.929,10.18,1.748a32.186,32.186,0,0,0,10.394-2.437,27.781,27.781,0,0,0,8.818-5.218c-2.9-.14-5.784-.1-8.62-.465a13.231,13.231,0,0,1-8.1-3.632,3.174,3.174,0,0,1-.8-3.635,39.092,39.092,0,0,1,12.205-17.619,16.232,16.232,0,0,1,12.276-4.029c2.654.274,4.019,1.549,3.929,4.174a10.7,10.7,0,0,1-.7,3.668c-1.02,2.459-2.255,4.829-3.422,7.225a9.213,9.213,0,0,1-.944,1.172c0-1.105.03-1.694-.006-2.279a2.97,2.97,0,0,0-2.617-3.083c-4.08-.918-7.783.127-11.23,2.3-.942.593-1.793,1.33-2.846,2.121" transform="translate(-915.315 -373.435)" fill="#505050"/>
        <path id="Path_288" data-name="Path 288" d="M1841.98,234.292c.485.634.841,1.036,1.126,1.483,3.739,5.87,9.348,8.392,16.04,8.933a34.632,34.632,0,0,0,11.254-1.254c3.084-.773,6.172-1.532,9.238-2.373a47.641,47.641,0,0,0,13.593-6.724c1.369-.908,1.82-3.323,1.079-5.325-.55-1.487-1.655-2.121-3.6-1.892a17.656,17.656,0,0,0-3.162.708c-6.4,1.992-12.764,4.076-19.18,6a63.982,63.982,0,0,1-8.084,1.849,10.033,10.033,0,0,1-5.763-.812c-2.178-.984-3.092-2.463-2.352-4.718a35.876,35.876,0,0,1,3.222-7.411,48.113,48.113,0,0,1,11.605-12.932,19.29,19.29,0,0,1,3.991-2.379,3.967,3.967,0,0,1,4.579.452,4.674,4.674,0,0,1,1.326,4.675,24.64,24.64,0,0,1-3.338,7.13c-.2-1.044-.311-1.682-.448-2.315-.531-2.444-2.017-3.491-4.441-2.864a11.639,11.639,0,0,0-3.462,1.62,42.3,42.3,0,0,0-9.066,8.675c-.8.983-.805,1.666.224,2.394a10.234,10.234,0,0,0,3.256,1.535,16.69,16.69,0,0,0,9.007-.6c5-1.463,9.989-2.975,14.99-4.439,2.4-.7,4.819-1.363,7.238-2.009a13.152,13.152,0,0,1,2.2-.387c2.781-.252,4.378.942,4.367,3.747a25.086,25.086,0,0,1-1,6.57,17.661,17.661,0,0,1-2.4,5.129,12.566,12.566,0,0,1-3.4,3.094,47.379,47.379,0,0,1-19.67,7.2c-3.678.565-7.343,1.353-11.094.927-7.046-.8-12.828-3.685-16.4-10.126-.524-.944-1.055-1.886-1.564-2.838-.048-.09.031-.249.1-.718" transform="translate(-1387.903 -155.933)" fill="#e50019"/>
        <path id="Path_289" data-name="Path 289" d="M215.833,534.986l13.275,7.883c-1.675,4.424-4.507,7.949-6.98,11.875l12.056,7.2a53.749,53.749,0,0,1-7.819,12.41l-13.249-7.873c1.683-4.4,4.4-7.987,7.031-11.824L208.063,547.4a52.819,52.819,0,0,1,7.77-12.418" transform="translate(-156.782 -407.129)" fill="#505050"/>
        <path id="Path_290" data-name="Path 290" d="M7.771,534.986l13.275,7.883c-1.674,4.424-4.507,7.949-6.98,11.875l12.056,7.2a53.74,53.74,0,0,1-7.819,12.41L5.053,566.485c1.683-4.4,4.4-7.987,7.031-11.824L0,547.4a52.828,52.828,0,0,1,7.771-12.418" transform="translate(1.557 -529.986)" fill="#505050"/>
        <path id="Path_292" data-name="Path 292" d="M360.236,760.271c26.421-15.05,54.141-27.5,81.958-40.343-.345.95-.643,1.92-1.043,2.847-2.479,5.746-2.463,5.8-8.2,8.259-18.324,7.864-36.638,15.755-55.021,23.48-5.362,2.253-10.943,3.986-16.427,5.951-.348.125-.716.2-1.075.292l-.191-.486" transform="translate(-271.449 -542.489)" fill="#e50019"/>
        <path id="Path_364" data-name="Path 364" d="M360.236,760.271c26.421-15.05,54.141-27.5,81.958-40.343-.345.95-.643,1.92-1.043,2.847-2.479,5.746-2.463,5.8-8.2,8.259-18.324,7.864-36.638,15.755-55.021,23.48-5.362,2.253-10.943,3.986-16.427,5.951-.348.125-.716.2-1.075.292l-.191-.486" transform="translate(-360.236 -542.489)" fill="#e50019"/>
        <path id="Path_298" data-name="Path 298" d="M1872.833,768.644c.088.356.2.534.155.668a36.825,36.825,0,0,1-5.918,12.048,7.506,7.506,0,0,1-2.3,1.816c-5.625,3.145-11.815,3.434-18.082,3.466,6.393-3.815,13.79-5.477,20.081-9.425q-.074-.266-.148-.532l-19.248,2.808a14.527,14.527,0,0,1,.3-1.979c.25-.779.639-1.512.9-2.287,1.185-3.507,3.182-5.27,7.31-5.256,5.38.019,10.762-.954,16.145-1.486a3.172,3.172,0,0,1,.8.16" transform="translate(-1391.541 -579.076)" fill="#505050"/>
        <path id="Path_299" data-name="Path 299" d="M1021.741,793.514c.088.356.2.534.155.668a36.819,36.819,0,0,1-5.918,12.048,7.506,7.506,0,0,1-2.3,1.816c-5.626,3.145-11.815,3.434-18.082,3.466,6.393-3.815,13.79-5.477,20.081-9.425l-.148-.532-19.248,2.808a14.493,14.493,0,0,1,.3-1.979c.249-.779.639-1.512.9-2.287,1.185-3.507,3.182-5.27,7.31-5.256,5.38.019,10.762-.953,16.145-1.486a3.17,3.17,0,0,1,.8.16" transform="translate(-750.215 -597.816)" fill="#505050"/>
        <path id="Path_354" data-name="Path 354" d="M1021.741,793.514c.088.356.2.534.155.668a36.819,36.819,0,0,1-5.918,12.048,7.506,7.506,0,0,1-2.3,1.816c-5.626,3.145-11.815,3.434-18.082,3.466,6.393-3.815,13.79-5.477,20.081-9.425l-.148-.532-19.248,2.808a14.493,14.493,0,0,1,.3-1.979c.249-.779.639-1.512.9-2.287,1.185-3.507,3.182-5.27,7.31-5.256,5.38.019,10.762-.953,16.145-1.486a3.17,3.17,0,0,1,.8.16" transform="translate(-771.579 -680.287)" fill="#505050"/>
        <path id="Path_355" data-name="Path 355" d="M1021.741,793.514c.088.356.2.534.155.668a36.819,36.819,0,0,1-5.918,12.048,7.506,7.506,0,0,1-2.3,1.816c-5.626,3.145-11.815,3.434-18.082,3.466,6.393-3.815,13.79-5.477,20.081-9.425l-.148-.532-19.248,2.808a14.493,14.493,0,0,1,.3-1.979c.249-.779.639-1.512.9-2.287,1.185-3.507,3.182-5.27,7.31-5.256,5.38.019,10.762-.953,16.145-1.486a3.17,3.17,0,0,1,.8.16" transform="translate(-832.794 -599.837)" fill="#505050"/>
        <path id="Path_300" data-name="Path 300" d="M233.83,793.514c.088.356.2.534.155.668a36.821,36.821,0,0,1-5.918,12.048,7.507,7.507,0,0,1-2.3,1.816c-5.626,3.145-11.815,3.434-18.082,3.466,6.393-3.815,13.79-5.477,20.081-9.425l-.148-.532-19.248,2.808a14.489,14.489,0,0,1,.3-1.979c.249-.779.639-1.512.9-2.287,1.185-3.507,3.182-5.27,7.31-5.256,5.38.019,10.762-.953,16.145-1.486a3.171,3.171,0,0,1,.8.16" transform="translate(-148.476 -597.816)" fill="#505050"/>
        <path id="Path_301" data-name="Path 301" d="M1143.126,73.4c.088.356.2.534.155.668a36.821,36.821,0,0,1-5.918,12.048,7.509,7.509,0,0,1-2.3,1.816c-5.626,3.145-11.815,3.434-18.082,3.466,6.393-3.815,13.79-5.477,20.081-9.425l-.148-.532-19.248,2.808a14.472,14.472,0,0,1,.3-1.979c.249-.779.639-1.512.9-2.287,1.185-3.506,3.182-5.27,7.31-5.256,5.38.019,10.762-.954,16.145-1.486a3.172,3.172,0,0,1,.8.16" transform="translate(-841.683 -68.238)" fill="#505050"/>
        <path id="Path_356" data-name="Path 356" d="M1143.126,73.4c.088.356.2.534.155.668a36.821,36.821,0,0,1-5.918,12.048,7.509,7.509,0,0,1-2.3,1.816c-5.626,3.145-11.815,3.434-18.082,3.466,6.393-3.815,13.79-5.477,20.081-9.425l-.148-.532-19.248,2.808a14.472,14.472,0,0,1,.3-1.979c.249-.779.639-1.512.9-2.287,1.185-3.506,3.182-5.27,7.31-5.256,5.38.019,10.762-.954,16.145-1.486a3.172,3.172,0,0,1,.8.16" transform="translate(-742.365 106.611)" fill="#505050"/>
        <path id="Path_302" data-name="Path 302" d="M628.472,73.4c.088.356.2.534.155.668a36.824,36.824,0,0,1-5.918,12.048,7.507,7.507,0,0,1-2.3,1.816c-5.626,3.145-11.815,3.434-18.082,3.466,6.393-3.815,13.79-5.477,20.081-9.425l-.148-.532-19.248,2.808a14.492,14.492,0,0,1,.3-1.979c.249-.779.639-1.512.9-2.287,1.185-3.506,3.182-5.27,7.31-5.256,5.38.019,10.762-.954,16.145-1.486a3.173,3.173,0,0,1,.8.16" transform="translate(-460.874 -68.238)" fill="#505050"/>
        <path id="Path_303" data-name="Path 303" d="M334.207,248.658c.088.356.2.534.155.668a36.824,36.824,0,0,1-5.918,12.048,7.507,7.507,0,0,1-2.3,1.816c-5.626,3.145-11.815,3.434-18.082,3.466,6.393-3.815,13.79-5.477,20.081-9.425L328,256.7l-19.248,2.808a14.5,14.5,0,0,1,.3-1.979c.249-.779.639-1.512.9-2.287,1.185-3.506,3.182-5.27,7.31-5.256,5.38.019,10.762-.954,16.145-1.486a3.172,3.172,0,0,1,.8.16" transform="translate(-232.431 -192.19)" fill="#505050"/>
        <path id="Path_304" data-name="Path 304" d="M394.525,440.095c.088.356.2.534.155.668a36.825,36.825,0,0,1-5.918,12.048,7.508,7.508,0,0,1-2.3,1.816c-5.626,3.145-11.815,3.434-18.082,3.466,6.393-3.815,13.79-5.477,20.081-9.425l-.148-.532-19.248,2.808a14.5,14.5,0,0,1,.3-1.979c.249-.779.639-1.512.9-2.287,1.185-3.507,3.182-5.27,7.31-5.256,5.38.019,10.762-.954,16.145-1.486a3.172,3.172,0,0,1,.8.16" transform="translate(-277.588 -331.503)" fill="#505050"/>
        <path id="Path_305" data-name="Path 305" d="M31.709,68.4c.088.356.2.534.155.668A36.822,36.822,0,0,1,25.946,81.12a7.507,7.507,0,0,1-2.3,1.816C18.022,86.081,11.833,86.369,5.566,86.4c6.393-3.815,13.79-5.477,20.081-9.425l-.148-.532L6.251,79.252a14.5,14.5,0,0,1,.3-1.979c.249-.779.639-1.512.9-2.287,1.185-3.507,3.182-5.27,7.31-5.256,5.38.019,10.762-.954,16.145-1.486a3.172,3.172,0,0,1,.8.16" transform="translate(-4.009 66.008)" fill="#505050"/>
        <path id="Path_306" data-name="Path 306" d="M438.551,98.225c-1.054,2.44-1.716,4.988-4.6,6.4a30.938,30.938,0,0,0-9.616,7.518,15.028,15.028,0,0,1-5.4,3.775c-4.213,1.853-8.608,1.582-11.85-2.8,3,.707,5.728,1.328,8.539.494a15.752,15.752,0,0,0,7.525-4.18c-1.177,0-2.354.018-3.53,0a7.922,7.922,0,0,1-5.2-1.876,2,2,0,0,1-.744-2.393c1.9-5.062,4.746-9.358,9.83-11.7a9.019,9.019,0,0,1,3.564-.685c2.21-.032,3.207,1.159,2.738,3.3a12.9,12.9,0,0,1-2.563,5.573c-.775-2.6-1.729-3.189-4.316-2.754-2.361.4-3.181.817-5.252,2.743a6.524,6.524,0,0,0,4.357,1.773,16.033,16.033,0,0,0,11.18-2.809c1.542-1.046,3.165-1.97,4.752-2.95l.581.573" transform="translate(-303.145 -87.774)" fill="#505050"/>
        <path id="Path_308" data-name="Path 308" d="M1395.792,107.822c3.488-3.44,7.01-6.847,10.452-10.333,2.248-2.276,4.423-4.628,6.552-7.017,2.7-3.026,2.84-6.551,1.559-10.166a7.744,7.744,0,0,0-11.831-4.12,46.9,46.9,0,0,0-5.4,4.632,11.761,11.761,0,0,1-2.056,1.634,19.969,19.969,0,0,1,4.08-8.833,33.975,33.975,0,0,1,5.42-5c5.763-4.345,12.683-1.549,13.982,5.562a17.426,17.426,0,0,1-.811,8.975c-2.5,7.194-6.221,13.566-12.44,18.233-3.058,2.3-6.093,4.621-9.138,6.933l-.365-.5" transform="translate(-1056.027 -22.051)" fill="#505050"/>
        <path id="Path_309" data-name="Path 309" d="M11.393,756.4c3.027-2.986,6.084-5.943,9.071-8.968,1.951-1.975,3.839-4.016,5.686-6.089,2.339-2.626,2.465-5.686,1.353-8.823a6.721,6.721,0,0,0-10.268-3.576,40.688,40.688,0,0,0-4.688,4.02,10.2,10.2,0,0,1-1.784,1.417,17.331,17.331,0,0,1,3.541-7.666,29.483,29.483,0,0,1,4.7-4.337c5-3.771,11.007-1.345,12.134,4.827a15.124,15.124,0,0,1-.7,7.789c-2.172,6.243-5.4,11.773-10.8,15.823-2.654,1.992-5.288,4.01-7.931,6.017l-.317-.435" transform="translate(-3.691 -554.237)" fill="#505050"/>
        <path id="Path_310" data-name="Path 310" d="M785.988,252.213l-13.308-7.942a51.051,51.051,0,0,1,7.7-12.459l13.288,7.858a54.219,54.219,0,0,1-7.684,12.544" transform="translate(-582.239 -174.678)" fill="#505050"/>
        <path id="Path_311" data-name="Path 311" d="M612.973,244.321a52.506,52.506,0,0,1,7.76-12.432l13.3,7.895a52.673,52.673,0,0,1-7.794,12.469l-13.266-7.931" transform="translate(-466.272 -174.736)" fill="#505050"/>
        <path id="Path_312" data-name="Path 312" d="M1697.7,698.064a52.4,52.4,0,0,1-7.772,12.474l-13.231-7.9a50.973,50.973,0,0,1,7.689-12.476l13.314,7.9" transform="translate(-1263.444 -520.062)" fill="#505050"/>
        <path id="Path_314" data-name="Path 314" d="M2009.375,732.881c-1.161,3.57-2.49,7.091-4.962,10-3.439,4.045-8.029,5.025-12.969,3.988-3.41-.716-5.373-3.328-6.33-6.609a13.321,13.321,0,0,1,.208-8.013,101.017,101.017,0,0,1,4.387-11.464c2.677-5.629,5.715-11.087,8.623-16.6a16.909,16.909,0,0,1,1.207-1.741l.483.226c-.521,1.325-.942,2.7-1.583,3.965q-3.672,7.245-7.469,14.427a19.615,19.615,0,0,0-2.517,10.4c.475,8.126,6.892,11.987,14.66,9.5a6.149,6.149,0,0,0,3.831-3.618c.653-1.564,1.324-3.12,1.987-4.679l.443.226" transform="translate(-1495.456 -529.308)" fill="#505050"/>
        <path id="Path_315" data-name="Path 315" d="M850.779,732.881c-1.161,3.57-2.49,7.091-4.962,10-3.439,4.045-8.029,5.025-12.969,3.988-3.41-.716-5.373-3.328-6.33-6.609a13.32,13.32,0,0,1,.208-8.013,101.029,101.029,0,0,1,4.387-11.464c2.677-5.629,5.715-11.087,8.623-16.6a16.909,16.909,0,0,1,1.206-1.741l.483.226c-.521,1.325-.942,2.7-1.582,3.965q-3.672,7.245-7.468,14.427a19.616,19.616,0,0,0-2.517,10.4c.476,8.126,6.893,11.987,14.661,9.5a6.147,6.147,0,0,0,3.831-3.618c.653-1.564,1.324-3.12,1.987-4.679l.442.226" transform="translate(-622.417 -529.308)" fill="#505050"/>
        <path id="Path_358" data-name="Path 358" d="M433.216,35.235C459.371,21.866,486.742,11.282,513.809,0l.443.363c-.527,1.318-1.1,2.619-1.571,3.956-1.189,3.385-3.382,5.316-6.919,6.561-18.119,6.379-36.1,13.147-54.2,19.6-5.712,2.036-11.627,3.5-17.453,5.219a2.606,2.606,0,0,1-.707.008l-.189-.469" transform="translate(-11.6 4.999)" fill="#e50019"/>
        <path id="Path_359" data-name="Path 359" d="M433.216,35.235C459.371,21.866,486.742,11.282,513.809,0l.443.363c-.527,1.318-1.1,2.619-1.571,3.956-1.189,3.385-3.382,5.316-6.919,6.561-18.119,6.379-36.1,13.147-54.2,19.6-5.712,2.036-11.627,3.5-17.453,5.219a2.606,2.606,0,0,1-.707.008l-.189-.469" transform="translate(-60.6 4.999)" fill="#e50019"/>
        <path id="Path_360" data-name="Path 360" d="M433.216,35.235C459.371,21.866,486.742,11.282,513.809,0l.443.363c-.527,1.318-1.1,2.619-1.571,3.956-1.189,3.385-3.382,5.316-6.919,6.561-18.119,6.379-36.1,13.147-54.2,19.6-5.712,2.036-11.627,3.5-17.453,5.219a2.606,2.606,0,0,1-.707.008l-.189-.469" transform="translate(-108.6 4.999)" fill="#e50019"/>
        <path id="Path_362" data-name="Path 362" d="M433.216,35.235C459.371,21.866,486.742,11.282,513.809,0l.443.363c-.527,1.318-1.1,2.619-1.571,3.956-1.189,3.385-3.382,5.316-6.919,6.561-18.119,6.379-36.1,13.147-54.2,19.6-5.712,2.036-11.627,3.5-17.453,5.219a2.606,2.606,0,0,1-.707.008l-.189-.469" transform="translate(-271.608 4.999)" fill="#e50019"/>
        <path id="Path_363" data-name="Path 363" d="M433.216,35.235C459.371,21.866,486.742,11.282,513.809,0l.443.363c-.527,1.318-1.1,2.619-1.571,3.956-1.189,3.385-3.382,5.316-6.919,6.561-18.119,6.379-36.1,13.147-54.2,19.6-5.712,2.036-11.627,3.5-17.453,5.219a2.606,2.606,0,0,1-.707.008l-.189-.469" transform="translate(-405.538 4.999)" fill="#e50019"/>
        <path id="Path_361" data-name="Path 361" d="M433.216,35.235C459.371,21.866,486.742,11.282,513.809,0l.443.363c-.527,1.318-1.1,2.619-1.571,3.956-1.189,3.385-3.382,5.316-6.919,6.561-18.119,6.379-36.1,13.147-54.2,19.6-5.712,2.036-11.627,3.5-17.453,5.219a2.606,2.606,0,0,1-.707.008l-.189-.469" transform="translate(-161.787 182.216)" fill="#e50019"/>
      </g>
    </g>
    <g id="Group_53" data-name="Group 53" transform="translate(1026.616 121)">
      <g id="Group_52" data-name="Group 52" transform="translate(0)" clip-path="url(#clip-path-2)">
        <path id="Path_316" data-name="Path 316" d="M1272.219,266.306c.393.594.742,1.224,1.187,1.776a72.159,72.159,0,0,0,14.242,13.518,48.582,48.582,0,0,0,14.827,7.024,99.507,99.507,0,0,0,11.254,2.523c5.873.987,11.574-.177,17.2-1.848,9.335-2.771,16.309-8.9,22.643-15.915,2.306-2.556,4.581-5.157,5.608-8.575,1.418-4.715,2.584-9.459,2.055-14.653a13.485,13.485,0,0,0-1.893.109c-5.45,1.085-10.193-.7-14.6-3.666a11.961,11.961,0,0,1-4.443-5.782,19.459,19.459,0,0,1-1.341-9.614,49.369,49.369,0,0,1,3.949-13.619c1.751-3.961,3.492-7.926,5.275-11.873a28.639,28.639,0,0,1,1.476-2.519c.488.582.834.978,1.162,1.389,3.581,4.479,7.085,9.023,10.761,13.422a23.9,23.9,0,0,1,5.521,13.4c.189,1.947.555,3.876.87,6.02a19.425,19.425,0,0,0,6.336-2.189,107.493,107.493,0,0,0,16.028-10.487,22.7,22.7,0,0,1,3.638-2.5,13.288,13.288,0,0,0,5.58-4.95c1.324-2.069,2.832-4.024,4.32-5.982,4.69-6.169,10.31-11.235,17.49-14.359,1.7-.742,3.521-1.223,5.537-1.911a7.282,7.282,0,0,0-.978-1.064q-7.359-5.136-14.745-10.235a40.66,40.66,0,0,1-12.935-13.61,22.116,22.116,0,0,1-2.622-11.828c.32-8.747,4.065-16.266,8.149-23.683a36.243,36.243,0,0,1,9.186-11.434,27.142,27.142,0,0,1,2.791-2.005,8.417,8.417,0,0,1,6.781-1.158l-.8,6.245.516.255c.407-.608.8-1.222,1.222-1.821,2.147-3.079,4.354-3.7,7.862-2.311,6.868,2.712,10.174,8.066,11.5,15.054a22.7,22.7,0,0,1-.953,10.665,52.184,52.184,0,0,1-6.094,13.383c-1.611,2.558-2.508,2.947-5.268,1.895-7.2-2.744-11.561-8.128-13.721-15.34a24.577,24.577,0,0,1-.8-12.869,5.891,5.891,0,0,0,.089-1.226c.029-1.429-.442-2.009-1.86-1.864a8.593,8.593,0,0,0-3.029.9,24.453,24.453,0,0,0-8.236,7.27,7,7,0,0,0-1.12,2.959,23.026,23.026,0,0,0,4.9,18.661,53.232,53.232,0,0,0,12.416,11.092q10.171,6.915,20.307,13.883c5.8,4,11.673,7.918,17.323,12.126,4.869,3.626,9.459,7.617,12.851,12.778a27.617,27.617,0,0,1,4.324,21.766,49.505,49.505,0,0,1-6.12,14.64c-.07.12-.261.17-.661.415.422-2.2.844-4.2,1.18-6.214.918-5.492-.452-10.63-2.9-15.434-2.843-5.571-7.186-9.928-12.152-13.683-2.747-2.076-5.426-4.223-8.834-5.2a45.278,45.278,0,0,0-17.006-1.671,37.781,37.781,0,0,0-24.037,11.6,1.836,1.836,0,0,0-.232.4c.088.123.168.344.258.348,6.849.289,10.877,4.408,13.462,10.208a19.911,19.911,0,0,1,1.531,11.047,14.085,14.085,0,0,1-1.086,4c-1.966,4.136-4,8.244-6.169,12.276-1.186,2.2-1.981,2.425-4.181,1.207-4.3-2.383-8.655-4.76-12.022-8.459a15.408,15.408,0,0,1-3.866-14.343c.081-.376.157-.753.276-1.322a7.454,7.454,0,0,0-3.834,1.789c-3.957,2.781-7.847,5.659-11.856,8.362-2.235,1.507-4.633,2.781-7,4.077a3.476,3.476,0,0,0-1.835,2.082c-1.825,5.162-3.616,10.351-5.795,15.368a67.121,67.121,0,0,1-9.3,15.309,64.491,64.491,0,0,1-16.368,14.766,38.354,38.354,0,0,1-12.132,4.522c-10.183,2.243-19.422-.573-28.384-5.222-7.391-3.834-12.768-9.657-17.139-16.545-1.843-2.9-3.514-5.92-5.231-8.9a22.109,22.109,0,0,1-.957-2.134l.649-.516m73.244-48.253c-2.727,9.212,4.241,19.583,14.413,19.59a7.272,7.272,0,0,0-.555-1.624c-1.445-2.266-2.823-4.592-4.459-6.716-2.737-3.556-5.65-6.977-8.5-10.449a9.124,9.124,0,0,0-.9-.8m77.115-83.819c.693,7.235,8.3,16.04,14.333,16.756-.456-8.62-6.526-16.158-14.333-16.756m-11.021,110c.011-6.254-8.3-14.327-13.64-12.707.917,4.738,6.919,9.415,13.64,12.707" transform="translate(-958.169 -90.23)" fill="#505050"/>
        <path id="Path_317" data-name="Path 317" d="M1170.317,396.933c-.577,3.751-2.391,6.432-3.706,9.323a9.1,9.1,0,0,1-4.326,4.408c-2.869,1.546-5.408,3.694-8.125,5.53-4.614,3.117-9.326,6.094-13.869,9.31-4.347,3.077-8.488,6.443-12.8,9.573a33.725,33.725,0,0,1-13.491,6.3,23.009,23.009,0,0,1-17.749-3.9c-5.729-3.922-9.116-9.477-11.5-15.839a44.636,44.636,0,0,1-2.807-15.866c0-5.663-.117-11.328-.307-16.989a8.632,8.632,0,0,0-2.4-5.784,7.359,7.359,0,0,0-4.768-2.238c-4.732-.505-8.65,1.269-12.281,4.027a7.967,7.967,0,0,0-3.442,5.71c-.647,6.6-.052,12.94,3.69,18.674a57.917,57.917,0,0,0,7.487,9.107c6.3,6.347,12.646,12.647,18.843,19.093,3.748,3.9,7.409,7.926,9.9,12.8a25.036,25.036,0,0,1,2.9,15.165c-.888,6.473-3.54,12.214-6.617,17.833a8.047,8.047,0,0,1-.976,1.051c.189-1.005.239-1.552.4-2.066,2.25-7.352,1.676-14.283-2.363-21.026-3.6-6.008-8.54-10.775-13.32-15.718-5.873-6.072-11.926-11.973-17.7-18.134a30.809,30.809,0,0,1-7.564-12.805,26.313,26.313,0,0,1-.919-10.679c.927-6.932,3.517-13.243,6.539-19.447a45.82,45.82,0,0,1,5.1-8.393,19.973,19.973,0,0,1,10.872-7.207,12.425,12.425,0,0,1,7.5.254,7.05,7.05,0,0,1,4.379,4.662,28.786,28.786,0,0,1,1.126,8.492c.132,5.172.2,10.346.251,15.519.063,6.14,2.217,11.687,4.8,17.11a25.7,25.7,0,0,0,11.012,11.609c5.84,3.228,12.019,4.132,18.445,1.763,1.676-.618,3.326-1.31,5.2-2.053-1.009-1.079-2.129-.974-3.076-1.3-3.01-1.031-6.161-1.786-8.985-3.193a14.279,14.279,0,0,1-7.573-8.336,8.01,8.01,0,0,1-.23-3.139,33.147,33.147,0,0,1,3.445-11.435,44.14,44.14,0,0,1,9.478-13.629c3.768-3.5,8.165-4.37,13-3.3,2.466.544,4.833,1.529,7.259,2.265,1.8.544,3.6,1.1,5.434,1.486,4.544.949,7.774-.517,10.169-4.478a3.157,3.157,0,0,1,1.445-1.417,27.239,27.239,0,0,1-1.258,3.726c-1.722,3.44-3.421,6.907-5.4,10.2a9.354,9.354,0,0,1-10.408,4.332,74.638,74.638,0,0,1-8.014-2.3,26.379,26.379,0,0,0-8.832-1.845c-4,.04-7.037,1.83-9.715,4.555a2.571,2.571,0,0,0-.47,2.952c.94,2.65,2.873,4.54,4.874,6.368,2.575,2.353,5.905,3.13,9.069,4.232,7.247,2.523,14.006,1.229,20.49-2.566,6.508-3.809,13.073-7.522,19.62-11.264.621-.355,1.294-.618,2.272-1.079" transform="translate(-792.942 -277.519)" fill="#505050"/>
        <path id="Path_318" data-name="Path 318" d="M354.356,464.02c1.933,1.342,3.875,2.671,5.8,4.028a87.682,87.682,0,0,0,16.67,9.429,36.537,36.537,0,0,0,11.228,2.56,53.667,53.667,0,0,0,21.176-2.01,39.236,39.236,0,0,0,21.059-16.112,54.75,54.75,0,0,0,8.191-19.069c.393-1.832.529-3.718.82-5.846-.789-.072-1.48-.18-2.172-.191-8.969-.147-15.861-4.053-20.876-11.437a14.448,14.448,0,0,1-2.358-9.816c.422-4.63,1.963-8.962,3.527-13.252,1.622-4.447,3.661-8.742,5.566-13.082a23.259,23.259,0,0,1,1.72-2.674,10.139,10.139,0,0,0,2.768,5.941c3.479,4.15,7.006,8.26,10.481,12.413,3.774,4.512,6.967,9.333,7.806,15.342.169,1.207.274,2.423.43,3.829a16.87,16.87,0,0,0,6.522-1.764,103.658,103.658,0,0,0,19.963-12.01c2.424-1.818,4.8-3.7,7.211-5.536a14,14,0,0,1,1.58-.862,11.921,11.921,0,0,1,.6,2.105c.684,8.174,4.6,14.563,10.906,19.565,3.224,2.557,7.214,3.406,11.066,4.531a17.013,17.013,0,0,0,6.946.839,10.8,10.8,0,0,0-2.585-6.467,26.73,26.73,0,0,0-7.013-5.738,119.989,119.989,0,0,1-12.054-8.052,10.187,10.187,0,0,1-3.234-10.86,57.821,57.821,0,0,1,10.346-19.93c.5-.639,1.118-1.188,1.871-1.978.564.584,1.083,1.058,1.529,1.593,4.62,5.55,9.2,11.133,13.847,16.66,4.4,5.235,6.794,11.168,6.414,18.071a44.846,44.846,0,0,1-2.66,11.7,74.774,74.774,0,0,1-6.638,14.772c-1.09,1.823-2.5,2.825-4.568,2.674a64.9,64.9,0,0,1-7.286-.858,41.359,41.359,0,0,1-6.135-1.732c-7.569-2.689-12.243-8.3-15.077-15.545a52.554,52.554,0,0,1-1.724-7.128c-.11-.469-.243-.932-.46-1.759-.892.755-1.575,1.406-2.328,1.96-8.257,6.078-16.518,12.152-25.972,16.327a6.42,6.42,0,0,1-1.589.646c-2.02.28-2.714,1.658-3.241,3.408a121.72,121.72,0,0,1-14.238,30.384,49.68,49.68,0,0,1-9.559,11.483,34.274,34.274,0,0,1-14.162,7.1,43.222,43.222,0,0,1-24.716-1.132,37.558,37.558,0,0,1-14.454-9.544c-3.637-3.663-7-7.6-10.468-11.43a10.7,10.7,0,0,1-.822-1.186l.344-.353m82.255-40.45c-4.716-7.671-11.415-13.182-16.343-20.716-.724,4.019-.2,7.256,1.746,10.123,3.476,5.126,7.909,9.032,14.6,10.593m56.182-33.064c-1.372,1.839-1.379,3.4.21,5.462,2.739,3.558,6.529,5.765,10.567,7.655l-10.778-13.117" transform="translate(-266.76 -284.771)" fill="#505050"/>
        <path id="Path_319" data-name="Path 319" d="M148.954,314.34v13.084c-3.464,1.982-6.727,3.679-9.815,5.65-6.883,4.392-12.836,9.922-18.665,15.6q-9.347,9.1-18.774,18.117a77.947,77.947,0,0,1-20.439,13.533c-6.812,3.273-13.83,6-21.358,7.164-5.438.844-10.828,1.383-16.39.573a55.756,55.756,0,0,1-21.256-7.134,42.874,42.874,0,0,1-11.47-10.3,53.064,53.064,0,0,1-8.281-15.009A46.1,46.1,0,0,1,.129,342.855,48.253,48.253,0,0,1,3.572,320.46c3.673-8.579,8.776-16.149,16.021-22.1,7.036-5.782,14.949-9.807,24.125-10.818a32.138,32.138,0,0,1,11.739.751,3.134,3.134,0,0,1,1.225.69,38.763,38.763,0,0,0-18.525,4.247,72.911,72.911,0,0,0-10.3,6.2,68.359,68.359,0,0,0-15.439,15.416,64.748,64.748,0,0,0-10.5,20.979,12.748,12.748,0,0,0,.106,7.024A49.136,49.136,0,0,0,14.776,364.41a40.869,40.869,0,0,0,13.979,9,55.641,55.641,0,0,0,27.523,3.28,72.172,72.172,0,0,0,22.213-6.755c6.474-3.031,12.82-6.339,18.3-10.992,3.617-3.074,7-6.435,10.4-9.745,8.236-8,16.292-16.191,24.7-24.007a57.42,57.42,0,0,1,13.917-9.63c.856-.417,1.779-.7,3.15-1.225" transform="translate(0 -216.503)" fill="#505050"/>
        <path id="Path_320" data-name="Path 320" d="M402.764,187.064a30.619,30.619,0,0,1,1.023-2.918c3.785-8.164,4.409-16.7,3.164-25.5-.31-2.186-.452-4.4-.639-6.6a84.482,84.482,0,0,0-4.523-19.553c-2.176-6.516-4.545-12.981-7.146-19.339-5.394-13.184-11.125-26.231-16.454-39.44a144.113,144.113,0,0,1-5.478-16.781,25.987,25.987,0,0,1,1.907-19.125c1.029-2,2.1-3.971,3.145-5.956l.5.152a6.881,6.881,0,0,1,.128,1.577c-.927,6.266.463,12.219,2.393,18.1,3.5,10.675,8.178,20.873,12.582,31.185,5.817,13.622,11.721,27.217,15.878,41.476a100.248,100.248,0,0,1,3.707,19.5c.4,4.593.608,9.162.58,13.756a41.637,41.637,0,0,1-3.409,15.489c-1.85,4.539-4.134,8.9-6.238,13.338a5.224,5.224,0,0,1-.549.769l-.569-.132" transform="translate(-280.101 -24.004)" fill="#505050"/>
        <path id="Path_321" data-name="Path 321" d="M203.311,211.223l6.578-9.8,13.514,8a56.06,56.06,0,0,1-7.736,12.441l-12.007-7.032c-2.363,3.228-3.943,6.8-6.828,9.658L183.559,216.6a56.434,56.434,0,0,1,7.807-12.385l11.945,7.009" transform="translate(-138.318 -151.782)" fill="#505050"/>
        <path id="Path_322" data-name="Path 322" d="M1059.369,201.385l13.494,8.015a54.487,54.487,0,0,1-7.75,12.442l-12.012-7.074c-2.269,3.266-3.947,6.767-6.777,9.7l-13.251-7.876a53.387,53.387,0,0,1,7.752-12.42l11.951,7.024,6.594-9.813" transform="translate(-778.453 -151.75)" fill="#505050"/>
        <path id="Path_323" data-name="Path 323" d="M876.891,221.65l-11.889-7-6.6,9.808-13.466-7.986a49.461,49.461,0,0,1,7.747-12.433l12.064,7.077a62.9,62.9,0,0,1,6.657-9.758l13.334,7.915a53.058,53.058,0,0,1-7.851,12.379" transform="translate(-636.689 -151.728)" fill="#505050"/>
        <path id="Path_324" data-name="Path 324" d="M123.215,390.091c.053-1.912.967-3.494,1.626-5.13a8.817,8.817,0,0,0,.024-6.713,8.347,8.347,0,0,0-5.9-5.452c-1.023-.267-2.052-.508-3.33-.823a23.56,23.56,0,0,1,3.762-8.228c.253-.364,1.176-.463,1.743-.379a10.077,10.077,0,0,1,8.629,11.929,6.532,6.532,0,0,0-.111,2.41c.311-.387.626-.771.932-1.162a157.227,157.227,0,0,1,20.034-21.32,55.69,55.69,0,0,1,7.543-5.494,18.15,18.15,0,0,1,10.575-2.713c4.956.239,7.7,2.826,8.192,7.741a25.972,25.972,0,0,1-1.646,11.353,49.1,49.1,0,0,1-11.315,17.987,5.369,5.369,0,0,1-1.141.494c.679-.9,1.042-1.371,1.393-1.85,2.42-3.3,4.966-6.525,7.217-9.94a20.651,20.651,0,0,0,3.046-9.524,15.179,15.179,0,0,0,.043-2.213c-.276-5.514-3.171-8.207-8.727-8.014a17.7,17.7,0,0,0-8.91,2.532,57.859,57.859,0,0,0-8.336,6.057c-8.98,8.218-17.288,17.062-24.027,27.272a8.156,8.156,0,0,1-.748.966c-.094.1-.289.116-.567.217" transform="translate(-87.135 -261.468)" fill="#e50019"/>
        <path id="Path_325" data-name="Path 325" d="M1655.255,35.235c26.155-13.369,53.526-23.953,80.593-35.234l.443.363c-.527,1.318-1.1,2.619-1.571,3.956-1.189,3.385-3.382,5.316-6.918,6.561-18.12,6.379-36.1,13.147-54.2,19.6-5.712,2.036-11.627,3.5-17.453,5.219a2.606,2.606,0,0,1-.707.008l-.189-.469" transform="translate(-1226.058 -0.001)" fill="#e50019"/>
        <path id="Path_326" data-name="Path 326" d="M1194.516,35.235C1220.67,21.866,1248.042,11.282,1275.109,0l.443.363c-.527,1.318-1.1,2.619-1.571,3.956-1.189,3.385-3.382,5.316-6.918,6.561-18.119,6.379-36.1,13.147-54.2,19.6-5.712,2.036-11.627,3.5-17.453,5.219a2.607,2.607,0,0,1-.708.008l-.188-.469" transform="translate(-890.295 -0.001)" fill="#e50019"/>
        <path id="Path_327" data-name="Path 327" d="M842.04,35.235C868.195,21.866,895.566,11.282,922.633,0l.443.363c-.527,1.318-1.1,2.619-1.571,3.956-1.189,3.385-3.382,5.316-6.918,6.561-18.12,6.379-36.1,13.147-54.2,19.6-5.712,2.036-11.627,3.5-17.453,5.219a2.606,2.606,0,0,1-.707.008l-.188-.469" transform="translate(-634.505 -0.001)" fill="#e50019"/>
        <path id="Path_328" data-name="Path 328" d="M637.628,35.235C663.783,21.866,691.154,11.282,718.221,0l.443.363c-.527,1.318-1.1,2.619-1.571,3.956-1.189,3.385-3.382,5.316-6.919,6.561-18.119,6.379-36.1,13.147-54.2,19.6-5.712,2.036-11.627,3.5-17.453,5.219a2.606,2.606,0,0,1-.707.008l-.189-.469" transform="translate(-480.473 -0.001)" fill="#e50019"/>
        <path id="Path_329" data-name="Path 329" d="M433.216,35.235C459.371,21.866,486.742,11.282,513.809,0l.443.363c-.527,1.318-1.1,2.619-1.571,3.956-1.189,3.385-3.382,5.316-6.919,6.561-18.119,6.379-36.1,13.147-54.2,19.6-5.712,2.036-11.627,3.5-17.453,5.219a2.606,2.606,0,0,1-.707.008l-.189-.469" transform="translate(-326.442 -0.001)" fill="#e50019"/>
        <path id="Path_352" data-name="Path 352" d="M433.216,35.235C459.371,21.866,486.742,11.282,513.809,0l.443.363c-.527,1.318-1.1,2.619-1.571,3.956-1.189,3.385-3.382,5.316-6.919,6.561-18.119,6.379-36.1,13.147-54.2,19.6-5.712,2.036-11.627,3.5-17.453,5.219a2.606,2.606,0,0,1-.707.008l-.189-.469" transform="translate(-429.166 173.6)" fill="#e50019"/>
        <path id="Path_330" data-name="Path 330" d="M1606.078,232.723c-1.29-.127-2.6-.165-3.866-.4a19.449,19.449,0,0,1-4.931-1.254,5.5,5.5,0,0,1-3.1-6.781,27.018,27.018,0,0,1,4.469-9.514,11.5,11.5,0,0,1,2.676-2.506,4.45,4.45,0,0,1,6.544.872c3.758,4.52,4.839,9.327,2.445,15.063a32.739,32.739,0,0,1-15.521,17.1c-5.743,2.985-11.568,5.812-17.363,8.7a1.055,1.055,0,0,1-1.021-.114c.562-.424,1.1-.876,1.688-1.269,6.19-4.17,12.444-8.248,18.557-12.528,2.942-2.06,5.618-4.5,8.423-6.758a8.683,8.683,0,0,1,1-.608c.088-1.349,2.166-1.8,1.553-3.657-.9,1.176-1.753,2.182-1.556,3.663m-.785-9.678c-2.043-3.332-3.358-3.95-6.282-2.969a7,7,0,0,0,6.282,2.969" transform="translate(-1170.292 -211.212)" fill="#e50019"/>
        <path id="Path_350" data-name="Path 350" d="M1606.078,232.723c-1.29-.127-2.6-.165-3.866-.4a19.449,19.449,0,0,1-4.931-1.254,5.5,5.5,0,0,1-3.1-6.781,27.018,27.018,0,0,1,4.469-9.514,11.5,11.5,0,0,1,2.676-2.506,4.45,4.45,0,0,1,6.544.872c3.758,4.52,4.839,9.327,2.445,15.063a32.739,32.739,0,0,1-15.521,17.1c-5.743,2.985-11.568,5.812-17.363,8.7a1.055,1.055,0,0,1-1.021-.114c.562-.424,1.1-.876,1.688-1.269,6.19-4.17,12.444-8.248,18.557-12.528,2.942-2.06,5.618-4.5,8.423-6.758a8.683,8.683,0,0,1,1-.608c.088-1.349,2.166-1.8,1.553-3.657-.9,1.176-1.753,2.182-1.556,3.663m-.785-9.678c-2.043-3.332-3.358-3.95-6.282-2.969a7,7,0,0,0,6.282,2.969" transform="translate(-1301.901 -211.212)" fill="#e50019"/>
        <path id="Path_331" data-name="Path 331" d="M1401.9,186.26c.361-1.151.638-2.336,1.1-3.444.95-2.271,2.068-4.473,2.984-6.756a24.748,24.748,0,0,0,1.534-4.908c.734-4.227-.426-5.941-4.51-7a29.2,29.2,0,0,1,3.319-7.606,1.986,1.986,0,0,1,2.511-.964,3.525,3.525,0,0,1,2.739,2.58,11.749,11.749,0,0,1,.389,4.822c-.673,3.108-1.8,6.12-2.757,9.164a5.741,5.741,0,0,0-.482,2.258c.634-.754,1.282-1.5,1.9-2.263,4.183-5.168,8.279-10.411,13.139-14.986a54.107,54.107,0,0,1,10.957-8.314,16.842,16.842,0,0,1,6.947-2.335c3.752-.257,6.279,1.61,6.545,5.389a22.434,22.434,0,0,1-.664,7.277c-2.307,8.571-6.586,16.233-11.457,23.583-.081.123-.265.177-.756.491.37-.783.544-1.272.812-1.7,3.034-4.882,6.1-9.758,7.963-15.237a37.015,37.015,0,0,0,1.556-6.436,9.59,9.59,0,0,0-.354-3.87,4.6,4.6,0,0,0-4.543-3.487,13.4,13.4,0,0,0-7.042,1.907,52.806,52.806,0,0,0-11.582,8.7c-5.225,4.914-9.58,10.583-14.024,16.175-1.481,1.864-2.936,3.749-4.421,5.61-.437.548-.938,1.046-1.409,1.566l-.4-.215" transform="translate(-1056.377 -110.382)" fill="#e50019"/>
        <path id="Path_332" data-name="Path 332" d="M1931.5,604.018l-13.051-7.824c1.116-3.658,5.352-10.412,7.77-12.414l13.066,7.752a51.165,51.165,0,0,1-7.785,12.486" transform="translate(-1445.613 -439.897)" fill="#505050"/>
        <path id="Path_333" data-name="Path 333" d="M708.176,219.372a53.619,53.619,0,0,1,7.727-12.426l13.284,7.856a47.148,47.148,0,0,1-7.8,12.488l-13.216-7.919" transform="translate(-533.634 -155.941)" fill="#505050"/>
        <path id="Path_334" data-name="Path 334" d="M30.578,29.575c.1.417.228.625.181.781a43.074,43.074,0,0,1-6.922,14.093,8.78,8.78,0,0,1-2.688,2.124C14.569,50.251,7.33,50.588,0,50.626,7.478,46.164,16.13,44.22,23.488,39.6l-.174-.622L.8,42.263a16.973,16.973,0,0,1,.352-2.315c.292-.911.748-1.768,1.054-2.675,1.386-4.1,3.722-6.164,8.55-6.147,6.292.022,12.588-1.116,18.884-1.739a3.715,3.715,0,0,1,.936.187" transform="translate(0 -22.142)" fill="#505050"/>
        <path id="Path_335" data-name="Path 335" d="M1598.011,29.575c.1.417.229.625.182.781a43.079,43.079,0,0,1-6.922,14.093,8.787,8.787,0,0,1-2.688,2.124c-6.58,3.679-13.819,4.016-21.149,4.054,7.478-4.462,16.13-6.406,23.488-11.025l-.174-.622-22.513,3.285a16.97,16.97,0,0,1,.352-2.315c.292-.911.748-1.768,1.054-2.675,1.386-4.1,3.722-6.164,8.55-6.147,6.292.022,12.588-1.116,18.884-1.739a3.712,3.712,0,0,1,.936.187" transform="translate(-1181.112 -22.142)" fill="#505050"/>
        <path id="Path_336" data-name="Path 336" d="M30.578,763.316c.1.416.228.625.181.781a43.073,43.073,0,0,1-6.922,14.093,8.778,8.778,0,0,1-2.688,2.124C14.569,783.992,7.33,784.329,0,784.367c7.478-4.462,16.13-6.406,23.488-11.025l-.174-.622L.8,776a16.973,16.973,0,0,1,.352-2.315c.292-.911.748-1.768,1.054-2.675,1.386-4.1,3.722-6.164,8.55-6.147,6.292.022,12.588-1.115,18.884-1.739a3.712,3.712,0,0,1,.936.187" transform="translate(0 -588.384)" fill="#505050"/>
        <path id="Path_337" data-name="Path 337" d="M557.042,244.416c.1.417.229.625.181.781a43.079,43.079,0,0,1-6.922,14.093,8.782,8.782,0,0,1-2.688,2.124c-6.58,3.679-13.819,4.016-21.149,4.054,7.478-4.462,16.13-6.406,23.488-11.025l-.174-.622L527.265,257.1a16.992,16.992,0,0,1,.352-2.315c.292-.911.748-1.768,1.054-2.675,1.386-4.1,3.722-6.164,8.55-6.147,6.292.022,12.588-1.116,18.884-1.739a3.714,3.714,0,0,1,.936.187" transform="translate(-396.708 -184.032)" fill="#505050"/>
        <path id="Path_338" data-name="Path 338" d="M1259.873,265.735c.1.417.228.625.181.781a43.079,43.079,0,0,1-6.922,14.092,8.782,8.782,0,0,1-2.688,2.124c-6.58,3.679-13.819,4.016-21.149,4.054,7.478-4.462,16.13-6.406,23.488-11.025l-.174-.622-22.513,3.285a16.97,16.97,0,0,1,.352-2.315c.292-.911.748-1.768,1.054-2.675,1.386-4.1,3.723-6.164,8.551-6.147,6.292.022,12.588-1.116,18.884-1.739a3.714,3.714,0,0,1,.936.187" transform="translate(-926.314 -200.096)" fill="#505050"/>
        <path id="Path_339" data-name="Path 339" d="M1431.058,666.081c.1.417.228.625.181.781a43.074,43.074,0,0,1-6.922,14.092,8.785,8.785,0,0,1-2.688,2.124c-6.58,3.679-13.819,4.016-21.15,4.054,7.478-4.462,16.13-6.406,23.488-11.025l-.173-.622-22.513,3.285a17.015,17.015,0,0,1,.352-2.315c.292-.911.748-1.768,1.054-2.675,1.386-4.1,3.722-6.164,8.55-6.147,6.292.022,12.588-1.115,18.884-1.739a3.714,3.714,0,0,1,.936.187" transform="translate(-1055.307 -501.77)" fill="#505050"/>
        <path id="Path_340" data-name="Path 340" d="M1678.355,386.1c.1.417.229.625.181.781a43.069,43.069,0,0,1-6.922,14.092,8.779,8.779,0,0,1-2.688,2.124c-6.58,3.679-13.819,4.016-21.149,4.054,7.478-4.462,16.13-6.406,23.488-11.025l-.173-.622-22.513,3.285a16.947,16.947,0,0,1,.352-2.315c.292-.911.748-1.768,1.054-2.675,1.386-4.1,3.722-6.164,8.551-6.147,6.292.022,12.588-1.116,18.884-1.739a3.715,3.715,0,0,1,.936.187" transform="translate(-1241.653 -290.792)" fill="#505050"/>
        <path id="Path_341" data-name="Path 341" d="M770.179,763.316c.1.416.229.625.181.781a43.072,43.072,0,0,1-6.922,14.093,8.779,8.779,0,0,1-2.688,2.124c-6.58,3.679-13.819,4.016-21.149,4.054,7.478-4.462,16.13-6.406,23.488-11.025l-.174-.622L740.4,776a16.963,16.963,0,0,1,.352-2.315c.292-.911.748-1.768,1.054-2.675,1.386-4.1,3.722-6.164,8.55-6.147,6.292.022,12.588-1.115,18.884-1.739a3.712,3.712,0,0,1,.936.187" transform="translate(-557.313 -575.04)" fill="#505050"/>
        <path id="Path_342" data-name="Path 342" d="M1954.419,746.472c.1.417.229.625.181.781a43.076,43.076,0,0,1-6.922,14.092,8.781,8.781,0,0,1-2.688,2.124c-6.58,3.679-13.819,4.016-21.149,4.054,7.478-4.462,16.13-6.406,23.488-11.025l-.174-.622-22.513,3.285a16.972,16.972,0,0,1,.352-2.315c.292-.911.748-1.768,1.054-2.675,1.386-4.1,3.722-6.164,8.551-6.147,6.292.022,12.588-1.116,18.884-1.739a3.716,3.716,0,0,1,.936.187" transform="translate(-1449.677 -562.348)" fill="#505050"/>
        <path id="Path_343" data-name="Path 343" d="M172.759,71c3.488-3.44,7.01-6.847,10.452-10.333,2.248-2.276,4.423-4.628,6.551-7.017,2.7-3.026,2.84-6.551,1.559-10.166a7.745,7.745,0,0,0-11.832-4.12,46.9,46.9,0,0,0-5.4,4.632,11.754,11.754,0,0,1-2.056,1.634,19.97,19.97,0,0,1,4.08-8.833,33.974,33.974,0,0,1,5.42-5c5.763-4.345,12.683-1.549,13.982,5.562a17.428,17.428,0,0,1-.811,8.975c-2.5,7.194-6.221,13.566-12.44,18.233-3.058,2.3-6.093,4.621-9.138,6.933l-.365-.5" transform="translate(-129.632 -22.398)" fill="#505050"/>
        <path id="Path_344" data-name="Path 344" d="M1989.088,76.271c3.488-3.44,7.01-6.847,10.452-10.333,2.248-2.276,4.423-4.628,6.552-7.017,2.7-3.026,2.84-6.551,1.559-10.166a7.745,7.745,0,0,0-11.832-4.12,46.912,46.912,0,0,0-5.4,4.632,11.749,11.749,0,0,1-2.056,1.634,19.971,19.971,0,0,1,4.08-8.833,33.97,33.97,0,0,1,5.42-5c5.763-4.345,12.683-1.549,13.982,5.562a17.43,17.43,0,0,1-.811,8.975c-2.5,7.194-6.221,13.566-12.44,18.233-3.058,2.3-6.093,4.621-9.138,6.933l-.365-.5" transform="translate(-1498.812 0.213)" fill="#505050"/>
        <path id="Path_351" data-name="Path 351" d="M1989.088,76.271c3.488-3.44,7.01-6.847,10.452-10.333,2.248-2.276,4.423-4.628,6.552-7.017,2.7-3.026,2.84-6.551,1.559-10.166a7.745,7.745,0,0,0-11.832-4.12,46.912,46.912,0,0,0-5.4,4.632,11.749,11.749,0,0,1-2.056,1.634,19.971,19.971,0,0,1,4.08-8.833,33.97,33.97,0,0,1,5.42-5c5.763-4.345,12.683-1.549,13.982,5.562a17.43,17.43,0,0,1-.811,8.975c-2.5,7.194-6.221,13.566-12.44,18.233-3.058,2.3-6.093,4.621-9.138,6.933l-.365-.5" transform="translate(-1587.894 9.917)" fill="#505050"/>
        <path id="Path_345" data-name="Path 345" d="M1026.81,702.654c-1.161,3.57-2.49,7.091-4.962,10-3.439,4.045-8.029,5.025-12.969,3.988-3.41-.716-5.373-3.328-6.33-6.609a13.318,13.318,0,0,1,.208-8.013,100.986,100.986,0,0,1,4.387-11.464c2.677-5.629,5.715-11.087,8.623-16.6a16.929,16.929,0,0,1,1.207-1.742l.483.226c-.521,1.325-.942,2.7-1.583,3.965q-3.672,7.245-7.468,14.427a19.616,19.616,0,0,0-2.517,10.4c.476,8.126,6.892,11.986,14.661,9.5a6.148,6.148,0,0,0,3.831-3.618c.653-1.564,1.324-3.12,1.987-4.679l.442.226" transform="translate(-755.062 -506.531)" fill="#505050"/>
        <path id="Path_346" data-name="Path 346" d="M1715.906,702.654c-1.161,3.57-2.49,7.091-4.962,10-3.439,4.045-8.029,5.025-12.969,3.988-3.41-.716-5.373-3.328-6.33-6.609a13.319,13.319,0,0,1,.208-8.013,101.034,101.034,0,0,1,4.387-11.464c2.677-5.629,5.715-11.087,8.623-16.6a16.872,16.872,0,0,1,1.207-1.742l.483.226c-.521,1.325-.942,2.7-1.583,3.965q-3.672,7.245-7.469,14.427a19.616,19.616,0,0,0-2.517,10.4c.476,8.126,6.892,11.986,14.661,9.5a6.148,6.148,0,0,0,3.831-3.618c.653-1.564,1.324-3.12,1.987-4.679l.442.226" transform="translate(-1274.319 -506.531)" fill="#505050"/>
        <path id="Path_348" data-name="Path 348" d="M762.718,334.847c-1.161,3.57-2.49,7.091-4.962,10-3.439,4.045-8.029,5.025-12.969,3.988-3.41-.716-5.373-3.328-6.33-6.609a13.317,13.317,0,0,1,.208-8.013,100.967,100.967,0,0,1,4.387-11.464c2.677-5.629,5.715-11.087,8.623-16.6a16.873,16.873,0,0,1,1.206-1.742l.483.226c-.522,1.324-.942,2.7-1.583,3.965q-3.672,7.245-7.468,14.427a19.616,19.616,0,0,0-2.517,10.4c.476,8.126,6.893,11.986,14.661,9.5a6.148,6.148,0,0,0,3.831-3.618c.653-1.564,1.324-3.12,1.987-4.679l.442.226" transform="translate(-556.06 -229.376)" fill="#505050"/>
      </g>
    </g>
    <g id="Group_14" data-name="Group 14" transform="translate(-285.919 -60)">
      <g id="Group_13" data-name="Group 13" transform="translate(1109.439 115)">
        <path id="Path_184" data-name="Path 184" d="M203.54,201.4c-21.68-34.964-76.073-65.546-76.073-65.546a329.047,329.047,0,0,0-32,21.962C82.341,91.948,64.689,3.423,64.606,3.084,63.493-2.128,57.411.04,58.115,3.89c.185.889,19.122,91.927,32.623,157.666-2.974,2.4-5.98,4.918-8.96,7.547C71.4,118.738,58.563,56.025,58.582,56.1c-.9-4.189-7.227-2.712-6.453,1.145.512,2.513,12.656,64.4,23.145,117.81-8.161,7.764-15.765,16.244-21.482,25.006-6.606,10.13-9.606,24.488-9.056,38.462C45.4,255.58,55.339,276.4,70.663,286.8a69.98,69.98,0,0,1,7.022,5.615q-2.753,2.907-5.7,5.973C56,315.006,46.443,321.485,35.168,327.976A69.534,69.534,0,0,1,0,337.352s9.3,5.839,35.092,3.665c22.544-1.9,34.343-11.736,50.332-13.629,12.816-1.516,23.721,9.254,23.721,9.254s5.4-30.66,19.359-53.216c14.716-23.791,31.651-29.412,45.823-28.99,13.91.416,22.224,6.9,27.743,5.666a9.723,9.723,0,0,0,5.98-4.822c.29-.592.4-.877.4-.857a67.966,67.966,0,0,0,3.928-23.324c0-11.691-3.882-21.271-8.832-29.694m-112.1-36.454c7.252,35.315,12.765,62.528,12.637,62.975.48,5.941-7.668,10.1-9.427,3.057-.531-2.117-5.8-27.577-12.158-58.441,2.961-2.66,5.967-5.2,8.947-7.591m113.876,82.993c-.051.185.016.758-.026.588l-25.7-57.392-7.144,7.412L196.4,251.545a3.835,3.835,0,0,1-4.138.454c-5.711-3.345-16.116-11.569-29.994-13.123-33.2-3.716-45.676,12.375-81.381,50.172-.192-.237-2.021-.716-4.087-1.867a48.2,48.2,0,0,1-7.188-5.673C45.67,258.7,43.258,223.866,58.9,199.365a123.23,123.23,0,0,1,17.088-20.683c7.745,39.453,14.409,73.362,14.492,73.72.192.729.569,2.955.569,2.955s2.916-14.377,41.89-26.176c30.122-5.6,33.288-1.356,33.486-1.017L153.368,199.1l-6.69,6.747,5.666,12.842s-4.106-1.017-19.691,1.074a81.737,81.737,0,0,0-23.2,8.224s-5.839-29.291-13.3-66.736c16.308-12.452,30.73-20.222,31.344-19.992,12,4.5,32,18.617,54.6,40.086,16.75,17.7,24.987,28.587,25.281,49.6.16,11.269-1.087,13.43-2.066,17.005" transform="translate(0 0)" fill="#fff" stroke="#707070" stroke-linecap="round" stroke-width="1"/>
        <path id="Path_185" data-name="Path 185" d="M120.97,383.208s-2.347,2.162-14.492,16.647c-.684-1.445-3.159-8.672-3.159-8.672l6.3-5.845a19.014,19.014,0,0,1-6.881.46c-3.281-.531-6.248-6-4.7-9.766,1.222-2.987,2.219-4.144,5.6-8.327,2.776-3.434,5.065-3.306,7.719-7.777,2-3.377,1.509-5.078,1.784-5.583.358-.652,1,.409,1,.409l2.29,12.03s-10.508,7.387-8.346,11.288c2.584,4.643,11.1-3.964,11.1-3.964Z" transform="translate(-35.186 -127.651)" fill="#fff" stroke="#707070" stroke-width="1"/>
        <path id="Path_186" data-name="Path 186" d="M251.161,409.675a14.291,14.291,0,1,1-14.287,14.287,14.294,14.294,0,0,1,14.287-14.287" transform="translate(-85.384 -147.672)" fill="#e50019"/>
        <path id="Path_187" data-name="Path 187" d="M103.734,15.835l21.885,109.112s4.745,7.822,27.814,15.208a76.491,76.491,0,0,0,9.452,2.481,20.02,20.02,0,0,0,1.957-1.106c.173-.051,3.2,1.938,4.061,2.283,24.251,9.791,53.063,3.716,59.132,20.171,6.363,17.248-2.213,28.287-35.917,28.76-8.6.122-12.612,9.459-12.612,9.459s4.112-5.417,9.4-5.327c9.1.16,17.184,5.347,24.993,3.108.2-.058,2.993-3.173,3.083-3.166.07,0,1.01,2.309,1.055,2.289a42.509,42.509,0,0,0,4.215-1.521c10.3-4.394,22.032-12.9,23.286-33.761,1.2-19.96-21.041-35.3-38.839-47.927C181.918,98.316,165.43,90.847,150.171,76.06c-39.338-38.123-46.437-60.225-46.437-60.225" transform="translate(-37.392 -5.708)" fill="#e50019"/>
      </g>
    </g>
  </g>
</svg>
