<svg xmlns="http://www.w3.org/2000/svg" xmlns:xlink="http://www.w3.org/1999/xlink" width="2233.164" height="796.51" viewBox="0 0 2233.164 796.51"
  fill-opacity="0.06" stroke-opacity="0.06">
  <defs>
    <clipPath id="clip-path">
      <rect id="Rectangle_144" data-name="Rectangle 144" width="2233.164" height="796.51" fill="none" stroke="#000" stroke-width="1"/>
    </clipPath>
  </defs>
  <g id="Group_1032" data-name="Group 1032" clip-path="url(#clip-path)">
    <path id="Path_375" data-name="Path 375" d="M2101.414,467.567C1300.62,650.026,1249.71,228.922,29.9,567.123" transform="translate(42.837 227.096)" fill="none" stroke="#000" stroke-linecap="round" stroke-linejoin="round" stroke-width="3" stroke-dasharray="1 11"/>
    <path id="Path_376" data-name="Path 376" d="M2105.6,458.948C1280.561,656.662,1220.438,219.534,28.951,546.841" transform="translate(41.479 221.785)" fill="none" stroke="#000" stroke-linecap="round" stroke-linejoin="round" stroke-width="2.935" stroke-dasharray="1 11"/>
    <path id="Path_377" data-name="Path 377" d="M2109.789,450.5C1260.5,663.465,1191.166,210.316,28,526.726" transform="translate(40.121 216.303)" fill="none" stroke="#000" stroke-linecap="round" stroke-linejoin="round" stroke-width="2.871" stroke-dasharray="1 11"/>
    <path id="Path_378" data-name="Path 378" d="M2113.976,442.215C1240.438,670.436,1161.892,201.263,27.054,506.779" transform="translate(38.761 210.655)" fill="none" stroke="#000" stroke-linecap="round" stroke-linejoin="round" stroke-width="2.806" stroke-dasharray="1 11"/>
    <path id="Path_379" data-name="Path 379" d="M2118.163,434.1C1220.378,677.57,1132.62,192.376,26.106,487" transform="translate(37.403 204.843)" fill="none" stroke="#000" stroke-linecap="round" stroke-linejoin="round" stroke-width="2.742" stroke-dasharray="1 11"/>
    <path id="Path_380" data-name="Path 380" d="M2122.351,426.137c-922.034,258.73-1019-242.49-2097.193,41.236" transform="translate(36.045 198.871)" fill="none" stroke="#000" stroke-linecap="round" stroke-linejoin="round" stroke-width="2.677" stroke-dasharray="1 11"/>
    <path id="Path_381" data-name="Path 381" d="M2126.54,418.334C1180.258,692.317,1074.077,175.077,24.209,447.905" transform="translate(34.685 192.743)" fill="none" stroke="#000" stroke-linecap="round" stroke-linejoin="round" stroke-width="2.613" stroke-dasharray="1 11"/>
    <path id="Path_382" data-name="Path 382" d="M2130.727,410.684C1160.2,699.921,1044.8,166.657,23.261,428.592" transform="translate(33.327 186.461)" fill="none" stroke="#000" stroke-linecap="round" stroke-linejoin="round" stroke-width="2.548" stroke-dasharray="1 11"/>
    <path id="Path_383" data-name="Path 383" d="M2134.915,403.183c-994.778,304.49-1119.386-244.8-2112.6,6.242" transform="translate(31.969 180.031)" fill="none" stroke="#000" stroke-linecap="round" stroke-linejoin="round" stroke-width="2.484" stroke-dasharray="1 11"/>
    <path id="Path_384" data-name="Path 384" d="M2139.1,395.826C1120.076,715.571,986.256,150.261,21.364,390.4" transform="translate(30.609 173.457)" fill="none" stroke="#000" stroke-linecap="round" stroke-linejoin="round" stroke-width="2.419" stroke-dasharray="1 11"/>
    <path id="Path_385" data-name="Path 385" d="M2143.289,388.609c-1043.272,335-1186.305-246.335-2122.873-17.086" transform="translate(29.251 166.743)" fill="none" stroke="#000" stroke-linecap="round" stroke-linejoin="round" stroke-width="2.355" stroke-dasharray="1 11"/>
    <path id="Path_386" data-name="Path 386" d="M2147.478,381.528C1079.956,731.781,927.713,134.426,19.467,352.777" transform="translate(27.891 159.893)" fill="none" stroke="#000" stroke-linecap="round" stroke-linejoin="round" stroke-width="2.29" stroke-dasharray="1 11"/>
    <path id="Path_387" data-name="Path 387" d="M2151.665,374.579C1059.9,740.084,898.44,126.706,18.519,334.164" transform="translate(26.533 152.911)" fill="none" stroke="#000" stroke-linecap="round" stroke-linejoin="round" stroke-width="2.226" stroke-dasharray="1 11"/>
    <path id="Path_388" data-name="Path 388" d="M2155.853,367.757C1039.837,748.516,869.168,119.116,17.571,315.677" transform="translate(25.175 145.802)" fill="none" stroke="#000" stroke-linecap="round" stroke-linejoin="round" stroke-width="2.161" stroke-dasharray="1 11"/>
    <path id="Path_389" data-name="Path 389" d="M2160.04,361.058C1019.775,757.072,839.9,111.648,16.623,297.315" transform="translate(23.816 138.57)" fill="none" stroke="#000" stroke-linecap="round" stroke-linejoin="round" stroke-width="2.097" stroke-dasharray="1 11"/>
    <path id="Path_390" data-name="Path 390" d="M2164.226,354.479C999.714,765.746,810.622,104.3,15.674,279.071" transform="translate(22.457 131.218)" fill="none" stroke="#000" stroke-linecap="round" stroke-linejoin="round" stroke-width="2.032" stroke-dasharray="1 11"/>
    <path id="Path_391" data-name="Path 391" d="M2168.416,348.014C979.656,774.535,781.351,97.066,14.725,260.943" transform="translate(21.097 123.752)" fill="none" stroke="#000" stroke-linecap="round" stroke-linejoin="round" stroke-width="1.968" stroke-dasharray="1 11"/>
    <path id="Path_392" data-name="Path 392" d="M2172.6,341.661C959.6,783.436,752.079,89.944,13.777,242.925" transform="translate(19.739 116.173)" fill="none" stroke="#000" stroke-linecap="round" stroke-linejoin="round" stroke-width="1.903" stroke-dasharray="1 11"/>
    <path id="Path_393" data-name="Path 393" d="M2176.791,335.417C939.534,792.446,722.807,82.931,12.829,225.015" transform="translate(18.381 108.487)" fill="none" stroke="#000" stroke-linecap="round" stroke-linejoin="round" stroke-width="1.839" stroke-dasharray="1 11"/>
    <path id="Path_394" data-name="Path 394" d="M2180.978,329.275C919.475,801.559,693.534,76.02,11.881,207.211" transform="translate(17.022 100.697)" fill="none" stroke="#000" stroke-linecap="round" stroke-linejoin="round" stroke-width="1.774" stroke-dasharray="1 11"/>
    <path id="Path_395" data-name="Path 395" d="M2185.167,323.235C899.414,810.772,664.263,69.212,10.932,189.505" transform="translate(15.663 92.806)" fill="none" stroke="#000" stroke-linecap="round" stroke-linejoin="round" stroke-width="1.71" stroke-dasharray="1 11"/>
    <path id="Path_396" data-name="Path 396" d="M2189.354,317.291C879.353,820.082,634.99,62.5,9.983,171.9" transform="translate(14.303 84.819)" fill="none" stroke="#000" stroke-linecap="round" stroke-linejoin="round" stroke-width="1.645" stroke-dasharray="1 11"/>
    <path id="Path_397" data-name="Path 397" d="M2193.541,311.443C859.294,829.489,605.717,55.881,9.035,154.385" transform="translate(12.945 76.737)" fill="none" stroke="#000" stroke-linecap="round" stroke-linejoin="round" stroke-width="1.581" stroke-dasharray="1 11"/>
    <path id="Path_398" data-name="Path 398" d="M2197.729,305.683C839.234,838.984,576.445,49.353,8.087,136.961" transform="translate(11.587 68.565)" fill="none" stroke="#000" stroke-linecap="round" stroke-linejoin="round" stroke-width="1.516" stroke-dasharray="1 11"/>
    <path id="Path_399" data-name="Path 399" d="M2201.916,300.014C819.172,848.566,547.173,42.913,7.139,119.627" transform="translate(10.228 60.305)" fill="none" stroke="#000" stroke-linecap="round" stroke-linejoin="round" stroke-width="1.452" stroke-dasharray="1 11"/>
    <path id="Path_400" data-name="Path 400" d="M2206.1,294.427C799.113,858.233,517.9,36.559,6.191,102.377" transform="translate(8.87 51.96)" fill="none" stroke="#000" stroke-linecap="round" stroke-linejoin="round" stroke-width="1.387" stroke-dasharray="1 11"/>
    <path id="Path_401" data-name="Path 401" d="M2210.29,288.923C779.055,867.984,488.629,30.285,5.242,85.207" transform="translate(7.51 43.533)" fill="none" stroke="#000" stroke-linecap="round" stroke-linejoin="round" stroke-width="1.323" stroke-dasharray="1 11"/>
    <path id="Path_402" data-name="Path 402" d="M2214.479,283.5C758.992,877.811,459.356,24.091,4.293,68.118" transform="translate(6.151 35.027)" fill="none" stroke="#000" stroke-linecap="round" stroke-linejoin="round" stroke-width="1.258" stroke-dasharray="1 11"/>
    <path id="Path_403" data-name="Path 403" d="M2218.667,278.149C738.932,887.717,430.084,17.973,3.345,51.105" transform="translate(4.793 26.445)" fill="none" stroke="#000" stroke-linecap="round" stroke-linejoin="round" stroke-width="1.194" stroke-dasharray="1 11"/>
    <path id="Path_404" data-name="Path 404" d="M2222.854,272.874C718.872,897.7,400.811,11.93,2.4,34.166" transform="translate(3.434 17.789)" fill="none" stroke="#000" stroke-linecap="round" stroke-linejoin="round" stroke-width="1.129" stroke-dasharray="1 11"/>
    <path id="Path_405" data-name="Path 405" d="M2227.042,267.671C698.813,907.746,371.539,5.957,1.449,17.3" transform="translate(2.076 9.061)" fill="none" stroke="#000" stroke-linecap="round" stroke-linejoin="round" stroke-width="1.065" stroke-dasharray="1 11"/>
    <path id="Path_406" data-name="Path 406" d="M2231.23,262.537C678.752,917.867,342.268.056.5.5" transform="translate(0.716 0.263)" fill="none" stroke="#000" stroke-linecap="round" stroke-linejoin="round" stroke-width="1" stroke-dasharray="1 11"/>
  </g>
</svg>
