<svg xmlns="http://www.w3.org/2000/svg" xmlns:xlink="http://www.w3.org/1999/xlink" width="103.843" height="103.854" viewBox="0 0 103.843 103.854">
  <defs>
    <clipPath id="clip-path">
      <rect id="Rectangle_37" data-name="Rectangle 37" width="103.843" height="103.854" transform="translate(0 0)" fill="#505050"/>
    </clipPath>
  </defs>
  <g id="Group_6" data-name="Group 6" transform="translate(0 -0.001)">
    <g id="Group_5" data-name="Group 5" transform="translate(0 0.001)" clip-path="url(#clip-path)">
      <path id="Path_83" data-name="Path 83" d="M1316.976,979.942c1.043,0,2.086,0,3.129-.008.186,0,.372-.028.558-.043a1.138,1.138,0,0,0-.056.249q0,1.582,0,3.164a.643.643,0,0,0,.048.173,19.832,19.832,0,0,0,3.48-.04v-3.5c-.213,0-.4,0-.585,0l-2.9-.032c-.016-.273-.045-.547-.047-.82-.006-.878,0-1.757,0-2.71h3.563v-.585q0-4.818,0-9.635c0-.169-.034-.338-.051-.508l-.011.012c.426-.014.852-.038,1.278-.04.8-.005,1.608,0,2.412,0l-.017-.016v3.6h.555c.722,0,1.444,0,2.167,0,.273,0,.545.031.818.048l-.011-.012q0,1.77,0,3.539l.014-.014h-3.53v3.6h.527c.674,0,1.349-.005,2.023,0,.326,0,.652.031.978.048l-.011-.012v3.547h-3.54c.009,1.211-.015,2.372.016,3.593h3.558v7.1h3.588c0-.622,0-1.206,0-1.79s-.016-1.158.016-1.781h3.536V983.56l-.02.02a3.943,3.943,0,0,1,.458-.054c.9-.005,1.8,0,2.694,0,.136,0,.272.017.456.029v3.534h3.558v7.153h-7.115c-.017,1.26-.033,2.462-.049,3.664l.019-.023a1.914,1.914,0,0,0-.255-.034q-3.265,0-6.53,0a1.84,1.84,0,0,0-.33.059,1.247,1.247,0,0,0-.032.185q0,3.5.008,7a1.6,1.6,0,0,0-.344-.078c-.985-.006-1.97,0-2.955,0a1.464,1.464,0,0,0-.246.044v3.473a19.318,19.318,0,0,0,3.532-.039v-3.414a5.012,5.012,0,0,1,.557-.065c.83-.007,1.66,0,2.49,0,.168,0,.337-.017.547-.029.016-1.2-.005-2.367.012-3.553h3.545l-.018-.016q.014,1.45.028,2.9c0,.206,0,.411,0,.692,2.39.018,4.747,0,7.131.013v3.552h-3.52v7.176c-.246,0-.431,0-.615,0l-3.054.036a3.743,3.743,0,0,0,.056-.456c.005-.9,0-1.795,0-2.692,0-.134-.016-.268-.028-.462-1.185.009-2.343-.022-3.5.022v3.573h3.487c.015.758.033,1.517.044,2.275.006.411,0,.822,0,1.261h-21.471v-3.535h-3.526l.015.012a1.093,1.093,0,0,1-.058-.246q-.005-1.556,0-3.112a1.686,1.686,0,0,1,.046-.25H1317v-3.576h7.141v-3.549c-.153-.012-.285-.032-.418-.032q-4.928,0-9.856,0c-.137,0-.274.023-.411.036l.013.016c-.015-1.2-.03-2.4-.045-3.637-1.219-.01-2.384,0-3.579-.008v-.64q0-2.98,0-5.96c0-.189-.018-.378-.028-.567,1.2.021,2.4.014,3.59.006v-3.53c-.136-.015-.238-.036-.34-.036q-1.449,0-2.9,0a2.224,2.224,0,0,0-.353.057c.016-1.2.032-2.4.049-3.658h3.577c0-.639-.006-1.222,0-1.8s-.034-1.158.029-1.753c1.2-.016,2.352.006,3.521-.014v-3.589Zm10.758,10.778h-10.7v10.669h10.7Zm-3.6,21.475h-3.5v3.528h3.5Zm3.685-.006a19.487,19.487,0,0,0,.024,3.512h3.447v-3.512Z" transform="translate(-1241.821 -915.479)" fill="#505050"/>
      <path id="Path_84" data-name="Path 84" d="M279.682,42.942l-2.273.035c-.4.006-.792.015-1.189.022l.015.012a2.083,2.083,0,0,1-.06-.35q-.005-3.242,0-6.484c0-.1.014-.2.025-.343h21.359c.116-.4.151-13.539.045-14.3h-3.532v7.089h-3.5c-.1-.352-.148-20.44-.038-21.438h7.115V3.608H301.2V.112a19.563,19.563,0,0,1,3.606-.055V3.57h3.564V.05h3.59V3.569c1.211.054,2.372.037,3.581.011V.045h3.586V10.76h.6q2.983,0,5.965,0a6.014,6.014,0,0,1,.61.063c0,1.151,0,2.3,0,3.474h7.127V10.8c-.161-.015-.3-.037-.429-.037q-3.134,0-6.267,0a2.59,2.59,0,0,0-.447.078c0-1.052.005-2.105.015-3.157a5.209,5.209,0,0,1,.063-.556l-.012.01c.189.012.377.033.566.033q4.746,0,9.492,0h.584V17.906c-1.192.031-2.378.01-3.563.014s-2.341,0-3.565,0v7.128H326.3V17.978a3.2,3.2,0,0,0-.4-.055q-3.164,0-6.328,0a1.963,1.963,0,0,0-.39.082l.006.008a5.6,5.6,0,0,1-.059-.562c-.006-.846,0-1.691,0-2.537v-.568H312c-.011-.207-.025-.357-.025-.507,0-.846,0-1.692,0-2.537a3.836,3.836,0,0,1,.056-.453,2.9,2.9,0,0,1,.487-.085c.845-.009,1.691,0,2.536-.006.149,0,.3-.022.437-.032a19.548,19.548,0,0,0-.042-3.517h-3.471c0,1.173,0,2.31,0,3.446a.776.776,0,0,0,.055.2,1.863,1.863,0,0,0-.394-.089c-.984-.007-1.968,0-2.952,0a2.423,2.423,0,0,0-.3.044v7.1c-1.2.026-2.346,0-3.559.018-.042.614-.016,1.212-.019,1.808s.006,1.174.01,1.761l.015-.014-3.589.022v3.55c.2.01.372.024.541.024.829,0,1.657,0,2.486,0,.187,0,.375.033.562.051l-.016-.011v3.522h-3.594V39.361a14.69,14.69,0,0,1-1.78.039c-.6.009-1.21,0-1.815,0h-7.114v3.56h3.5v3.563H279.736c0-.864.006-1.691,0-2.518,0-.359-.041-.717-.062-1.075a3.86,3.86,0,0,0,.41.042q3.215,0,6.429,0c.116,0,.231-.02.358-.032V39.47c-.592-.111-6.707-.089-7.133.033,0,.934,0,1.881,0,2.829,0,.2-.033.407-.051.611m21.474-28.653a1.542,1.542,0,0,0,.253.042q1.556,0,3.112,0a2.241,2.241,0,0,0,.254-.029V7.209a19.006,19.006,0,0,0-3.559.061v.557q0,2.956,0,5.912c0,.187-.03.375-.045.564l-3.48.048v3.534h3.491a1.884,1.884,0,0,0,.034-.236q0-1.53,0-3.061a1.606,1.606,0,0,0-.058-.3" transform="translate(-261.836 -0.001)" fill="#505050"/>
      <path id="Path_85" data-name="Path 85" d="M.063.525H24.974c.1.378.142,24.21.04,25.017H.1C0,25.166-.043,1.376.063.525m21.229,3.8C20.553,4.207,4.152,4.241,3.8,4.35v17.4c.751.111,17.118.073,17.492-.041Z" transform="translate(0 -0.498)" fill="#505050"/>
      <path id="Path_86" data-name="Path 86" d="M1518.03,25.872v-25h24.94c.1.355.145,24.123.039,25Zm3.747-3.789c.774.114,17.135.075,17.49-.033V4.652c-.725-.113-17.121-.078-17.49.036Z" transform="translate(-1439.227 -0.831)" fill="#505050"/>
      <path id="Path_87" data-name="Path 87" d="M.088,1517.86H25c.1.38.139,24.232.039,25.017H.123c-.1-.377-.14-24.2-.035-25.017m3.72,21.225c.768.114,17.135.075,17.49-.033v-17.4c-.72-.113-17.121-.078-17.49.036Z" transform="translate(-0.024 -1439.066)" fill="#505050"/>
      <path id="Path_88" data-name="Path 88" d="M835.824,632.382c-.189-.012-.378-.035-.566-.035q-3.008,0-6.015,0h-.6v-10.7h10.676v3.526l3.657.046-.017-.018v7.152h.61q6.555,0,13.11,0c.206,0,.413.017.619.026l-.017-.018c-.011.119-.031.239-.031.358q0,3.178,0,6.357a3.448,3.448,0,0,0,.047.4l.012-.013c-.188.015-.375.043-.563.043q-3.025,0-6.05,0h-.6v3.552c-.2.013-.37.033-.536.034-.845,0-1.689,0-2.534,0-.188,0-.376.024-.565.037l.012.011V639.5h-3.539l.016.014q-.013-1.474-.027-2.948c0-.186,0-.371,0-.625h-7.161c0-.324,0-.579,0-.835q.02-1.368.043-2.737l3.486-.035V628.8h-3.5c-.012.111-.028.193-.029.276q0,1.5,0,3a1.664,1.664,0,0,0,.056.3" transform="translate(-785.627 -589.37)" fill="#505050"/>
      <path id="Path_89" data-name="Path 89" d="M1309.225,429c.016-.274.045-.548.047-.822.006-.879,0-1.757,0-2.711,1.207-.023,2.373,0,3.582-.017v-10.7h3.563c.03.568.01,1.149.013,1.728,0,.605,0,1.211,0,1.816v7.131h3.592v-3.519h17.852v3.55h-7.1v3.57h-7.151v3.587h3.538v3.55h-7.107v-3.421a16.427,16.427,0,0,0-3.6-.066v3.509l-3.556.019.018.018c-.016-.187-.046-.374-.046-.562q-.005-3.005,0-6.011v-.588c-.219-.011-.387-.025-.555-.026-.864,0-1.727,0-2.591,0-.171,0-.342-.028-.512-.043Z" transform="translate(-1241.25 -393.219)" fill="#505050"/>
      <path id="Path_90" data-name="Path 90" d="M67.676,556.36a3.631,3.631,0,0,1,.551-.089c.847-.01,1.694,0,2.541-.005.169,0,.338-.016.552-.026v-3.522H89.194v3.545l-2.371,0H74.911v3.56h-3.53c-.018.16-.041.274-.041.389q0,6.9,0,13.793c0,.052.007.1.01.155l.015-.014h-3.65l.015.014c0-.173.011-.345.011-.518q0-8.341,0-16.683c0-.2-.037-.406-.057-.608Z" transform="translate(-64.163 -524.026)" fill="#505050"/>
      <path id="Path_91" data-name="Path 91" d="M903.2,1735.3c.016-.273.045-.546.047-.82.006-.878,0-1.756,0-2.71-.608,0-1.186-.01-1.763-.012-.6,0-1.208,0-1.811,0H896.1c-.008-1.233-.016-2.415-.023-3.6l-.014.014H899.7v-3.54h3.538q.013,1.75.025,3.5h3.6v-3.5H910.4q.013,1.75.025,3.5h3.6v-3.5a3.511,3.511,0,0,1,.358-.036q3.205,0,6.411,0a3.178,3.178,0,0,1,.406.051l-.013-.016v3.524h-3.6v3.588c-.747,0-1.447.009-2.147.011s-1.417,0-2.126,0h-6.446v3.523a1.86,1.86,0,0,1-.26.047q-1.608,0-3.215,0a1.028,1.028,0,0,1-.2-.041Z" transform="translate(-849.548 -1635.074)" fill="#505050"/>
      <path id="Path_92" data-name="Path 92" d="M828.191,1177.012h3.537c.031-1.19,0-2.354.022-3.545h7.128v3.527c.626.027,1.205.011,1.784.014s1.172,0,1.821,0v3.587h.568c.829,0,1.659,0,2.488,0,.17,0,.34.032.51.049l-.011-.014q.006,1.769.012,3.538l-7.177,0a22.3,22.3,0,0,0-.05-3.542h-3.457v3.542l-3.652-.016.015.015c0-.587.013-1.174.01-1.76s.022-1.2-.02-1.844H828.2V1177Z" transform="translate(-785.199 -1112.551)" fill="#505050"/>
      <path id="Path_93" data-name="Path 93" d="M152.58,1248.608q-3.03.006-6.061.012-2.072,0-4.144,0H141.8v3.557h-3.537c-.013-.156-.033-.29-.034-.423q0-4.973,0-9.946c0-.12.018-.24.027-.36l-.018.016h3.541l-.015-.015c.015,1.182.029,2.363.044,3.534.66.11,6.741.084,7.132-.028v-3.505l-.017.016H156.1l-.012-.015q0,1.826,0,3.651l.016-.017q-1.579-.018-3.158-.035c-.115,0-.231.019-.384.033v3.543Z" transform="translate(-131.054 -1177.003)" fill="#505050"/>
      <path id="Path_94" data-name="Path 94" d="M7.208,979.914H3.582v10.664a19.193,19.193,0,0,1-3.478.053c-.1-.367-.144-24.17-.034-25.024h3.5l-.015-.014c.009.206.025.412.025.619q0,4.735,0,9.47v.673H7.19v3.574Z" transform="translate(-0.004 -915.469)" fill="#505050"/>
      <path id="Path_95" data-name="Path 95" d="M693.684,897.06a1.876,1.876,0,0,1,.395-.088c.984-.007,1.968,0,2.953,0a2.365,2.365,0,0,1,.3.045V904.1h3.48a19.5,19.5,0,0,1,.042,3.59H697.36c0,2.423,0,4.8,0,7.174l.012-.015-3.652.016a2.417,2.417,0,0,0,.027-.256q0-3.255,0-6.51c0-.116-.015-.232-.027-.41H690.2l.016.014v-3.571H693.7a3.163,3.163,0,0,0,.045-.351q0-3.189,0-6.378a2.161,2.161,0,0,0-.057-.35Z" transform="translate(-654.368 -850.405)" fill="#505050"/>
      <path id="Path_96" data-name="Path 96" d="M428.365,1317.981v3.5H421.2c-.028-1.149,0-2.313-.019-3.53h-7.154c.015-1.241-.03-2.424.031-3.609l-.019.017,3.542-.013v-3.529l-.016.017a4.052,4.052,0,0,1,.458-.051q3.156,0,6.311,0a3.985,3.985,0,0,1,.408.041c.006,2.355.012,4.709.018,7.092.233.01.4.024.572.025.828,0,1.656,0,2.483,0,.187,0,.374.033.561.051Z" transform="translate(-392.537 -1242.734)" fill="#505050"/>
      <path id="Path_97" data-name="Path 97" d="M559.147,1597.931q-.016,1.476-.032,2.952c0,.186,0,.371,0,.591h-7.078c-.1-.4-.122-13.69-.017-14.257h3.5V1597.9l3.646.046-.017-.018" transform="translate(-523.298 -1504.823)" fill="#505050"/>
      <path id="Path_98" data-name="Path 98" d="M700.7,1597.371l-9.075.01c-.536,0-1.071.005-1.607.008l.018.018a4.538,4.538,0,0,1-.046-.458q0-4.894,0-9.787c0-.152.015-.3.025-.482.159-.012.292-.031.425-.032q1.346,0,2.693,0a3.383,3.383,0,0,1,.406.049l-.011-.014c.008.19.023.379.023.569q0,2.956,0,5.913v.635h7.135v3.584Z" transform="translate(-654.168 -1504.281)" fill="#505050"/>
      <path id="Path_99" data-name="Path 99" d="M145.641,828.284a2.688,2.688,0,0,0-.046.354q0,5.109,0,10.218c0,.069.008.138.012.207l.011-.015c-.205-.013-.411-.036-.616-.037q-3,0-6,0c-.181,0-.361-.018-.547-.028v-3.568l-.015.014h3.548c.01-2.386,0-4.743.007-7.131h3.656l-.014-.011" transform="translate(-131.257 -785.287)" fill="#505050"/>
      <path id="Path_100" data-name="Path 100" d="M1176.611,8.037c-.759.015-1.517.032-2.276.043-.444.006-.889,0-1.36,0V.959h10.694V4.472c-1.172.08-2.357.023-3.539.034s-2.344,0-3.508,0a.711.711,0,0,0-.068.182q-.006,1.607,0,3.214a.465.465,0,0,0,.047.144l.013-.01" transform="translate(-1112.085 -0.909)" fill="#505050"/>
      <path id="Path_101" data-name="Path 101" d="M758.119,1390.222l0-7.169-.016.011c.187-.018.374-.05.561-.051.827-.006,1.655,0,2.482,0,.184,0,.367-.018.59-.029v-3.552h3.543l-.015-.015c.008.086.024.171.024.257q0,3.291,0,6.582c0,.1-.019.2-.033.339h-3.541v3.663l.014-.015c-.03-.016-.06-.046-.09-.046q-1.766.006-3.533.016Z" transform="translate(-718.751 -1307.805)" fill="#505050"/>
      <path id="Path_102" data-name="Path 102" d="M482.239,1110.71q0-1.768,0-3.535l-.016.011c.187-.018.374-.05.561-.051.828-.006,1.656,0,2.483,0,.184,0,.367-.018.58-.029,0-.261,0-.467,0-.672q.012-1.447.026-2.9l-.012.015h7.174l-.016-.014c-.007,1.18-.015,2.361-.023,3.608h-3.6v3.567c-.258,0-.516,0-.774,0l-6.4-.01.012.015" transform="translate(-457.193 -1046.249)" fill="#505050"/>
      <path id="Path_103" data-name="Path 103" d="M1730.859,1103.508c.009.137.027.274.027.412q0,4.971,0,9.941c0,.155-.019.309-.029.464l.02-.02c-.172-.012-.343-.034-.515-.035-.83,0-1.66,0-2.49,0h-.557v-7.122H1723.7l.011.012q0-1.824,0-3.647l-.014.014h7.175Z" transform="translate(-1634.222 -1046.224)" fill="#505050"/>
      <path id="Path_104" data-name="Path 104" d="M1379.775,900.116h3.509v-3.445c.438-.118,6.017-.161,7.1-.066a.91.91,0,0,1,.058.227q.007,1.555,0,3.11a1.093,1.093,0,0,1-.058.248l.01-.011-3.2-.03c-.083,0-.166.011-.291.02v3.458a69.662,69.662,0,0,1-7.124.058.705.705,0,0,1-.045-.177q-.005-1.578,0-3.156a1.16,1.16,0,0,1,.055-.249l-.011.013" transform="translate(-1308.106 -850.013)" fill="#505050"/>
      <path id="Path_105" data-name="Path 105" d="M1724.2,766.817V759.6h3.573c.027,1.172,0,2.335.017,3.509h3.5l-.012-.01c.016.03.047.061.048.091,0,1.156,0,2.311,0,3.54h-.576q-2.981,0-5.961,0a5.584,5.584,0,0,0-.608.066l.014.015" transform="translate(-1634.677 -720.171)" fill="#505050"/>
      <path id="Path_106" data-name="Path 106" d="M209.991,1103.553v3.572h3.454a20.443,20.443,0,0,1,.069,3.6l.017-.016h-7.176l.015.015v-7.161h3.634Z" transform="translate(-195.644 -1046.266)" fill="#505050"/>
      <path id="Path_107" data-name="Path 107" d="M972.779,417.478v3.5H965.69c-.1-.353-.137-6.275-.034-7.123h3.5l-.012-.015c.015,1.182.029,2.363.044,3.572.222.01.392.024.561.024.828,0,1.656,0,2.483,0,.187,0,.374.033.561.051Z" transform="translate(-915.469 -392.354)" fill="#505050"/>
      <path id="Path_108" data-name="Path 108" d="M1723.65,965.621h7.16v3.641l.019-.023a2.686,2.686,0,0,0-.306-.034q-3.255,0-6.511,0a3.449,3.449,0,0,0-.358.036l.011.012q0-1.824,0-3.647Z" transform="translate(-1634.173 -915.479)" fill="#505050"/>
      <path id="Path_109" data-name="Path 109" d="M1171.986,1245.123v-3.635c1.229-.007,2.411,0,3.592,0s2.378,0,3.568,0l-.012-.015v3.6h-.6q-2.972,0-5.944,0c-.206,0-.411.024-.616.036l.011.013" transform="translate(-1111.136 -1177.028)" fill="#505050"/>
      <path id="Path_110" data-name="Path 110" d="M559.557,1935.5h-7.086v-3.519h7.054a19.945,19.945,0,0,1,.032,3.519" transform="translate(-523.792 -1831.689)" fill="#505050"/>
      <rect id="Rectangle_35" data-name="Rectangle 35" width="3.536" height="7.084" transform="translate(39.411 96.726)" fill="#505050"/>
      <path id="Path_111" data-name="Path 111" d="M1309.883,1177.062v-3.543h7.094a21.6,21.6,0,0,1,.053,3.544l.017-.016h-7.175Z" transform="translate(-1241.874 -1112.6)" fill="#505050"/>
      <path id="Path_112" data-name="Path 112" d="M1034.5,969.286v-3.667h3.611l-.016-.014q0,1.824,0,3.647l.012-.011c-1.007-.013-2.014-.03-3.022-.036a5.109,5.109,0,0,0-.6.065l.014.015" transform="translate(-980.782 -915.479)" fill="#505050"/>
      <path id="Path_113" data-name="Path 113" d="M1172.435,556.164v-3.643h3.5a20.321,20.321,0,0,1,.026,3.532c-.159.009-.327.025-.5.026-.83,0-1.66,0-2.49,0a4.935,4.935,0,0,0-.557.066Z" transform="translate(-1111.559 -523.839)" fill="#505050"/>
      <path id="Path_114" data-name="Path 114" d="M1171.313,1104.157h3.573a20.177,20.177,0,0,1,.031,3.513h-3.545c0-.229,0-.431,0-.633q-.021-1.448-.044-2.9Z" transform="translate(-1110.509 -1046.824)" fill="#505050"/>
      <path id="Path_115" data-name="Path 115" d="M1172.93,1931.782h3.537v3.467a16.517,16.517,0,0,1-3.537.022Z" transform="translate(-1112.042 -1831.501)" fill="#505050"/>
      <path id="Path_116" data-name="Path 116" d="M1314.492,1931.8c-.016.273-.044.547-.046.82-.006.88,0,1.761,0,2.631a15.681,15.681,0,0,1-3.571.034v-3.475h3.633l-.014-.011" transform="translate(-1242.824 -1831.517)" fill="#505050"/>
      <path id="Path_117" data-name="Path 117" d="M552.236,970.139a.826.826,0,0,1-.052-.2c0-1.136,0-2.273,0-3.445h3.47a19.628,19.628,0,0,1,.042,3.517c-.139.011-.288.032-.436.033-.845,0-1.69,0-2.535.006a3.2,3.2,0,0,0-.492.082l.006.008" transform="translate(-523.518 -916.322)" fill="#505050"/>
      <path id="Path_118" data-name="Path 118" d="M418.319,970.014a3.317,3.317,0,0,0-.495-.078c-.811-.008-1.621,0-2.432,0h-.547v-3.557h3.445c.024.033.059.06.059.087q.011,1.655.013,3.31a1.208,1.208,0,0,1-.053.252Z" transform="translate(-393.311 -916.209)" fill="#505050"/>
      <path id="Path_119" data-name="Path 119" d="M1861.571,1586.717a2.236,2.236,0,0,1,.353-.057q1.449-.007,2.9,0c.1,0,.2.021.34.036v3.527c-1.192.013-2.391.015-3.589,0l.018.016q0-1.771,0-3.541Z" transform="translate(-1764.935 -1504.292)" fill="#505050"/>
      <path id="Path_120" data-name="Path 120" d="M1245.9,689.052a2.229,2.229,0,0,1,.057.352c0,.985,0,1.971,0,2.956,0,.085-.018.17-.031.288h-3.494v-3.534l3.479-.049-.013-.014" transform="translate(-1177.941 -653.283)" fill="#505050"/>
      <path id="Path_121" data-name="Path 121" d="M694.18,832.07a2.984,2.984,0,0,0-.488-.085c-.811-.009-1.621,0-2.432,0h-.546v-3.558h3.446c.025.036.059.063.059.09q.011,1.655.013,3.311a1.116,1.116,0,0,1-.058.25l.005,0" transform="translate(-654.858 -785.42)" fill="#505050"/>
      <path id="Path_122" data-name="Path 122" d="M828.117,413.851h3.462a20.441,20.441,0,0,1,.035,3.584h-.495c-.83,0-1.66,0-2.49,0-.171,0-.342.027-.513.041l.016.011q0-1.826,0-3.651Z" transform="translate(-785.128 -392.354)" fill="#505050"/>
      <path id="Path_123" data-name="Path 123" d="M1860.9,762.386c.018-.186.05-.371.051-.557.005-.963,0-1.925,0-2.875a17.69,17.69,0,0,1,3.593-.051c.007,1.134,0,2.28,0,3.451a1.161,1.161,0,0,1-.251.061q-1.6.005-3.206,0a1.073,1.073,0,0,1-.2-.039l.011.009" transform="translate(-1764.286 -719.445)" fill="#505050"/>
      <path id="Path_124" data-name="Path 124" d="M4.483,556.192A2.983,2.983,0,0,0,4,556.108c-.811-.009-1.621,0-2.432,0H1.017v-3.558H4.463c.025.036.059.063.059.09q.011,1.655.013,3.31a1.121,1.121,0,0,1-.058.25l.005,0" transform="translate(-0.964 -523.863)" fill="#505050"/>
      <path id="Path_125" data-name="Path 125" d="M693.72,1383.093c-.479-.014-.958-.042-1.436-.04-.7,0-1.4.026-2.106.04l.016.011v-3.589a20.8,20.8,0,0,1,3.51.029v3.561Z" transform="translate(-654.349 -1307.845)" fill="#505050"/>
      <path id="Path_126" data-name="Path 126" d="M1104,413.851h3.461a20.654,20.654,0,0,1,.032,3.582H1107c-.83,0-1.66,0-2.489,0-.171,0-.342.027-.513.041l.016.011q0-1.826,0-3.651Z" transform="translate(-1046.685 -392.353)" fill="#505050"/>
      <path id="Path_127" data-name="Path 127" d="M418.081,1107.175q-1.32-.021-2.639-.042c-.289,0-.579,0-.89,0v-3.583h3.526l-.012-.015q0,1.826,0,3.651Z" transform="translate(-393.031 -1046.249)" fill="#505050"/>
      <path id="Path_128" data-name="Path 128" d="M1861.571,1034.96a2.235,2.235,0,0,1,.353-.057q1.449-.007,2.9,0c.1,0,.2.021.34.036v3.527c-1.192.013-2.391.015-3.589,0l.018.016q0-1.771,0-3.541Z" transform="translate(-1764.935 -981.177)" fill="#505050"/>
      <path id="Path_129" data-name="Path 129" d="M1034,348.782v-3.517a2.426,2.426,0,0,1,.344-.058c.979,0,1.958-.006,2.937,0a1.843,1.843,0,0,1,.392.088l-.006-.007a.8.8,0,0,0-.052.194q0,1.649.011,3.3l.012-.015h-3.65Z" transform="translate(-980.316 -327.285)" fill="#505050"/>
      <path id="Path_130" data-name="Path 130" d="M481.584,1034.977a1.88,1.88,0,0,1,.392-.087q1.467-.011,2.935,0a1.837,1.837,0,0,1,.392.088l-.006-.007a.8.8,0,0,0-.052.194q0,1.649.011,3.3l.012-.015h-3.65l.012.015q.007-1.651.011-3.3a.8.8,0,0,0-.047-.2l-.01.011" transform="translate(-456.584 -981.162)" fill="#505050"/>
      <path id="Path_131" data-name="Path 131" d="M970.024,1930.507a2.214,2.214,0,0,1,.057.352c0,.985,0,1.971,0,2.956,0,.085-.018.17-.031.288h-3.494v-3.534l3.479-.049-.013-.014" transform="translate(-916.383 -1830.292)" fill="#505050"/>
      <path id="Path_132" data-name="Path 132" d="M1107.335,621.135v3.513H1103.8l.018.019c-.016-.255-.044-.51-.046-.765-.006-.756,0-1.513,0-2.269,0-.168.014-.336.023-.532.142-.013.257-.032.373-.032.911,0,1.822-.005,2.733,0a2.586,2.586,0,0,1,.445.079l-.014-.014" transform="translate(-1046.474 -588.825)" fill="#505050"/>
      <path id="Path_133" data-name="Path 133" d="M276.383,1034.942c.17-.018.34-.05.509-.051.984,0,1.968,0,2.943,0a18.655,18.655,0,0,1,.046,3.564h-3.5l.014.014q0-1.77,0-3.539l-.011.015" transform="translate(-262.035 -981.166)" fill="#505050"/>
      <path id="Path_134" data-name="Path 134" d="M1935.592,1176.346h-3.476v-3.537c1.143-.038,2.291-.006,3.429-.017a18.62,18.62,0,0,1,.047,3.554" transform="translate(-1831.818 -1111.909)" fill="#505050"/>
      <path id="Path_135" data-name="Path 135" d="M1935.561,896.729v3.508h-3.5v-3.46a19.99,19.99,0,0,1,3.5-.048" transform="translate(-1831.761 -850.13)" fill="#505050"/>
      <path id="Path_136" data-name="Path 136" d="M969.957,1034.984v3.413a19.356,19.356,0,0,1-3.533.038v-3.473a1.51,1.51,0,0,1,.248-.043c.985,0,1.97-.005,2.955,0a1.57,1.57,0,0,1,.344.078l-.014-.014" transform="translate(-916.256 -981.193)" fill="#505050"/>
      <path id="Path_137" data-name="Path 137" d="M1107.546,1038.544h-3.494v-3.555l-.012.011c.942-.017,1.883-.037,2.825-.047.238,0,.475.031.713.047l-.012-.011q.008,1.713.014,3.426a.487.487,0,0,1-.047.145l.013-.015" transform="translate(-1046.728 -981.227)" fill="#505050"/>
      <path id="Path_138" data-name="Path 138" d="M1659.324,897.078q-.014,1.755-.028,3.51l.017-.016h-3.541l.017.016V897.06a1.019,1.019,0,0,1,.2-.045c1.018,0,2.035-.006,3.053,0a1.167,1.167,0,0,1,.292.078l-.014-.014" transform="translate(-1569.82 -850.447)" fill="#505050"/>
      <path id="Path_139" data-name="Path 139" d="M1935.526,620.918v3.506h-3.5V620.96a20.986,20.986,0,0,1,3.5-.042" transform="translate(-1831.728 -588.636)" fill="#505050"/>
      <path id="Path_140" data-name="Path 140" d="M1517.559,1517.862h3.477a20.938,20.938,0,0,1,.04,3.534h-3.491c-.054-1.165-.015-2.325-.026-3.534" transform="translate(-1438.778 -1439.068)" fill="#505050"/>
      <path id="Path_141" data-name="Path 141" d="M973.014,1397.386c-.17-.018-.339-.05-.509-.051q-1.317-.008-2.634,0c-.17,0-.339.033-.509.051v-3.621h-3.527c-.013-1.212-.018-2.373.007-3.594h3.541V1386.6h3.594v-3.571h3.479a21.243,21.243,0,0,0,.068-3.614h3.617v3.6c.263,0,.466,0,.669,0l2.891.036q0,1.771,0,3.541h-3.534v3.562h-7.113a2.142,2.142,0,0,0-.062.34q0,3.345,0,6.689a1.721,1.721,0,0,0,.024.206" transform="translate(-915.688 -1307.807)" fill="#505050"/>
      <path id="Path_142" data-name="Path 142" d="M1175.574,1659.849c-.17-.018-.339-.05-.509-.051q-1.317-.008-2.634,0c-.17,0-.339.033-.509.051q.014-1.475.027-2.949c0-.2,0-.409,0-.652h3.578q.023,1.8.046,3.6" transform="translate(-1111.087 -1570.269)" fill="#505050"/>
      <rect id="Rectangle_36" data-name="Rectangle 36" width="10.68" height="10.676" transform="translate(7.197 7.206)" fill="#505050"/>
      <path id="Path_143" data-name="Path 143" d="M1666.74,138.9v10.618c-.372.113-10.088.138-10.669.024V138.9Z" transform="translate(-1570.103 -131.686)" fill="#505050"/>
      <path id="Path_144" data-name="Path 144" d="M137.98,1655.814h10.591c.105.373.144,9.868.042,10.693H138.021c-.106-.371-.146-9.808-.041-10.693" transform="translate(-130.759 -1569.859)" fill="#505050"/>
      <path id="Path_145" data-name="Path 145" d="M965.81,1379.424h3.541v3.559h-3.53c-.04-1.19-.023-2.374-.01-3.559" transform="translate(-915.66 -1307.817)" fill="#505050"/>
      <path id="Path_146" data-name="Path 146" d="M827.668,1587.009c.045-.023.091-.065.136-.065,1.121,0,2.242,0,3.4,0v3.479a20.054,20.054,0,0,1-3.522.021c0-1.144,0-2.3,0-3.448l-.015.016" transform="translate(-784.703 -1504.561)" fill="#505050"/>
      <path id="Path_147" data-name="Path 147" d="M620.165,1241.474h7.175v3.569c-.2.01-.384.027-.565.027-2,0-4,0-6,0-.2,0-.408.033-.613.051q0-1.826,0-3.651" transform="translate(-587.971 -1177.028)" fill="#505050"/>
    </g>
  </g>
</svg>
